M48
INCH,LZ
;FILE_FORMAT=2:4
;TYPE=PLATED
;Layer: PTH_Through
;EasyEDA v6.5.40, 2024-04-23 11:15:46
;c7e9cca6e7fb4e88997dfbcd3db0eb44,2d5800d2cc32464ebd88bb1e24ba3ef2,10
;Gerber Generator version 0.2
;Holesize 1 = 0.0120 inch
T01C0.0120
;Holesize 2 = 0.0300 inch
T02C0.0300
;Holesize 3 = 0.0350 inch
T03C0.0350
;Holesize 4 = 0.0360 inch
T04C0.0360
%
G05
G90
T01
X025681Y022997
X021011Y032847
X014478Y026825
X018527Y035976
X012580Y020652
X019167Y028587
X018003Y031522
X021112Y031600
X031388Y016674
X031599Y020400
X008214Y019840
X030762Y009196
X023037Y009118
X013217Y009546
X014070Y008693
X017460Y007705
X017950Y008576
X025197Y035987
X023664Y025370
X009665Y036528
X007053Y025708
X011262Y025151
X022450Y025126
X022622Y018521
X007053Y034584
X007053Y029669
X004668Y021516
X026088Y018521
X026088Y015376
X006633Y018055
X005855Y038650
X005753Y025157
X026811Y024883
X029584Y029298
X024581Y026737
X029001Y019864
X024579Y019492
X019591Y029632
X020492Y031100
X013127Y029477
X013127Y031455
X014759Y032063
X015707Y032407
X022093Y025451
X022093Y026169
X020878Y033909
X020778Y035088
X017095Y025222
X016047Y026271
X005123Y015597
T02
X025800Y010350
X025800Y009350
X025800Y011350
X017950Y010400
X017950Y009400
X017950Y011400
T03
X008500Y016200
X008500Y015200
X005883Y011150
X005883Y010150
X005883Y009150
X005883Y008150
X007117Y011150
X007117Y010150
X007117Y009150
X007117Y008150
X032600Y018100
X032600Y017100
X032600Y016100
X032600Y015100
X001450Y008300
X001450Y009300
X001450Y010300
X001450Y011300
X001500Y013200
X001500Y014200
X001500Y015200
X001500Y016200
X008350Y011150
X008350Y010150
X008350Y009150
X008350Y008150
X026400Y013400
X025400Y013400
X002650Y008300
X002650Y009300
X002650Y010300
X002650Y011300
X032500Y037150
X032500Y036150
X032500Y035150
X032500Y034150
X012200Y037150
X012200Y036150
X012200Y035150
X012200Y034150
X001500Y037150
X001500Y036150
X001500Y035150
X001500Y034150
X010850Y037150
X010850Y036150
X010850Y035150
X010850Y034150
X032500Y032400
X032500Y031400
X032500Y030400
X032500Y029400
X001500Y032400
X001500Y031400
X001500Y030400
X001500Y029400
X024000Y020050
X024000Y019050
X024000Y018050
X024000Y017050
X032500Y027650
X032500Y026650
X032500Y025650
X032500Y024650
X001500Y027650
X001500Y026650
X001500Y025650
X001500Y024650
X032500Y022900
X032500Y021900
X032500Y020900
X032500Y019900
X001500Y022900
X001500Y021900
X001500Y020900
X001500Y019900
X004650Y011150
X004650Y010150
X004650Y009150
X004650Y008150
X023950Y023250
X022950Y023250
X021950Y023250
X020950Y023250
X019950Y023250
X018950Y023250
X017950Y023250
X016950Y023250
X015950Y023250
X014950Y023250
X013950Y023250
X012950Y023250
X011950Y023250
X010950Y023250
X009950Y023250
X009850Y013450
X010850Y013450
X011850Y013450
X012850Y013450
X013850Y013450
X014850Y013450
X015850Y013450
X016850Y013450
X017850Y013450
X018850Y013450
X019850Y013450
X020850Y013450
X021850Y013450
X022850Y013450
X023850Y013450
X009950Y021950
X010950Y021950
X011950Y021950
X012950Y021950
X013950Y021950
X014950Y021950
X015950Y021950
X016950Y021950
X017950Y021950
X018950Y021950
X019950Y021950
X020950Y021950
X021950Y021950
X022950Y021950
X023950Y021950
X023850Y014800
X022850Y014800
X021850Y014800
X020850Y014800
X019850Y014800
X018850Y014800
X017850Y014800
X016850Y014800
X015850Y014800
X014850Y014800
X013850Y014800
X012850Y014800
X011850Y014800
X010850Y014800
X009850Y014800
T04
X008500Y014200
M30
