M48
INCH,LZ
;FILE_FORMAT=2:4
;TYPE=PLATED
;Layer: PTH_Through_Via
;EasyEDA v6.5.40, 2024-04-23 11:15:46
;c7e9cca6e7fb4e88997dfbcd3db0eb44,2d5800d2cc32464ebd88bb1e24ba3ef2,10
;Gerber Generator version 0.2
;Holesize 1 = 0.0120 inch
T01C0.0120
%
G05
G90
T01
X025681Y022997
X021011Y032847
X014478Y026825
X018527Y035976
X012580Y020652
X019167Y028587
X018003Y031522
X021112Y031600
X031388Y016674
X031599Y020400
X008214Y019840
X030762Y009196
X023037Y009118
X013217Y009546
X014070Y008693
X017460Y007705
X017950Y008576
X025197Y035987
X023664Y025370
X009665Y036528
X007053Y025708
X011262Y025151
X022450Y025126
X022622Y018521
X007053Y034584
X007053Y029669
X004668Y021516
X026088Y018521
X026088Y015376
X006633Y018055
X005855Y038650
X005753Y025157
X026811Y024883
X029584Y029298
X024581Y026737
X029001Y019864
X024579Y019492
X019591Y029632
X020492Y031100
X013127Y029477
X013127Y031455
X014759Y032063
X015707Y032407
X022093Y025451
X022093Y026169
X020878Y033909
X020778Y035088
X017095Y025222
X016047Y026271
X005123Y015597
M30
