G04 Layer: TopSilkscreenLayer*
G04 EasyEDA v6.5.40, 2024-04-23 11:15:46*
G04 c7e9cca6e7fb4e88997dfbcd3db0eb44,2d5800d2cc32464ebd88bb1e24ba3ef2,10*
G04 Gerber Generator version 0.2*
G04 Scale: 100 percent, Rotated: No, Reflected: No *
G04 Dimensions in inches *
G04 leading zeros omitted , absolute positions ,3 integer and 6 decimal *
%FSLAX36Y36*%
%MOIN*%

%ADD10C,0.0080*%
%ADD11C,0.0060*%
%ADD12C,0.0100*%
%ADD13C,0.0060*%
%ADD14C,0.0079*%
%ADD15C,0.0118*%
%ADD16C,0.0109*%

%LPD*%
D10*
X263499Y3704499D02*
G01*
X266199Y3705900D01*
X268899Y3708600D01*
X270300Y3711399D01*
X270300Y3716799D01*
X268899Y3719499D01*
X266199Y3722300D01*
X263499Y3723600D01*
X259400Y3725000D01*
X252500Y3725000D01*
X248499Y3723600D01*
X245700Y3722300D01*
X243000Y3719499D01*
X241599Y3716799D01*
X241599Y3711399D01*
X243000Y3708600D01*
X245700Y3705900D01*
X248499Y3704499D01*
X252500Y3704499D01*
X252500Y3711399D02*
G01*
X252500Y3704499D01*
X270300Y3674499D02*
G01*
X241599Y3663600D01*
X270300Y3652700D02*
G01*
X241599Y3663600D01*
X253899Y3643699D02*
G01*
X253899Y3619200D01*
X266199Y3576900D02*
G01*
X241599Y3576900D01*
X253899Y3589200D02*
G01*
X253899Y3564600D01*
X270300Y3534600D02*
G01*
X241599Y3523699D01*
X270300Y3512800D02*
G01*
X241599Y3523699D01*
X266199Y3491500D02*
G01*
X241599Y3491500D01*
X253899Y3503800D02*
G01*
X253899Y3479299D01*
X275700Y3460700D02*
G01*
X273000Y3463499D01*
X268899Y3466199D01*
X263499Y3468899D01*
X256599Y3470300D01*
X251199Y3470300D01*
X244400Y3468899D01*
X238899Y3466199D01*
X234800Y3463499D01*
X232100Y3460700D01*
X260700Y3451700D02*
G01*
X241599Y3451700D01*
X255300Y3451700D02*
G01*
X259400Y3447600D01*
X260700Y3444899D01*
X260700Y3440799D01*
X259400Y3438099D01*
X255300Y3436700D01*
X241599Y3436700D01*
X255300Y3436700D02*
G01*
X259400Y3432600D01*
X260700Y3429899D01*
X260700Y3425799D01*
X259400Y3423099D01*
X255300Y3421700D01*
X241599Y3421700D01*
X275700Y3412700D02*
G01*
X273000Y3410000D01*
X268899Y3407300D01*
X263499Y3404499D01*
X256599Y3403200D01*
X251199Y3403200D01*
X244400Y3404499D01*
X238899Y3407300D01*
X234800Y3410000D01*
X232100Y3412700D01*
X135000Y3870300D02*
G01*
X145900Y3841599D01*
X156799Y3870300D02*
G01*
X145900Y3841599D01*
X179499Y3870300D02*
G01*
X165799Y3851199D01*
X186300Y3851199D01*
X179499Y3870300D02*
G01*
X179499Y3841599D01*
D11*
X2615699Y2335200D02*
G01*
X2613599Y2339299D01*
X2609499Y2343400D01*
X2605500Y2345399D01*
X2597299Y2345399D01*
X2593199Y2343400D01*
X2589099Y2339299D01*
X2586999Y2335200D01*
X2585000Y2329000D01*
X2585000Y2318800D01*
X2586999Y2312700D01*
X2589099Y2308600D01*
X2593199Y2304499D01*
X2597299Y2302500D01*
X2605500Y2302500D01*
X2609499Y2304499D01*
X2613599Y2308600D01*
X2615699Y2312700D01*
X2653699Y2339299D02*
G01*
X2651700Y2343400D01*
X2645500Y2345399D01*
X2641499Y2345399D01*
X2635299Y2343400D01*
X2631199Y2337199D01*
X2629200Y2326999D01*
X2629200Y2316799D01*
X2631199Y2308600D01*
X2635299Y2304499D01*
X2641499Y2302500D01*
X2643500Y2302500D01*
X2649600Y2304499D01*
X2653699Y2308600D01*
X2655799Y2314699D01*
X2655799Y2316799D01*
X2653699Y2322899D01*
X2649600Y2326999D01*
X2643500Y2329000D01*
X2641499Y2329000D01*
X2635299Y2326999D01*
X2631199Y2322899D01*
X2629200Y2316799D01*
X2693800Y2345399D02*
G01*
X2673400Y2345399D01*
X2671300Y2326999D01*
X2673400Y2329000D01*
X2679499Y2331100D01*
X2685600Y2331100D01*
X2691800Y2329000D01*
X2695900Y2325000D01*
X2697899Y2318800D01*
X2697899Y2314699D01*
X2695900Y2308600D01*
X2691800Y2304499D01*
X2685600Y2302500D01*
X2679499Y2302500D01*
X2673400Y2304499D01*
X2671300Y2306500D01*
X2669300Y2310599D01*
X2660699Y1820199D02*
G01*
X2658599Y1824299D01*
X2654499Y1828400D01*
X2650500Y1830399D01*
X2642299Y1830399D01*
X2638199Y1828400D01*
X2634099Y1824299D01*
X2631999Y1820199D01*
X2630000Y1814000D01*
X2630000Y1803800D01*
X2631999Y1797699D01*
X2634099Y1793600D01*
X2638199Y1789499D01*
X2642299Y1787500D01*
X2650500Y1787500D01*
X2654499Y1789499D01*
X2658599Y1793600D01*
X2660699Y1797699D01*
X2698699Y1824299D02*
G01*
X2696700Y1828400D01*
X2690500Y1830399D01*
X2686499Y1830399D01*
X2680299Y1828400D01*
X2676199Y1822199D01*
X2674200Y1811999D01*
X2674200Y1801799D01*
X2676199Y1793600D01*
X2680299Y1789499D01*
X2686499Y1787500D01*
X2688500Y1787500D01*
X2694600Y1789499D01*
X2698699Y1793600D01*
X2700799Y1799699D01*
X2700799Y1801799D01*
X2698699Y1807899D01*
X2694600Y1811999D01*
X2688500Y1814000D01*
X2686499Y1814000D01*
X2680299Y1811999D01*
X2676199Y1807899D01*
X2674200Y1801799D01*
X2738800Y1824299D02*
G01*
X2736800Y1828400D01*
X2730600Y1830399D01*
X2726499Y1830399D01*
X2720399Y1828400D01*
X2716300Y1822199D01*
X2714300Y1811999D01*
X2714300Y1801799D01*
X2716300Y1793600D01*
X2720399Y1789499D01*
X2726499Y1787500D01*
X2728599Y1787500D01*
X2734700Y1789499D01*
X2738800Y1793600D01*
X2740900Y1799699D01*
X2740900Y1801799D01*
X2738800Y1807899D01*
X2734700Y1811999D01*
X2728599Y1814000D01*
X2726499Y1814000D01*
X2720399Y1811999D01*
X2716300Y1807899D01*
X2714300Y1801799D01*
X3064799Y2245700D02*
G01*
X3060699Y2243600D01*
X3056599Y2239499D01*
X3054600Y2235500D01*
X3054600Y2227300D01*
X3056599Y2223200D01*
X3060699Y2219099D01*
X3064799Y2216999D01*
X3071000Y2215000D01*
X3081199Y2215000D01*
X3087299Y2216999D01*
X3091400Y2219099D01*
X3095500Y2223200D01*
X3097500Y2227300D01*
X3097500Y2235500D01*
X3095500Y2239499D01*
X3091400Y2243600D01*
X3087299Y2245700D01*
X3054600Y2287800D02*
G01*
X3097500Y2267399D01*
X3054600Y2259200D02*
G01*
X3054600Y2287800D01*
X3054600Y2321799D02*
G01*
X3083199Y2301300D01*
X3083199Y2331999D01*
X3054600Y2321799D02*
G01*
X3097500Y2321799D01*
X2605699Y1915199D02*
G01*
X2603599Y1919299D01*
X2599499Y1923400D01*
X2595500Y1925399D01*
X2587299Y1925399D01*
X2583199Y1923400D01*
X2579099Y1919299D01*
X2576999Y1915199D01*
X2575000Y1909000D01*
X2575000Y1898800D01*
X2576999Y1892699D01*
X2579099Y1888600D01*
X2583199Y1884499D01*
X2587299Y1882500D01*
X2595500Y1882500D01*
X2599499Y1884499D01*
X2603599Y1888600D01*
X2605699Y1892699D01*
X2647799Y1925399D02*
G01*
X2627399Y1882500D01*
X2619200Y1925399D02*
G01*
X2647799Y1925399D01*
X2685900Y1925399D02*
G01*
X2665399Y1925399D01*
X2663400Y1906999D01*
X2665399Y1909000D01*
X2671499Y1911100D01*
X2677700Y1911100D01*
X2683800Y1909000D01*
X2687899Y1905000D01*
X2690000Y1898800D01*
X2690000Y1894699D01*
X2687899Y1888600D01*
X2683800Y1884499D01*
X2677700Y1882500D01*
X2671499Y1882500D01*
X2665399Y1884499D01*
X2663400Y1886500D01*
X2661300Y1890599D01*
X3149799Y1665700D02*
G01*
X3145699Y1663600D01*
X3141599Y1659499D01*
X3139600Y1655500D01*
X3139600Y1647300D01*
X3141599Y1643200D01*
X3145699Y1639099D01*
X3149799Y1636999D01*
X3156000Y1635000D01*
X3166199Y1635000D01*
X3172299Y1636999D01*
X3176400Y1639099D01*
X3180500Y1643200D01*
X3182500Y1647300D01*
X3182500Y1655500D01*
X3180500Y1659499D01*
X3176400Y1663600D01*
X3172299Y1665700D01*
X3139600Y1707800D02*
G01*
X3182500Y1687399D01*
X3139600Y1679200D02*
G01*
X3139600Y1707800D01*
X3145699Y1745900D02*
G01*
X3141599Y1743800D01*
X3139600Y1737699D01*
X3139600Y1733600D01*
X3141599Y1727500D01*
X3147799Y1723400D01*
X3158000Y1721300D01*
X3168199Y1721300D01*
X3176400Y1723400D01*
X3180500Y1727500D01*
X3182500Y1733600D01*
X3182500Y1735599D01*
X3180500Y1741799D01*
X3176400Y1745900D01*
X3170299Y1747899D01*
X3168199Y1747899D01*
X3162100Y1745900D01*
X3158000Y1741799D01*
X3156000Y1735599D01*
X3156000Y1733600D01*
X3158000Y1727500D01*
X3162100Y1723400D01*
X3168199Y1721300D01*
X2614799Y1485700D02*
G01*
X2610699Y1483600D01*
X2606599Y1479499D01*
X2604600Y1475500D01*
X2604600Y1467300D01*
X2606599Y1463200D01*
X2610699Y1459099D01*
X2614799Y1456999D01*
X2621000Y1455000D01*
X2631199Y1455000D01*
X2637299Y1456999D01*
X2641400Y1459099D01*
X2645500Y1463200D01*
X2647500Y1467300D01*
X2647500Y1475500D01*
X2645500Y1479499D01*
X2641400Y1483600D01*
X2637299Y1485700D01*
X2604600Y1527800D02*
G01*
X2647500Y1507399D01*
X2604600Y1499200D02*
G01*
X2604600Y1527800D01*
X2604600Y1570000D02*
G01*
X2647500Y1549499D01*
X2604600Y1541300D02*
G01*
X2604600Y1570000D01*
X3200399Y1035000D02*
G01*
X3169700Y1035000D01*
X3163599Y1033000D01*
X3159499Y1028899D01*
X3157500Y1022699D01*
X3157500Y1018600D01*
X3159499Y1012500D01*
X3163599Y1008400D01*
X3169700Y1006399D01*
X3200399Y1006399D01*
X3190200Y990799D02*
G01*
X3192200Y990799D01*
X3196300Y988800D01*
X3198400Y986700D01*
X3200399Y982600D01*
X3200399Y974499D01*
X3198400Y970399D01*
X3196300Y968299D01*
X3192200Y966300D01*
X3188100Y966300D01*
X3183999Y968299D01*
X3177899Y972399D01*
X3157500Y992899D01*
X3157500Y964200D01*
X3200399Y946599D02*
G01*
X3200399Y924099D01*
X3183999Y936399D01*
X3183999Y930300D01*
X3181999Y926199D01*
X3180000Y924099D01*
X3173800Y922100D01*
X3169700Y922100D01*
X3163599Y924099D01*
X3159499Y928200D01*
X3157500Y934400D01*
X3157500Y940500D01*
X3159499Y946599D01*
X3161499Y948699D01*
X3165600Y950700D01*
X2490000Y2395399D02*
G01*
X2490000Y2352500D01*
X2490000Y2395399D02*
G01*
X2508400Y2395399D01*
X2514499Y2393400D01*
X2516599Y2391300D01*
X2518599Y2387199D01*
X2518599Y2383099D01*
X2516599Y2379000D01*
X2514499Y2376999D01*
X2508400Y2375000D01*
X2490000Y2375000D01*
X2504300Y2375000D02*
G01*
X2518599Y2352500D01*
X2536199Y2395399D02*
G01*
X2558699Y2395399D01*
X2546499Y2379000D01*
X2552600Y2379000D01*
X2556700Y2376999D01*
X2558699Y2375000D01*
X2560799Y2368800D01*
X2560799Y2364699D01*
X2558699Y2358600D01*
X2554600Y2354499D01*
X2548500Y2352500D01*
X2542399Y2352500D01*
X2536199Y2354499D01*
X2534200Y2356500D01*
X2532100Y2360599D01*
X2574300Y2387199D02*
G01*
X2578400Y2389299D01*
X2584499Y2395399D01*
X2584499Y2352500D01*
X2740000Y2342557D02*
G01*
X2740000Y2299657D01*
X2740000Y2342557D02*
G01*
X2758400Y2342557D01*
X2764499Y2340558D01*
X2766599Y2338458D01*
X2768599Y2334358D01*
X2768599Y2330257D01*
X2766599Y2326158D01*
X2764499Y2324158D01*
X2758400Y2322157D01*
X2740000Y2322157D01*
X2754300Y2322157D02*
G01*
X2768599Y2299657D01*
X2786199Y2342557D02*
G01*
X2808699Y2342557D01*
X2796499Y2326158D01*
X2802600Y2326158D01*
X2806700Y2324158D01*
X2808699Y2322157D01*
X2810799Y2315958D01*
X2810799Y2311858D01*
X2808699Y2305758D01*
X2804600Y2301658D01*
X2798500Y2299657D01*
X2792399Y2299657D01*
X2786199Y2301658D01*
X2784200Y2303658D01*
X2782100Y2307757D01*
X2848800Y2336457D02*
G01*
X2846800Y2340558D01*
X2840600Y2342557D01*
X2836499Y2342557D01*
X2830399Y2340558D01*
X2826300Y2334358D01*
X2824300Y2324158D01*
X2824300Y2313957D01*
X2826300Y2305758D01*
X2830399Y2301658D01*
X2836499Y2299657D01*
X2838599Y2299657D01*
X2844700Y2301658D01*
X2848800Y2305758D01*
X2850900Y2311858D01*
X2850900Y2313957D01*
X2848800Y2320057D01*
X2844700Y2324158D01*
X2838599Y2326158D01*
X2836499Y2326158D01*
X2830399Y2324158D01*
X2826300Y2320057D01*
X2824300Y2313957D01*
X2885000Y2342557D02*
G01*
X2885000Y2299657D01*
X2885000Y2342557D02*
G01*
X2903400Y2342557D01*
X2909499Y2340558D01*
X2911599Y2338458D01*
X2913599Y2334358D01*
X2913599Y2330257D01*
X2911599Y2326158D01*
X2909499Y2324158D01*
X2903400Y2322157D01*
X2885000Y2322157D01*
X2899300Y2322157D02*
G01*
X2913599Y2299657D01*
X2931199Y2342557D02*
G01*
X2953699Y2342557D01*
X2941499Y2326158D01*
X2947600Y2326158D01*
X2951700Y2324158D01*
X2953699Y2322157D01*
X2955799Y2315958D01*
X2955799Y2311858D01*
X2953699Y2305758D01*
X2949600Y2301658D01*
X2943500Y2299657D01*
X2937399Y2299657D01*
X2931199Y2301658D01*
X2929200Y2303658D01*
X2927100Y2307757D01*
X2997899Y2342557D02*
G01*
X2977500Y2299657D01*
X2969300Y2342557D02*
G01*
X2997899Y2342557D01*
X2474600Y1730000D02*
G01*
X2517500Y1730000D01*
X2474600Y1730000D02*
G01*
X2474600Y1748400D01*
X2476599Y1754499D01*
X2478699Y1756599D01*
X2482799Y1758600D01*
X2486899Y1758600D01*
X2491000Y1756599D01*
X2493000Y1754499D01*
X2495000Y1748400D01*
X2495000Y1730000D01*
X2495000Y1744299D02*
G01*
X2517500Y1758600D01*
X2474600Y1776199D02*
G01*
X2474600Y1798699D01*
X2491000Y1786500D01*
X2491000Y1792600D01*
X2493000Y1796700D01*
X2495000Y1798699D01*
X2501199Y1800799D01*
X2505299Y1800799D01*
X2511400Y1798699D01*
X2515500Y1794600D01*
X2517500Y1788499D01*
X2517500Y1782399D01*
X2515500Y1776199D01*
X2513500Y1774200D01*
X2509399Y1772100D01*
X2474600Y1824499D02*
G01*
X2476599Y1818400D01*
X2480699Y1816300D01*
X2484799Y1816300D01*
X2488900Y1818400D01*
X2491000Y1822500D01*
X2493000Y1830599D01*
X2495000Y1836799D01*
X2499099Y1840900D01*
X2503199Y1842899D01*
X2509399Y1842899D01*
X2513500Y1840900D01*
X2515500Y1838800D01*
X2517500Y1832699D01*
X2517500Y1824499D01*
X2515500Y1818400D01*
X2513500Y1816300D01*
X2509399Y1814299D01*
X2503199Y1814299D01*
X2499099Y1816300D01*
X2495000Y1820399D01*
X2493000Y1826500D01*
X2491000Y1834699D01*
X2488900Y1838800D01*
X2484799Y1840900D01*
X2480699Y1840900D01*
X2476599Y1838800D01*
X2474600Y1832699D01*
X2474600Y1824499D01*
X2920000Y1837557D02*
G01*
X2920000Y1794657D01*
X2920000Y1837557D02*
G01*
X2938400Y1837557D01*
X2944499Y1835558D01*
X2946599Y1833458D01*
X2948599Y1829358D01*
X2948599Y1825257D01*
X2946599Y1821158D01*
X2944499Y1819158D01*
X2938400Y1817157D01*
X2920000Y1817157D01*
X2934300Y1817157D02*
G01*
X2948599Y1794657D01*
X2982600Y1837557D02*
G01*
X2962100Y1808957D01*
X2992799Y1808957D01*
X2982600Y1837557D02*
G01*
X2982600Y1794657D01*
X3026800Y1837557D02*
G01*
X3006300Y1808957D01*
X3036999Y1808957D01*
X3026800Y1837557D02*
G01*
X3026800Y1794657D01*
X1465703Y2870200D02*
G01*
X1463603Y2874299D01*
X1459503Y2878400D01*
X1455504Y2880399D01*
X1447304Y2880399D01*
X1443203Y2878400D01*
X1439103Y2874299D01*
X1437003Y2870200D01*
X1435003Y2864000D01*
X1435003Y2853800D01*
X1437003Y2847700D01*
X1439103Y2843600D01*
X1443203Y2839499D01*
X1447304Y2837500D01*
X1455504Y2837500D01*
X1459503Y2839499D01*
X1463603Y2843600D01*
X1465703Y2847700D01*
X1499603Y2880399D02*
G01*
X1479203Y2851799D01*
X1509903Y2851799D01*
X1499603Y2880399D02*
G01*
X1499603Y2837500D01*
X1533603Y2880399D02*
G01*
X1527503Y2878400D01*
X1525403Y2874299D01*
X1525403Y2870200D01*
X1527503Y2866100D01*
X1531504Y2864000D01*
X1539704Y2861999D01*
X1545904Y2860000D01*
X1550003Y2855900D01*
X1552003Y2851799D01*
X1552003Y2845599D01*
X1550003Y2841500D01*
X1547903Y2839499D01*
X1541804Y2837500D01*
X1533603Y2837500D01*
X1527503Y2839499D01*
X1525403Y2841500D01*
X1523404Y2845599D01*
X1523404Y2851799D01*
X1525403Y2855900D01*
X1529503Y2860000D01*
X1535604Y2861999D01*
X1543804Y2864000D01*
X1547903Y2866100D01*
X1550003Y2870200D01*
X1550003Y2874299D01*
X1547903Y2878400D01*
X1541804Y2880399D01*
X1533603Y2880399D01*
X1765703Y2840200D02*
G01*
X1763603Y2844299D01*
X1759503Y2848400D01*
X1755504Y2850399D01*
X1747304Y2850399D01*
X1743203Y2848400D01*
X1739103Y2844299D01*
X1737003Y2840200D01*
X1735003Y2834000D01*
X1735003Y2823800D01*
X1737003Y2817700D01*
X1739103Y2813600D01*
X1743203Y2809499D01*
X1747304Y2807500D01*
X1755504Y2807500D01*
X1759503Y2809499D01*
X1763603Y2813600D01*
X1765703Y2817700D01*
X1803703Y2850399D02*
G01*
X1783303Y2850399D01*
X1781203Y2831999D01*
X1783303Y2834000D01*
X1789404Y2836100D01*
X1795504Y2836100D01*
X1801703Y2834000D01*
X1805803Y2830000D01*
X1807803Y2823800D01*
X1807803Y2819699D01*
X1805803Y2813600D01*
X1801703Y2809499D01*
X1795504Y2807500D01*
X1789404Y2807500D01*
X1783303Y2809499D01*
X1781203Y2811500D01*
X1779203Y2815599D01*
X1833603Y2850399D02*
G01*
X1827503Y2848400D01*
X1823404Y2842199D01*
X1821304Y2831999D01*
X1821304Y2825900D01*
X1823404Y2815599D01*
X1827503Y2809499D01*
X1833603Y2807500D01*
X1837704Y2807500D01*
X1843804Y2809499D01*
X1847903Y2815599D01*
X1850003Y2825900D01*
X1850003Y2831999D01*
X1847903Y2842199D01*
X1843804Y2848400D01*
X1837704Y2850399D01*
X1833603Y2850399D01*
X2039600Y1710996D02*
G01*
X2082500Y1710996D01*
X2039600Y1710996D02*
G01*
X2039600Y1729396D01*
X2041599Y1735495D01*
X2043699Y1737595D01*
X2047799Y1739596D01*
X2051899Y1739596D01*
X2056000Y1737595D01*
X2058000Y1735495D01*
X2060000Y1729396D01*
X2060000Y1710996D01*
X2060000Y1725295D02*
G01*
X2082500Y1739596D01*
X2047799Y1753096D02*
G01*
X2045699Y1757195D01*
X2039600Y1763395D01*
X2082500Y1763395D01*
X2039600Y1789095D02*
G01*
X2041599Y1782995D01*
X2047799Y1778895D01*
X2058000Y1776896D01*
X2064099Y1776896D01*
X2074399Y1778895D01*
X2080500Y1782995D01*
X2082500Y1789095D01*
X2082500Y1793195D01*
X2080500Y1799396D01*
X2074399Y1803496D01*
X2064099Y1805495D01*
X2058000Y1805495D01*
X2047799Y1803496D01*
X2041599Y1799396D01*
X2039600Y1793195D01*
X2039600Y1789095D01*
X1424600Y1715997D02*
G01*
X1467500Y1715997D01*
X1424600Y1715997D02*
G01*
X1424600Y1734396D01*
X1426599Y1740497D01*
X1428699Y1742597D01*
X1432799Y1744596D01*
X1436899Y1744596D01*
X1441000Y1742597D01*
X1443000Y1740497D01*
X1445000Y1734396D01*
X1445000Y1715997D01*
X1445000Y1730297D02*
G01*
X1467500Y1744596D01*
X1432799Y1758096D02*
G01*
X1430699Y1762197D01*
X1424600Y1768397D01*
X1467500Y1768397D01*
X1432799Y1781896D02*
G01*
X1430699Y1785997D01*
X1424600Y1792096D01*
X1467500Y1792096D01*
X625403Y2064998D02*
G01*
X582503Y2064998D01*
X625403Y2064998D02*
G01*
X625403Y2046599D01*
X623402Y2040498D01*
X621302Y2038398D01*
X617202Y2036399D01*
X613103Y2036399D01*
X609002Y2038398D01*
X607002Y2040498D01*
X605003Y2046599D01*
X605003Y2064998D01*
X605003Y2050698D02*
G01*
X582503Y2036399D01*
X617202Y2022899D02*
G01*
X619302Y2018798D01*
X625403Y2012599D01*
X582503Y2012599D01*
X625403Y1978699D02*
G01*
X596802Y1999099D01*
X596802Y1968499D01*
X625403Y1978699D02*
G01*
X582503Y1978699D01*
X1854600Y2424198D02*
G01*
X1897500Y2424198D01*
X1854600Y2424198D02*
G01*
X1854600Y2442597D01*
X1856599Y2448697D01*
X1858699Y2450798D01*
X1862799Y2452797D01*
X1866899Y2452797D01*
X1871000Y2450798D01*
X1873000Y2448697D01*
X1875000Y2442597D01*
X1875000Y2424198D01*
X1875000Y2438497D02*
G01*
X1897500Y2452797D01*
X1864799Y2468398D02*
G01*
X1862799Y2468398D01*
X1858699Y2470398D01*
X1856599Y2472498D01*
X1854600Y2476597D01*
X1854600Y2484697D01*
X1856599Y2488798D01*
X1858699Y2490898D01*
X1862799Y2492898D01*
X1866899Y2492898D01*
X1871000Y2490898D01*
X1877100Y2486797D01*
X1897500Y2466298D01*
X1897500Y2494998D01*
X1854600Y2532997D02*
G01*
X1854600Y2512597D01*
X1873000Y2510497D01*
X1871000Y2512597D01*
X1868900Y2518697D01*
X1868900Y2524798D01*
X1871000Y2530997D01*
X1875000Y2535097D01*
X1881199Y2537098D01*
X1885299Y2537098D01*
X1891400Y2535097D01*
X1895500Y2530997D01*
X1897500Y2524798D01*
X1897500Y2518697D01*
X1895500Y2512597D01*
X1893500Y2510497D01*
X1889399Y2508497D01*
X2349600Y2434198D02*
G01*
X2392500Y2434198D01*
X2349600Y2434198D02*
G01*
X2349600Y2452597D01*
X2351599Y2458697D01*
X2353699Y2460798D01*
X2357799Y2462797D01*
X2361899Y2462797D01*
X2366000Y2460798D01*
X2368000Y2458697D01*
X2370000Y2452597D01*
X2370000Y2434198D01*
X2370000Y2448497D02*
G01*
X2392500Y2462797D01*
X2359799Y2478398D02*
G01*
X2357799Y2478398D01*
X2353699Y2480398D01*
X2351599Y2482498D01*
X2349600Y2486597D01*
X2349600Y2494697D01*
X2351599Y2498798D01*
X2353699Y2500898D01*
X2357799Y2502898D01*
X2361899Y2502898D01*
X2366000Y2500898D01*
X2372100Y2496797D01*
X2392500Y2476298D01*
X2392500Y2504998D01*
X2355699Y2542997D02*
G01*
X2351599Y2540997D01*
X2349600Y2534798D01*
X2349600Y2530698D01*
X2351599Y2524598D01*
X2357799Y2520497D01*
X2368000Y2518497D01*
X2378199Y2518497D01*
X2386400Y2520497D01*
X2390500Y2524598D01*
X2392500Y2530698D01*
X2392500Y2532797D01*
X2390500Y2538897D01*
X2386400Y2542997D01*
X2380299Y2545097D01*
X2378199Y2545097D01*
X2372100Y2542997D01*
X2368000Y2538897D01*
X2366000Y2532797D01*
X2366000Y2530698D01*
X2368000Y2524598D01*
X2372100Y2520497D01*
X2378199Y2518497D01*
X654800Y3405704D02*
G01*
X650700Y3403604D01*
X646599Y3399504D01*
X644600Y3395504D01*
X644600Y3387303D01*
X646599Y3383204D01*
X650700Y3379104D01*
X654800Y3377004D01*
X660999Y3375003D01*
X671199Y3375003D01*
X677300Y3377004D01*
X681399Y3379104D01*
X685500Y3383204D01*
X687500Y3387303D01*
X687500Y3395504D01*
X685500Y3399504D01*
X681399Y3403604D01*
X677300Y3405704D01*
X652800Y3419203D02*
G01*
X650700Y3423303D01*
X644600Y3429403D01*
X687500Y3429403D01*
X914799Y3725704D02*
G01*
X910699Y3723604D01*
X906599Y3719504D01*
X904600Y3715504D01*
X904600Y3707303D01*
X906599Y3703204D01*
X910699Y3699104D01*
X914799Y3697004D01*
X921000Y3695003D01*
X931199Y3695003D01*
X937299Y3697004D01*
X941400Y3699104D01*
X945500Y3703204D01*
X947500Y3707303D01*
X947500Y3715504D01*
X945500Y3719504D01*
X941400Y3723604D01*
X937299Y3725704D01*
X914799Y3741203D02*
G01*
X912799Y3741203D01*
X908699Y3743303D01*
X906599Y3745304D01*
X904600Y3749403D01*
X904600Y3757604D01*
X906599Y3761703D01*
X908699Y3763703D01*
X912799Y3765803D01*
X916899Y3765803D01*
X921000Y3763703D01*
X927100Y3759603D01*
X947500Y3739203D01*
X947500Y3767804D01*
X2010092Y3720200D02*
G01*
X2007992Y3724299D01*
X2003892Y3728400D01*
X1999893Y3730399D01*
X1991692Y3730399D01*
X1987592Y3728400D01*
X1983492Y3724299D01*
X1981392Y3720200D01*
X1979393Y3714000D01*
X1979393Y3703800D01*
X1981392Y3697700D01*
X1983492Y3693600D01*
X1987592Y3689499D01*
X1991692Y3687500D01*
X1999893Y3687500D01*
X2003892Y3689499D01*
X2007992Y3693600D01*
X2010092Y3697700D01*
X2027692Y3730399D02*
G01*
X2050192Y3730399D01*
X2037893Y3714000D01*
X2043993Y3714000D01*
X2048092Y3711999D01*
X2050192Y3710000D01*
X2052192Y3703800D01*
X2052192Y3699699D01*
X2050192Y3693600D01*
X2046093Y3689499D01*
X2039893Y3687500D01*
X2033792Y3687500D01*
X2027692Y3689499D01*
X2025592Y3691500D01*
X2023593Y3695599D01*
X1912632Y3370704D02*
G01*
X1908531Y3368604D01*
X1904431Y3364504D01*
X1902431Y3360504D01*
X1902431Y3352303D01*
X1904431Y3348204D01*
X1908531Y3344104D01*
X1912632Y3342004D01*
X1918832Y3340003D01*
X1929031Y3340003D01*
X1935132Y3342004D01*
X1939232Y3344104D01*
X1943332Y3348204D01*
X1945331Y3352303D01*
X1945331Y3360504D01*
X1943332Y3364504D01*
X1939232Y3368604D01*
X1935132Y3370704D01*
X1902431Y3408703D02*
G01*
X1902431Y3388303D01*
X1920832Y3386203D01*
X1918832Y3388303D01*
X1916732Y3394403D01*
X1916732Y3400504D01*
X1918832Y3406703D01*
X1922831Y3410803D01*
X1929031Y3412804D01*
X1933131Y3412804D01*
X1939232Y3410803D01*
X1943332Y3406703D01*
X1945331Y3400504D01*
X1945331Y3394403D01*
X1943332Y3388303D01*
X1941332Y3386203D01*
X1937232Y3384203D01*
X1625015Y1895088D02*
G01*
X1620915Y1892988D01*
X1616814Y1888888D01*
X1614814Y1884888D01*
X1614814Y1876689D01*
X1616814Y1872588D01*
X1620915Y1868488D01*
X1625015Y1866388D01*
X1631215Y1864389D01*
X1641414Y1864389D01*
X1647515Y1866388D01*
X1651615Y1868488D01*
X1655715Y1872588D01*
X1657714Y1876689D01*
X1657714Y1884888D01*
X1655715Y1888888D01*
X1651615Y1892988D01*
X1647515Y1895088D01*
X1614814Y1937188D02*
G01*
X1657714Y1916788D01*
X1614814Y1908589D02*
G01*
X1614814Y1937188D01*
X1764799Y1885698D02*
G01*
X1760699Y1883598D01*
X1756599Y1879499D01*
X1754600Y1875498D01*
X1754600Y1867298D01*
X1756599Y1863198D01*
X1760699Y1859099D01*
X1764799Y1856999D01*
X1771000Y1854998D01*
X1781199Y1854998D01*
X1787299Y1856999D01*
X1791400Y1859099D01*
X1795500Y1863198D01*
X1797500Y1867298D01*
X1797500Y1875498D01*
X1795500Y1879499D01*
X1791400Y1883598D01*
X1787299Y1885698D01*
X1754600Y1909398D02*
G01*
X1756599Y1903299D01*
X1760699Y1901199D01*
X1764799Y1901199D01*
X1768900Y1903299D01*
X1771000Y1907399D01*
X1773000Y1915498D01*
X1775000Y1921698D01*
X1779099Y1925799D01*
X1783199Y1927799D01*
X1789399Y1927799D01*
X1793500Y1925799D01*
X1795500Y1923699D01*
X1797500Y1917599D01*
X1797500Y1909398D01*
X1795500Y1903299D01*
X1793500Y1901199D01*
X1789399Y1899198D01*
X1783199Y1899198D01*
X1779099Y1901199D01*
X1775000Y1905299D01*
X1773000Y1911498D01*
X1771000Y1919598D01*
X1768900Y1923699D01*
X1764799Y1925799D01*
X1760699Y1925799D01*
X1756599Y1923699D01*
X1754600Y1917599D01*
X1754600Y1909398D01*
X1131962Y1889484D02*
G01*
X1127862Y1887384D01*
X1123762Y1883283D01*
X1121763Y1879283D01*
X1121763Y1871084D01*
X1123762Y1866984D01*
X1127862Y1862883D01*
X1131962Y1860783D01*
X1138163Y1858784D01*
X1148362Y1858784D01*
X1154462Y1860783D01*
X1158563Y1862883D01*
X1162663Y1866984D01*
X1164663Y1871084D01*
X1164663Y1879283D01*
X1162663Y1883283D01*
X1158563Y1887384D01*
X1154462Y1889484D01*
X1136063Y1929583D02*
G01*
X1142163Y1927483D01*
X1146262Y1923384D01*
X1148362Y1917283D01*
X1148362Y1915284D01*
X1146262Y1909083D01*
X1142163Y1904983D01*
X1136063Y1902984D01*
X1134062Y1902984D01*
X1127862Y1904983D01*
X1123762Y1909083D01*
X1121763Y1915284D01*
X1121763Y1917283D01*
X1123762Y1923384D01*
X1127862Y1927483D01*
X1136063Y1929583D01*
X1146262Y1929583D01*
X1156562Y1927483D01*
X1162663Y1923384D01*
X1164663Y1917283D01*
X1164663Y1913184D01*
X1162663Y1907083D01*
X1158563Y1904983D01*
X986966Y1879484D02*
G01*
X982866Y1877384D01*
X978765Y1873283D01*
X976765Y1869283D01*
X976765Y1861084D01*
X978765Y1856984D01*
X982866Y1852883D01*
X986966Y1850783D01*
X993166Y1848784D01*
X1003365Y1848784D01*
X1009466Y1850783D01*
X1013566Y1852883D01*
X1017665Y1856984D01*
X1019665Y1861084D01*
X1019665Y1869283D01*
X1017665Y1873283D01*
X1013566Y1877384D01*
X1009466Y1879484D01*
X984966Y1892984D02*
G01*
X982866Y1897083D01*
X976765Y1903184D01*
X1019665Y1903184D01*
X976765Y1928984D02*
G01*
X978765Y1922784D01*
X984966Y1918784D01*
X995165Y1916684D01*
X1001265Y1916684D01*
X1011566Y1918784D01*
X1017665Y1922784D01*
X1019665Y1928984D01*
X1019665Y1933083D01*
X1017665Y1939184D01*
X1011566Y1943283D01*
X1001265Y1945284D01*
X995165Y1945284D01*
X984966Y1943283D01*
X978765Y1939184D01*
X976765Y1933083D01*
X976765Y1928984D01*
X337636Y1916314D02*
G01*
X333537Y1914214D01*
X329436Y1910113D01*
X327436Y1906113D01*
X327436Y1897914D01*
X329436Y1893814D01*
X333537Y1889713D01*
X337636Y1887613D01*
X343836Y1885614D01*
X354036Y1885614D01*
X360136Y1887613D01*
X364236Y1889713D01*
X368337Y1893814D01*
X370336Y1897914D01*
X370336Y1906113D01*
X368337Y1910113D01*
X364236Y1914214D01*
X360136Y1916314D01*
X335637Y1929814D02*
G01*
X333537Y1933913D01*
X327436Y1940014D01*
X370336Y1940014D01*
X335637Y1953514D02*
G01*
X333537Y1957613D01*
X327436Y1963714D01*
X370336Y1963714D01*
X895204Y2264295D02*
G01*
X899305Y2266395D01*
X903405Y2270495D01*
X905405Y2274495D01*
X905405Y2282696D01*
X903405Y2286795D01*
X899305Y2290895D01*
X895204Y2292995D01*
X889004Y2294996D01*
X878805Y2294996D01*
X872704Y2292995D01*
X868604Y2290895D01*
X864504Y2286795D01*
X862505Y2282696D01*
X862505Y2274495D01*
X864504Y2270495D01*
X868604Y2266395D01*
X872704Y2264295D01*
X897205Y2250796D02*
G01*
X899305Y2246696D01*
X905405Y2240596D01*
X862505Y2240596D01*
X895204Y2224996D02*
G01*
X897205Y2224996D01*
X901305Y2222995D01*
X903405Y2220996D01*
X905405Y2216896D01*
X905405Y2208696D01*
X903405Y2204596D01*
X901305Y2202496D01*
X897205Y2200495D01*
X893104Y2200495D01*
X889004Y2202496D01*
X882905Y2206595D01*
X862505Y2227096D01*
X862505Y2198496D01*
X1469799Y2450704D02*
G01*
X1465699Y2448604D01*
X1461599Y2444504D01*
X1459600Y2440504D01*
X1459600Y2432303D01*
X1461599Y2428204D01*
X1465699Y2424104D01*
X1469799Y2422004D01*
X1476000Y2420003D01*
X1486199Y2420003D01*
X1492299Y2422004D01*
X1496400Y2424104D01*
X1500500Y2428204D01*
X1502500Y2432303D01*
X1502500Y2440504D01*
X1500500Y2444504D01*
X1496400Y2448604D01*
X1492299Y2450704D01*
X1469799Y2466203D02*
G01*
X1467799Y2466203D01*
X1463699Y2468303D01*
X1461599Y2470304D01*
X1459600Y2474403D01*
X1459600Y2482604D01*
X1461599Y2486703D01*
X1463699Y2488703D01*
X1467799Y2490803D01*
X1471899Y2490803D01*
X1476000Y2488703D01*
X1482100Y2484603D01*
X1502500Y2464203D01*
X1502500Y2492804D01*
X1469799Y2508404D02*
G01*
X1467799Y2508404D01*
X1463699Y2510403D01*
X1461599Y2512503D01*
X1459600Y2516504D01*
X1459600Y2524704D01*
X1461599Y2528804D01*
X1463699Y2530904D01*
X1467799Y2532903D01*
X1471899Y2532903D01*
X1476000Y2530904D01*
X1482100Y2526804D01*
X1502500Y2506304D01*
X1502500Y2535003D01*
X1549799Y2450704D02*
G01*
X1545699Y2448604D01*
X1541599Y2444504D01*
X1539600Y2440504D01*
X1539600Y2432303D01*
X1541599Y2428204D01*
X1545699Y2424104D01*
X1549799Y2422004D01*
X1556000Y2420003D01*
X1566199Y2420003D01*
X1572299Y2422004D01*
X1576400Y2424104D01*
X1580500Y2428204D01*
X1582500Y2432303D01*
X1582500Y2440504D01*
X1580500Y2444504D01*
X1576400Y2448604D01*
X1572299Y2450704D01*
X1549799Y2466203D02*
G01*
X1547799Y2466203D01*
X1543699Y2468303D01*
X1541599Y2470304D01*
X1539600Y2474403D01*
X1539600Y2482604D01*
X1541599Y2486703D01*
X1543699Y2488703D01*
X1547799Y2490803D01*
X1551899Y2490803D01*
X1556000Y2488703D01*
X1562100Y2484603D01*
X1582500Y2464203D01*
X1582500Y2492804D01*
X1539600Y2510403D02*
G01*
X1539600Y2532903D01*
X1556000Y2520603D01*
X1556000Y2526804D01*
X1558000Y2530904D01*
X1560000Y2532903D01*
X1566199Y2535003D01*
X1570299Y2535003D01*
X1576400Y2532903D01*
X1580500Y2528804D01*
X1582500Y2522703D01*
X1582500Y2516504D01*
X1580500Y2510403D01*
X1578500Y2508404D01*
X1574399Y2506304D01*
X2034799Y2480704D02*
G01*
X2030699Y2478604D01*
X2026599Y2474504D01*
X2024600Y2470504D01*
X2024600Y2462303D01*
X2026599Y2458204D01*
X2030699Y2454104D01*
X2034799Y2452004D01*
X2041000Y2450003D01*
X2051199Y2450003D01*
X2057299Y2452004D01*
X2061400Y2454104D01*
X2065500Y2458204D01*
X2067500Y2462303D01*
X2067500Y2470504D01*
X2065500Y2474504D01*
X2061400Y2478604D01*
X2057299Y2480704D01*
X2034799Y2496203D02*
G01*
X2032799Y2496203D01*
X2028699Y2498303D01*
X2026599Y2500304D01*
X2024600Y2504403D01*
X2024600Y2512604D01*
X2026599Y2516703D01*
X2028699Y2518703D01*
X2032799Y2520803D01*
X2036899Y2520803D01*
X2041000Y2518703D01*
X2047100Y2514603D01*
X2067500Y2494203D01*
X2067500Y2522804D01*
X2024600Y2556804D02*
G01*
X2053199Y2536304D01*
X2053199Y2567004D01*
X2024600Y2556804D02*
G01*
X2067500Y2556804D01*
X1975200Y2564295D02*
G01*
X1979300Y2566395D01*
X1983400Y2570495D01*
X1985399Y2574495D01*
X1985399Y2582696D01*
X1983400Y2586795D01*
X1979300Y2590895D01*
X1975200Y2592995D01*
X1968999Y2594996D01*
X1958800Y2594996D01*
X1952700Y2592995D01*
X1948599Y2590895D01*
X1944499Y2586795D01*
X1942500Y2582696D01*
X1942500Y2574495D01*
X1944499Y2570495D01*
X1948599Y2566395D01*
X1952700Y2564295D01*
X1975200Y2548796D02*
G01*
X1977200Y2548796D01*
X1981300Y2546696D01*
X1983400Y2544695D01*
X1985399Y2540596D01*
X1985399Y2532395D01*
X1983400Y2528296D01*
X1981300Y2526296D01*
X1977200Y2524196D01*
X1973100Y2524196D01*
X1968999Y2526296D01*
X1962899Y2530396D01*
X1942500Y2550796D01*
X1942500Y2522195D01*
X1985399Y2484095D02*
G01*
X1985399Y2504596D01*
X1966999Y2506595D01*
X1968999Y2504596D01*
X1971099Y2498496D01*
X1971099Y2492296D01*
X1968999Y2486196D01*
X1965000Y2482096D01*
X1958800Y2479996D01*
X1954700Y2479996D01*
X1948599Y2482096D01*
X1944499Y2486196D01*
X1942500Y2492296D01*
X1942500Y2498496D01*
X1944499Y2504596D01*
X1946499Y2506595D01*
X1950600Y2508696D01*
X344800Y2300511D02*
G01*
X340700Y2298411D01*
X336599Y2294310D01*
X334600Y2290311D01*
X334600Y2282111D01*
X336599Y2278011D01*
X340700Y2273910D01*
X344800Y2271810D01*
X350999Y2269810D01*
X361199Y2269810D01*
X367300Y2271810D01*
X371399Y2273910D01*
X375500Y2278011D01*
X377500Y2282111D01*
X377500Y2290311D01*
X375500Y2294310D01*
X371399Y2298411D01*
X367300Y2300511D01*
X344800Y2316010D02*
G01*
X342800Y2316010D01*
X338699Y2318110D01*
X336599Y2320111D01*
X334600Y2324211D01*
X334600Y2332411D01*
X336599Y2336511D01*
X338699Y2338510D01*
X342800Y2340610D01*
X346900Y2340610D01*
X350999Y2338510D01*
X357100Y2334411D01*
X377500Y2314011D01*
X377500Y2342611D01*
X340700Y2380711D02*
G01*
X336599Y2378611D01*
X334600Y2372510D01*
X334600Y2368411D01*
X336599Y2362310D01*
X342800Y2358211D01*
X353000Y2356111D01*
X363200Y2356111D01*
X371399Y2358211D01*
X375500Y2362310D01*
X377500Y2368411D01*
X377500Y2370410D01*
X375500Y2376610D01*
X371399Y2380711D01*
X365300Y2382710D01*
X363200Y2382710D01*
X357100Y2380711D01*
X353000Y2376610D01*
X350999Y2370410D01*
X350999Y2368411D01*
X353000Y2362310D01*
X357100Y2358211D01*
X363200Y2356111D01*
X465704Y2805200D02*
G01*
X463604Y2809299D01*
X459504Y2813400D01*
X455504Y2815399D01*
X447303Y2815399D01*
X443204Y2813400D01*
X439104Y2809299D01*
X437004Y2805200D01*
X435003Y2799000D01*
X435003Y2788800D01*
X437004Y2782700D01*
X439104Y2778600D01*
X443204Y2774499D01*
X447303Y2772500D01*
X455504Y2772500D01*
X459504Y2774499D01*
X463604Y2778600D01*
X465704Y2782700D01*
X481203Y2805200D02*
G01*
X481203Y2807199D01*
X483303Y2811300D01*
X485304Y2813400D01*
X489403Y2815399D01*
X497604Y2815399D01*
X501703Y2813400D01*
X503703Y2811300D01*
X505803Y2807199D01*
X505803Y2803099D01*
X503703Y2799000D01*
X499603Y2792899D01*
X479203Y2772500D01*
X507804Y2772500D01*
X550003Y2815399D02*
G01*
X529504Y2772500D01*
X521304Y2815399D02*
G01*
X550003Y2815399D01*
X934799Y2475704D02*
G01*
X930699Y2473604D01*
X926599Y2469504D01*
X924600Y2465504D01*
X924600Y2457303D01*
X926599Y2453204D01*
X930699Y2449104D01*
X934799Y2447004D01*
X941000Y2445003D01*
X951199Y2445003D01*
X957299Y2447004D01*
X961400Y2449104D01*
X965500Y2453204D01*
X967500Y2457303D01*
X967500Y2465504D01*
X965500Y2469504D01*
X961400Y2473604D01*
X957299Y2475704D01*
X934799Y2491203D02*
G01*
X932799Y2491203D01*
X928699Y2493303D01*
X926599Y2495304D01*
X924600Y2499403D01*
X924600Y2507604D01*
X926599Y2511703D01*
X928699Y2513703D01*
X932799Y2515803D01*
X936899Y2515803D01*
X941000Y2513703D01*
X947100Y2509603D01*
X967500Y2489203D01*
X967500Y2517804D01*
X924600Y2541504D02*
G01*
X926599Y2535403D01*
X930699Y2533404D01*
X934799Y2533404D01*
X938900Y2535403D01*
X941000Y2539504D01*
X943000Y2547703D01*
X945000Y2553804D01*
X949099Y2557903D01*
X953199Y2560003D01*
X959399Y2560003D01*
X963500Y2557903D01*
X965500Y2555904D01*
X967500Y2549704D01*
X967500Y2541504D01*
X965500Y2535403D01*
X963500Y2533404D01*
X959399Y2531304D01*
X953199Y2531304D01*
X949099Y2533404D01*
X945000Y2537503D01*
X943000Y2543604D01*
X941000Y2551804D01*
X938900Y2555904D01*
X934799Y2557903D01*
X930699Y2557903D01*
X926599Y2555904D01*
X924600Y2549704D01*
X924600Y2541504D01*
X1084799Y2610704D02*
G01*
X1080699Y2608604D01*
X1076599Y2604504D01*
X1074600Y2600504D01*
X1074600Y2592303D01*
X1076599Y2588204D01*
X1080699Y2584104D01*
X1084799Y2582004D01*
X1091000Y2580003D01*
X1101199Y2580003D01*
X1107299Y2582004D01*
X1111400Y2584104D01*
X1115500Y2588204D01*
X1117500Y2592303D01*
X1117500Y2600504D01*
X1115500Y2604504D01*
X1111400Y2608604D01*
X1107299Y2610704D01*
X1084799Y2626203D02*
G01*
X1082799Y2626203D01*
X1078699Y2628303D01*
X1076599Y2630304D01*
X1074600Y2634403D01*
X1074600Y2642604D01*
X1076599Y2646703D01*
X1078699Y2648703D01*
X1082799Y2650803D01*
X1086899Y2650803D01*
X1091000Y2648703D01*
X1097100Y2644603D01*
X1117500Y2624203D01*
X1117500Y2652804D01*
X1088900Y2692903D02*
G01*
X1095000Y2690904D01*
X1099099Y2686804D01*
X1101199Y2680603D01*
X1101199Y2678604D01*
X1099099Y2672503D01*
X1095000Y2668404D01*
X1088900Y2666304D01*
X1086899Y2666304D01*
X1080699Y2668404D01*
X1076599Y2672503D01*
X1074600Y2678604D01*
X1074600Y2680603D01*
X1076599Y2686804D01*
X1080699Y2690904D01*
X1088900Y2692903D01*
X1099099Y2692903D01*
X1109399Y2690904D01*
X1115500Y2686804D01*
X1117500Y2680603D01*
X1117500Y2676504D01*
X1115500Y2670403D01*
X1111400Y2668404D01*
X2460093Y3720412D02*
G01*
X2457993Y3724511D01*
X2453894Y3728611D01*
X2449894Y3730612D01*
X2441693Y3730612D01*
X2437593Y3728611D01*
X2433494Y3724511D01*
X2431394Y3720412D01*
X2429394Y3714212D01*
X2429394Y3704011D01*
X2431394Y3697912D01*
X2433494Y3693811D01*
X2437593Y3689711D01*
X2441693Y3687712D01*
X2449894Y3687712D01*
X2453894Y3689711D01*
X2457993Y3693811D01*
X2460093Y3697912D01*
X2477694Y3730612D02*
G01*
X2500194Y3730612D01*
X2487893Y3714212D01*
X2493994Y3714212D01*
X2498094Y3712211D01*
X2500194Y3710212D01*
X2502193Y3704011D01*
X2502193Y3699911D01*
X2500194Y3693811D01*
X2496094Y3689711D01*
X2489894Y3687712D01*
X2483793Y3687712D01*
X2477694Y3689711D01*
X2475594Y3691712D01*
X2473594Y3695812D01*
X2517794Y3720412D02*
G01*
X2517794Y3722411D01*
X2519794Y3726511D01*
X2521894Y3728611D01*
X2525893Y3730612D01*
X2534093Y3730612D01*
X2538194Y3728611D01*
X2540294Y3726511D01*
X2542294Y3722411D01*
X2542294Y3718312D01*
X2540294Y3714212D01*
X2536193Y3708112D01*
X2515694Y3687712D01*
X2544394Y3687712D01*
X2199799Y3345700D02*
G01*
X2195699Y3343600D01*
X2191599Y3339499D01*
X2189600Y3335500D01*
X2189600Y3327300D01*
X2191599Y3323200D01*
X2195699Y3319099D01*
X2199799Y3316999D01*
X2206000Y3315000D01*
X2216199Y3315000D01*
X2222299Y3316999D01*
X2226400Y3319099D01*
X2230500Y3323200D01*
X2232500Y3327300D01*
X2232500Y3335500D01*
X2230500Y3339499D01*
X2226400Y3343600D01*
X2222299Y3345700D01*
X2189600Y3363299D02*
G01*
X2189600Y3385799D01*
X2206000Y3373499D01*
X2206000Y3379600D01*
X2208000Y3383699D01*
X2210000Y3385799D01*
X2216199Y3387800D01*
X2220299Y3387800D01*
X2226400Y3385799D01*
X2230500Y3381700D01*
X2232500Y3375500D01*
X2232500Y3369400D01*
X2230500Y3363299D01*
X2228500Y3361199D01*
X2224399Y3359200D01*
X2189600Y3405399D02*
G01*
X2189600Y3427899D01*
X2206000Y3415599D01*
X2206000Y3421799D01*
X2208000Y3425900D01*
X2210000Y3427899D01*
X2216199Y3430000D01*
X2220299Y3430000D01*
X2226400Y3427899D01*
X2230500Y3423800D01*
X2232500Y3417700D01*
X2232500Y3411500D01*
X2230500Y3405399D01*
X2228500Y3403400D01*
X2224399Y3401300D01*
X3005703Y3740201D02*
G01*
X3003603Y3744301D01*
X2999503Y3748402D01*
X2995504Y3750401D01*
X2987304Y3750401D01*
X2983203Y3748402D01*
X2979103Y3744301D01*
X2977003Y3740201D01*
X2975003Y3734002D01*
X2975003Y3723802D01*
X2977003Y3717701D01*
X2979103Y3713602D01*
X2983203Y3709502D01*
X2987304Y3707501D01*
X2995504Y3707501D01*
X2999503Y3709502D01*
X3003603Y3713602D01*
X3005703Y3717701D01*
X3023303Y3750401D02*
G01*
X3045803Y3750401D01*
X3033504Y3734002D01*
X3039603Y3734002D01*
X3043703Y3732002D01*
X3045803Y3730001D01*
X3047803Y3723802D01*
X3047803Y3719702D01*
X3045803Y3713602D01*
X3041703Y3709502D01*
X3035504Y3707501D01*
X3029404Y3707501D01*
X3023303Y3709502D01*
X3021203Y3711502D01*
X3019203Y3715601D01*
X3081804Y3750401D02*
G01*
X3061304Y3721801D01*
X3092003Y3721801D01*
X3081804Y3750401D02*
G01*
X3081804Y3707501D01*
X2769798Y3340704D02*
G01*
X2765698Y3338604D01*
X2761598Y3334504D01*
X2759597Y3330504D01*
X2759597Y3322303D01*
X2761598Y3318204D01*
X2765698Y3314104D01*
X2769798Y3312004D01*
X2775997Y3310003D01*
X2786198Y3310003D01*
X2792298Y3312004D01*
X2796397Y3314104D01*
X2800497Y3318204D01*
X2802497Y3322303D01*
X2802497Y3330504D01*
X2800497Y3334504D01*
X2796397Y3338604D01*
X2792298Y3340704D01*
X2759597Y3358303D02*
G01*
X2759597Y3380803D01*
X2775997Y3368503D01*
X2775997Y3374603D01*
X2777997Y3378703D01*
X2779997Y3380803D01*
X2786198Y3382804D01*
X2790298Y3382804D01*
X2796397Y3380803D01*
X2800497Y3376703D01*
X2802497Y3370504D01*
X2802497Y3364403D01*
X2800497Y3358303D01*
X2798497Y3356203D01*
X2794398Y3354203D01*
X2759597Y3420904D02*
G01*
X2759597Y3400403D01*
X2777997Y3398404D01*
X2775997Y3400403D01*
X2773897Y3406504D01*
X2773897Y3412703D01*
X2775997Y3418804D01*
X2779997Y3422903D01*
X2786198Y3425003D01*
X2790298Y3425003D01*
X2796397Y3422903D01*
X2800497Y3418804D01*
X2802497Y3412703D01*
X2802497Y3406504D01*
X2800497Y3400403D01*
X2798497Y3398404D01*
X2794398Y3396304D01*
X934799Y2880704D02*
G01*
X930699Y2878604D01*
X926599Y2874504D01*
X924600Y2870504D01*
X924600Y2862303D01*
X926599Y2858204D01*
X930699Y2854104D01*
X934799Y2852004D01*
X941000Y2850003D01*
X951199Y2850003D01*
X957299Y2852004D01*
X961400Y2854104D01*
X965500Y2858204D01*
X967500Y2862303D01*
X967500Y2870504D01*
X965500Y2874504D01*
X961400Y2878604D01*
X957299Y2880704D01*
X924600Y2914603D02*
G01*
X953199Y2894203D01*
X953199Y2924904D01*
X924600Y2914603D02*
G01*
X967500Y2914603D01*
X930699Y2962903D02*
G01*
X926599Y2960904D01*
X924600Y2954704D01*
X924600Y2950603D01*
X926599Y2944504D01*
X932799Y2940403D01*
X943000Y2938404D01*
X953199Y2938404D01*
X961400Y2940403D01*
X965500Y2944504D01*
X967500Y2950603D01*
X967500Y2952703D01*
X965500Y2958804D01*
X961400Y2962903D01*
X955299Y2965003D01*
X953199Y2965003D01*
X947100Y2962903D01*
X943000Y2958804D01*
X941000Y2952703D01*
X941000Y2950603D01*
X943000Y2944504D01*
X947100Y2940403D01*
X953199Y2938404D01*
X715199Y2534295D02*
G01*
X719299Y2536395D01*
X723400Y2540495D01*
X725399Y2544495D01*
X725399Y2552696D01*
X723400Y2556795D01*
X719299Y2560895D01*
X715199Y2562995D01*
X709000Y2564996D01*
X698800Y2564996D01*
X692699Y2562995D01*
X688600Y2560895D01*
X684499Y2556795D01*
X682500Y2552696D01*
X682500Y2544495D01*
X684499Y2540495D01*
X688600Y2536395D01*
X692699Y2534295D01*
X725399Y2500396D02*
G01*
X696799Y2520796D01*
X696799Y2490095D01*
X725399Y2500396D02*
G01*
X682500Y2500396D01*
X725399Y2447995D02*
G01*
X682500Y2468496D01*
X725399Y2476595D02*
G01*
X725399Y2447995D01*
X1239799Y2450704D02*
G01*
X1235699Y2448604D01*
X1231599Y2444504D01*
X1229600Y2440504D01*
X1229600Y2432303D01*
X1231599Y2428204D01*
X1235699Y2424104D01*
X1239799Y2422004D01*
X1246000Y2420003D01*
X1256199Y2420003D01*
X1262299Y2422004D01*
X1266400Y2424104D01*
X1270500Y2428204D01*
X1272500Y2432303D01*
X1272500Y2440504D01*
X1270500Y2444504D01*
X1266400Y2448604D01*
X1262299Y2450704D01*
X1229600Y2484603D02*
G01*
X1258199Y2464203D01*
X1258199Y2494904D01*
X1229600Y2484603D02*
G01*
X1272500Y2484603D01*
X1243900Y2535003D02*
G01*
X1250000Y2532903D01*
X1254099Y2528804D01*
X1256199Y2522703D01*
X1256199Y2520603D01*
X1254099Y2514504D01*
X1250000Y2510403D01*
X1243900Y2508404D01*
X1241899Y2508404D01*
X1235699Y2510403D01*
X1231599Y2514504D01*
X1229600Y2520603D01*
X1229600Y2522703D01*
X1231599Y2528804D01*
X1235699Y2532903D01*
X1243900Y2535003D01*
X1254099Y2535003D01*
X1264399Y2532903D01*
X1270500Y2528804D01*
X1272500Y2522703D01*
X1272500Y2518604D01*
X1270500Y2512503D01*
X1266400Y2510403D01*
X1719799Y2460704D02*
G01*
X1715699Y2458604D01*
X1711599Y2454504D01*
X1709600Y2450504D01*
X1709600Y2442303D01*
X1711599Y2438204D01*
X1715699Y2434104D01*
X1719799Y2432004D01*
X1726000Y2430003D01*
X1736199Y2430003D01*
X1742299Y2432004D01*
X1746400Y2434104D01*
X1750500Y2438204D01*
X1752500Y2442303D01*
X1752500Y2450504D01*
X1750500Y2454504D01*
X1746400Y2458604D01*
X1742299Y2460704D01*
X1709600Y2498703D02*
G01*
X1709600Y2478303D01*
X1728000Y2476203D01*
X1726000Y2478303D01*
X1723900Y2484403D01*
X1723900Y2490504D01*
X1726000Y2496703D01*
X1730000Y2500803D01*
X1736199Y2502804D01*
X1740299Y2502804D01*
X1746400Y2500803D01*
X1750500Y2496703D01*
X1752500Y2490504D01*
X1752500Y2484403D01*
X1750500Y2478303D01*
X1748500Y2476203D01*
X1744399Y2474203D01*
X1717799Y2516304D02*
G01*
X1715699Y2520403D01*
X1709600Y2526504D01*
X1752500Y2526504D01*
X2530200Y2779295D02*
G01*
X2534300Y2781395D01*
X2538400Y2785495D01*
X2540399Y2789495D01*
X2540399Y2797696D01*
X2538400Y2801795D01*
X2534300Y2805895D01*
X2530200Y2807995D01*
X2523999Y2809996D01*
X2513800Y2809996D01*
X2507700Y2807995D01*
X2503599Y2805895D01*
X2499499Y2801795D01*
X2497500Y2797696D01*
X2497500Y2789495D01*
X2499499Y2785495D01*
X2503599Y2781395D01*
X2507700Y2779295D01*
X2540399Y2741296D02*
G01*
X2540399Y2761696D01*
X2521999Y2763796D01*
X2523999Y2761696D01*
X2526099Y2755596D01*
X2526099Y2749495D01*
X2523999Y2743296D01*
X2520000Y2739196D01*
X2513800Y2737195D01*
X2509700Y2737195D01*
X2503599Y2739196D01*
X2499499Y2743296D01*
X2497500Y2749495D01*
X2497500Y2755596D01*
X2499499Y2761696D01*
X2501499Y2763796D01*
X2505600Y2765796D01*
X2530200Y2721595D02*
G01*
X2532200Y2721595D01*
X2536300Y2719596D01*
X2538400Y2717496D01*
X2540399Y2713496D01*
X2540399Y2705295D01*
X2538400Y2701196D01*
X2536300Y2699095D01*
X2532200Y2697096D01*
X2528100Y2697096D01*
X2523999Y2699095D01*
X2517899Y2703195D01*
X2497500Y2723696D01*
X2497500Y2694996D01*
X2194799Y2455706D02*
G01*
X2190699Y2453606D01*
X2186599Y2449506D01*
X2184600Y2445506D01*
X2184600Y2437305D01*
X2186599Y2433206D01*
X2190699Y2429106D01*
X2194799Y2427006D01*
X2201000Y2425005D01*
X2211199Y2425005D01*
X2217299Y2427006D01*
X2221400Y2429106D01*
X2225500Y2433206D01*
X2227500Y2437305D01*
X2227500Y2445506D01*
X2225500Y2449506D01*
X2221400Y2453606D01*
X2217299Y2455706D01*
X2184600Y2493706D02*
G01*
X2184600Y2473305D01*
X2203000Y2471206D01*
X2201000Y2473305D01*
X2198900Y2479405D01*
X2198900Y2485506D01*
X2201000Y2491705D01*
X2205000Y2495805D01*
X2211199Y2497806D01*
X2215299Y2497806D01*
X2221400Y2495805D01*
X2225500Y2491705D01*
X2227500Y2485506D01*
X2227500Y2479405D01*
X2225500Y2473305D01*
X2223500Y2471206D01*
X2219399Y2469205D01*
X2184600Y2515405D02*
G01*
X2184600Y2537905D01*
X2201000Y2525605D01*
X2201000Y2531806D01*
X2203000Y2535906D01*
X2205000Y2537905D01*
X2211199Y2540005D01*
X2215299Y2540005D01*
X2221400Y2537905D01*
X2225500Y2533805D01*
X2227500Y2527705D01*
X2227500Y2521505D01*
X2225500Y2515405D01*
X2223500Y2513406D01*
X2219399Y2511305D01*
X889994Y2404295D02*
G01*
X894094Y2406395D01*
X898194Y2410495D01*
X900195Y2414495D01*
X900195Y2422696D01*
X898194Y2426795D01*
X894094Y2430895D01*
X889994Y2432995D01*
X883795Y2434996D01*
X873594Y2434996D01*
X867494Y2432995D01*
X863395Y2430895D01*
X859295Y2426795D01*
X857295Y2422696D01*
X857295Y2414495D01*
X859295Y2410495D01*
X863395Y2406395D01*
X867494Y2404295D01*
X900195Y2366296D02*
G01*
X900195Y2386696D01*
X881795Y2388796D01*
X883795Y2386696D01*
X885895Y2380596D01*
X885895Y2374495D01*
X883795Y2368296D01*
X879795Y2364196D01*
X873594Y2362195D01*
X869494Y2362195D01*
X863395Y2364196D01*
X859295Y2368296D01*
X857295Y2374495D01*
X857295Y2380596D01*
X859295Y2386696D01*
X861295Y2388796D01*
X865394Y2390796D01*
X900195Y2328195D02*
G01*
X871594Y2348696D01*
X871594Y2317995D01*
X900195Y2328195D02*
G01*
X857295Y2328195D01*
X991962Y2016837D02*
G01*
X987862Y2014737D01*
X983762Y2010637D01*
X981763Y2006637D01*
X981763Y1998436D01*
X983762Y1994337D01*
X987862Y1990237D01*
X991962Y1988137D01*
X998163Y1986136D01*
X1008362Y1986136D01*
X1014462Y1988137D01*
X1018563Y1990237D01*
X1022663Y1994337D01*
X1024663Y1998436D01*
X1024663Y2006637D01*
X1022663Y2010637D01*
X1018563Y2014737D01*
X1014462Y2016837D01*
X981763Y2054837D02*
G01*
X981763Y2034436D01*
X1000163Y2032337D01*
X998163Y2034436D01*
X996063Y2040536D01*
X996063Y2046637D01*
X998163Y2052836D01*
X1002163Y2056936D01*
X1008362Y2058937D01*
X1012462Y2058937D01*
X1018563Y2056936D01*
X1022663Y2052836D01*
X1024663Y2046637D01*
X1024663Y2040536D01*
X1022663Y2034436D01*
X1020663Y2032337D01*
X1016562Y2030336D01*
X981763Y2097037D02*
G01*
X981763Y2076536D01*
X1000163Y2074537D01*
X998163Y2076536D01*
X996063Y2082636D01*
X996063Y2088836D01*
X998163Y2094937D01*
X1002163Y2099036D01*
X1008362Y2101136D01*
X1012462Y2101136D01*
X1018563Y2099036D01*
X1022663Y2094937D01*
X1024663Y2088836D01*
X1024663Y2082636D01*
X1022663Y2076536D01*
X1020663Y2074537D01*
X1016562Y2072437D01*
X650707Y2160200D02*
G01*
X648607Y2164299D01*
X644506Y2168400D01*
X640506Y2170399D01*
X632307Y2170399D01*
X628207Y2168400D01*
X624106Y2164299D01*
X622006Y2160200D01*
X620007Y2154000D01*
X620007Y2143800D01*
X622006Y2137700D01*
X624106Y2133600D01*
X628207Y2129499D01*
X632307Y2127500D01*
X640506Y2127500D01*
X644506Y2129499D01*
X648607Y2133600D01*
X650707Y2137700D01*
X688706Y2170399D02*
G01*
X668306Y2170399D01*
X666206Y2151999D01*
X668306Y2154000D01*
X674407Y2156100D01*
X680506Y2156100D01*
X686707Y2154000D01*
X690806Y2150000D01*
X692806Y2143800D01*
X692806Y2139699D01*
X690806Y2133600D01*
X686707Y2129499D01*
X680506Y2127500D01*
X674407Y2127500D01*
X668306Y2129499D01*
X666206Y2131500D01*
X664207Y2135599D01*
X730907Y2164299D02*
G01*
X728807Y2168400D01*
X722707Y2170399D01*
X718607Y2170399D01*
X712507Y2168400D01*
X708407Y2162199D01*
X706307Y2151999D01*
X706307Y2141799D01*
X708407Y2133600D01*
X712507Y2129499D01*
X718607Y2127500D01*
X720607Y2127500D01*
X726806Y2129499D01*
X730907Y2133600D01*
X732907Y2139699D01*
X732907Y2141799D01*
X730907Y2147899D01*
X726806Y2151999D01*
X720607Y2154000D01*
X718607Y2154000D01*
X712507Y2151999D01*
X708407Y2147899D01*
X706307Y2141799D01*
X624800Y1760704D02*
G01*
X620700Y1758604D01*
X616599Y1754504D01*
X614600Y1750504D01*
X614600Y1742303D01*
X616599Y1738204D01*
X620700Y1734104D01*
X624800Y1732004D01*
X630999Y1730003D01*
X641199Y1730003D01*
X647300Y1732004D01*
X651399Y1734104D01*
X655500Y1738204D01*
X657500Y1742303D01*
X657500Y1750504D01*
X655500Y1754504D01*
X651399Y1758604D01*
X647300Y1760704D01*
X614600Y1798703D02*
G01*
X614600Y1778303D01*
X633000Y1776203D01*
X630999Y1778303D01*
X628899Y1784403D01*
X628899Y1790504D01*
X630999Y1796703D01*
X635000Y1800803D01*
X641199Y1802804D01*
X645300Y1802804D01*
X651399Y1800803D01*
X655500Y1796703D01*
X657500Y1790504D01*
X657500Y1784403D01*
X655500Y1778303D01*
X653499Y1776203D01*
X649400Y1774203D01*
X614600Y1845003D02*
G01*
X657500Y1824504D01*
X614600Y1816304D02*
G01*
X614600Y1845003D01*
X1624799Y2021507D02*
G01*
X1620699Y2019407D01*
X1616599Y2015306D01*
X1614600Y2011307D01*
X1614600Y2003107D01*
X1616599Y1999007D01*
X1620699Y1994906D01*
X1624799Y1992806D01*
X1631000Y1990806D01*
X1641199Y1990806D01*
X1647299Y1992806D01*
X1651400Y1994906D01*
X1655500Y1999007D01*
X1657500Y2003107D01*
X1657500Y2011307D01*
X1655500Y2015306D01*
X1651400Y2019407D01*
X1647299Y2021507D01*
X1614600Y2059506D02*
G01*
X1614600Y2039106D01*
X1633000Y2037006D01*
X1631000Y2039106D01*
X1628900Y2045207D01*
X1628900Y2051307D01*
X1631000Y2057507D01*
X1635000Y2061606D01*
X1641199Y2063607D01*
X1645299Y2063607D01*
X1651400Y2061606D01*
X1655500Y2057507D01*
X1657500Y2051307D01*
X1657500Y2045207D01*
X1655500Y2039106D01*
X1653500Y2037006D01*
X1649399Y2035007D01*
X1614600Y2087307D02*
G01*
X1616599Y2081206D01*
X1620699Y2079207D01*
X1624799Y2079207D01*
X1628900Y2081206D01*
X1631000Y2085306D01*
X1633000Y2093506D01*
X1635000Y2099607D01*
X1639099Y2103706D01*
X1643199Y2105807D01*
X1649399Y2105807D01*
X1653500Y2103706D01*
X1655500Y2101707D01*
X1657500Y2095506D01*
X1657500Y2087307D01*
X1655500Y2081206D01*
X1653500Y2079207D01*
X1649399Y2077107D01*
X1643199Y2077107D01*
X1639099Y2079207D01*
X1635000Y2083306D01*
X1633000Y2089407D01*
X1631000Y2097606D01*
X1628900Y2101707D01*
X1624799Y2103706D01*
X1620699Y2103706D01*
X1616599Y2101707D01*
X1614600Y2095506D01*
X1614600Y2087307D01*
X1269799Y1731507D02*
G01*
X1265699Y1729407D01*
X1261599Y1725306D01*
X1259600Y1721307D01*
X1259600Y1713107D01*
X1261599Y1709007D01*
X1265699Y1704906D01*
X1269799Y1702806D01*
X1276000Y1700806D01*
X1286199Y1700806D01*
X1292299Y1702806D01*
X1296400Y1704906D01*
X1300500Y1709007D01*
X1302500Y1713107D01*
X1302500Y1721307D01*
X1300500Y1725306D01*
X1296400Y1729407D01*
X1292299Y1731507D01*
X1259600Y1769506D02*
G01*
X1259600Y1749106D01*
X1278000Y1747006D01*
X1276000Y1749106D01*
X1273900Y1755207D01*
X1273900Y1761307D01*
X1276000Y1767507D01*
X1280000Y1771606D01*
X1286199Y1773607D01*
X1290299Y1773607D01*
X1296400Y1771606D01*
X1300500Y1767507D01*
X1302500Y1761307D01*
X1302500Y1755207D01*
X1300500Y1749106D01*
X1298500Y1747006D01*
X1294399Y1745007D01*
X1273900Y1813706D02*
G01*
X1280000Y1811707D01*
X1284099Y1807606D01*
X1286199Y1801406D01*
X1286199Y1799407D01*
X1284099Y1793306D01*
X1280000Y1789207D01*
X1273900Y1787107D01*
X1271899Y1787107D01*
X1265699Y1789207D01*
X1261599Y1793306D01*
X1259600Y1799407D01*
X1259600Y1801406D01*
X1261599Y1807606D01*
X1265699Y1811707D01*
X1273900Y1813706D01*
X1284099Y1813706D01*
X1294399Y1811707D01*
X1300500Y1807606D01*
X1302500Y1801406D01*
X1302500Y1797307D01*
X1300500Y1791206D01*
X1296400Y1789207D01*
X2279799Y1865704D02*
G01*
X2275699Y1863604D01*
X2271599Y1859504D01*
X2269600Y1855504D01*
X2269600Y1847303D01*
X2271599Y1843204D01*
X2275699Y1839104D01*
X2279799Y1837004D01*
X2286000Y1835003D01*
X2296199Y1835003D01*
X2302299Y1837004D01*
X2306400Y1839104D01*
X2310500Y1843204D01*
X2312500Y1847303D01*
X2312500Y1855504D01*
X2310500Y1859504D01*
X2306400Y1863604D01*
X2302299Y1865704D01*
X2275699Y1903703D02*
G01*
X2271599Y1901703D01*
X2269600Y1895504D01*
X2269600Y1891504D01*
X2271599Y1885304D01*
X2277799Y1881203D01*
X2288000Y1879203D01*
X2298199Y1879203D01*
X2306400Y1881203D01*
X2310500Y1885304D01*
X2312500Y1891504D01*
X2312500Y1893503D01*
X2310500Y1899603D01*
X2306400Y1903703D01*
X2300299Y1905803D01*
X2298199Y1905803D01*
X2292100Y1903703D01*
X2288000Y1899603D01*
X2286000Y1893503D01*
X2286000Y1891504D01*
X2288000Y1885304D01*
X2292100Y1881203D01*
X2298199Y1879203D01*
X2269600Y1931504D02*
G01*
X2271599Y1925403D01*
X2277799Y1921304D01*
X2288000Y1919304D01*
X2294099Y1919304D01*
X2304399Y1921304D01*
X2310500Y1925403D01*
X2312500Y1931504D01*
X2312500Y1935603D01*
X2310500Y1941804D01*
X2304399Y1945904D01*
X2294099Y1947903D01*
X2288000Y1947903D01*
X2277799Y1945904D01*
X2271599Y1941804D01*
X2269600Y1935603D01*
X2269600Y1931504D01*
X1904799Y1741507D02*
G01*
X1900699Y1739407D01*
X1896599Y1735306D01*
X1894600Y1731307D01*
X1894600Y1723107D01*
X1896599Y1719007D01*
X1900699Y1714906D01*
X1904799Y1712806D01*
X1911000Y1710806D01*
X1921199Y1710806D01*
X1927299Y1712806D01*
X1931400Y1714906D01*
X1935500Y1719007D01*
X1937500Y1723107D01*
X1937500Y1731307D01*
X1935500Y1735306D01*
X1931400Y1739407D01*
X1927299Y1741507D01*
X1900699Y1779506D02*
G01*
X1896599Y1777507D01*
X1894600Y1771307D01*
X1894600Y1767307D01*
X1896599Y1761107D01*
X1902799Y1757006D01*
X1913000Y1755007D01*
X1923199Y1755007D01*
X1931400Y1757006D01*
X1935500Y1761107D01*
X1937500Y1767307D01*
X1937500Y1769306D01*
X1935500Y1775407D01*
X1931400Y1779506D01*
X1925299Y1781606D01*
X1923199Y1781606D01*
X1917100Y1779506D01*
X1913000Y1775407D01*
X1911000Y1769306D01*
X1911000Y1767307D01*
X1913000Y1761107D01*
X1917100Y1757006D01*
X1923199Y1755007D01*
X1902799Y1795106D02*
G01*
X1900699Y1799207D01*
X1894600Y1805306D01*
X1937500Y1805306D01*
X2619799Y3340704D02*
G01*
X2615699Y3338604D01*
X2611599Y3334504D01*
X2609600Y3330504D01*
X2609600Y3322303D01*
X2611599Y3318204D01*
X2615699Y3314104D01*
X2619799Y3312004D01*
X2626000Y3310003D01*
X2636199Y3310003D01*
X2642299Y3312004D01*
X2646400Y3314104D01*
X2650500Y3318204D01*
X2652500Y3322303D01*
X2652500Y3330504D01*
X2650500Y3334504D01*
X2646400Y3338604D01*
X2642299Y3340704D01*
X2615699Y3378703D02*
G01*
X2611599Y3376703D01*
X2609600Y3370504D01*
X2609600Y3366504D01*
X2611599Y3360304D01*
X2617799Y3356203D01*
X2628000Y3354203D01*
X2638199Y3354203D01*
X2646400Y3356203D01*
X2650500Y3360304D01*
X2652500Y3366504D01*
X2652500Y3368503D01*
X2650500Y3374603D01*
X2646400Y3378703D01*
X2640299Y3380803D01*
X2638199Y3380803D01*
X2632100Y3378703D01*
X2628000Y3374603D01*
X2626000Y3368503D01*
X2626000Y3366504D01*
X2628000Y3360304D01*
X2632100Y3356203D01*
X2638199Y3354203D01*
X2619799Y3396304D02*
G01*
X2617799Y3396304D01*
X2613699Y3398404D01*
X2611599Y3400403D01*
X2609600Y3404504D01*
X2609600Y3412703D01*
X2611599Y3416804D01*
X2613699Y3418804D01*
X2617799Y3420904D01*
X2621899Y3420904D01*
X2626000Y3418804D01*
X2632100Y3414704D01*
X2652500Y3394304D01*
X2652500Y3422903D01*
X2596509Y3720201D02*
G01*
X2594409Y3724301D01*
X2590309Y3728402D01*
X2586310Y3730401D01*
X2578109Y3730401D01*
X2574009Y3728402D01*
X2569910Y3724301D01*
X2567809Y3720201D01*
X2565810Y3714002D01*
X2565810Y3703802D01*
X2567809Y3697701D01*
X2569910Y3693602D01*
X2574009Y3689502D01*
X2578109Y3687501D01*
X2586310Y3687501D01*
X2590309Y3689502D01*
X2594409Y3693602D01*
X2596509Y3697701D01*
X2634510Y3724301D02*
G01*
X2632510Y3728402D01*
X2626310Y3730401D01*
X2622309Y3730401D01*
X2616109Y3728402D01*
X2612010Y3722202D01*
X2610010Y3712002D01*
X2610010Y3701801D01*
X2612010Y3693602D01*
X2616109Y3689502D01*
X2622309Y3687501D01*
X2624309Y3687501D01*
X2630410Y3689502D01*
X2634510Y3693602D01*
X2636610Y3699702D01*
X2636610Y3701801D01*
X2634510Y3707901D01*
X2630410Y3712002D01*
X2624309Y3714002D01*
X2622309Y3714002D01*
X2616109Y3712002D01*
X2612010Y3707901D01*
X2610010Y3701801D01*
X2654210Y3730401D02*
G01*
X2676710Y3730401D01*
X2664409Y3714002D01*
X2670510Y3714002D01*
X2674610Y3712002D01*
X2676710Y3710001D01*
X2678710Y3703802D01*
X2678710Y3699702D01*
X2676710Y3693602D01*
X2672610Y3689502D01*
X2666409Y3687501D01*
X2660309Y3687501D01*
X2654210Y3689502D01*
X2652110Y3691502D01*
X2650110Y3695601D01*
X775001Y3755399D02*
G01*
X775001Y3712500D01*
X775001Y3755399D02*
G01*
X793401Y3755399D01*
X799501Y3753400D01*
X801601Y3751300D01*
X803600Y3747199D01*
X803600Y3743099D01*
X801601Y3739000D01*
X799501Y3736999D01*
X793401Y3735000D01*
X775001Y3735000D01*
X789300Y3735000D02*
G01*
X803600Y3712500D01*
X817101Y3747199D02*
G01*
X821201Y3749299D01*
X827400Y3755399D01*
X827400Y3712500D01*
X2580001Y3490399D02*
G01*
X2580001Y3447500D01*
X2580001Y3490399D02*
G01*
X2598401Y3490399D01*
X2604501Y3488400D01*
X2606601Y3486300D01*
X2608600Y3482199D01*
X2608600Y3478099D01*
X2606601Y3474000D01*
X2604501Y3471999D01*
X2598401Y3470000D01*
X2580001Y3470000D01*
X2594300Y3470000D02*
G01*
X2608600Y3447500D01*
X2632401Y3490399D02*
G01*
X2626201Y3488400D01*
X2624201Y3484299D01*
X2624201Y3480200D01*
X2626201Y3476100D01*
X2630300Y3474000D01*
X2638500Y3471999D01*
X2644601Y3470000D01*
X2648701Y3465900D01*
X2650801Y3461799D01*
X2650801Y3455599D01*
X2648701Y3451500D01*
X2646701Y3449499D01*
X2640501Y3447500D01*
X2632401Y3447500D01*
X2626201Y3449499D01*
X2624201Y3451500D01*
X2622101Y3455599D01*
X2622101Y3461799D01*
X2624201Y3465900D01*
X2628301Y3470000D01*
X2634400Y3471999D01*
X2642601Y3474000D01*
X2646701Y3476100D01*
X2648701Y3480200D01*
X2648701Y3484299D01*
X2646701Y3488400D01*
X2640501Y3490399D01*
X2632401Y3490399D01*
X1761548Y2016606D02*
G01*
X1804448Y2016606D01*
X1761548Y2016606D02*
G01*
X1761548Y2035007D01*
X1763548Y2041107D01*
X1765648Y2043207D01*
X1769747Y2045207D01*
X1773847Y2045207D01*
X1777947Y2043207D01*
X1779948Y2041107D01*
X1781948Y2035007D01*
X1781948Y2016606D01*
X1781948Y2030907D02*
G01*
X1804448Y2045207D01*
X1775847Y2085306D02*
G01*
X1781948Y2083306D01*
X1786048Y2079207D01*
X1788148Y2073107D01*
X1788148Y2071006D01*
X1786048Y2064906D01*
X1781948Y2060806D01*
X1775847Y2058706D01*
X1773847Y2058706D01*
X1767647Y2060806D01*
X1763548Y2064906D01*
X1761548Y2071006D01*
X1761548Y2073107D01*
X1763548Y2079207D01*
X1767647Y2083306D01*
X1775847Y2085306D01*
X1786048Y2085306D01*
X1796347Y2083306D01*
X1802448Y2079207D01*
X1804448Y2073107D01*
X1804448Y2069007D01*
X1802448Y2062806D01*
X1798347Y2060806D01*
X1124600Y1996606D02*
G01*
X1167500Y1996606D01*
X1124600Y1996606D02*
G01*
X1124600Y2015007D01*
X1126599Y2021107D01*
X1128699Y2023207D01*
X1132799Y2025207D01*
X1136899Y2025207D01*
X1141000Y2023207D01*
X1143000Y2021107D01*
X1145000Y2015007D01*
X1145000Y1996606D01*
X1145000Y2010907D02*
G01*
X1167500Y2025207D01*
X1132799Y2038706D02*
G01*
X1130699Y2042806D01*
X1124600Y2049007D01*
X1167500Y2049007D01*
X1134799Y2064506D02*
G01*
X1132799Y2064506D01*
X1128699Y2066606D01*
X1126599Y2068607D01*
X1124600Y2072707D01*
X1124600Y2080907D01*
X1126599Y2085007D01*
X1128699Y2087006D01*
X1132799Y2089106D01*
X1136899Y2089106D01*
X1141000Y2087006D01*
X1147100Y2082907D01*
X1167500Y2062507D01*
X1167500Y2091107D01*
X331763Y1745001D02*
G01*
X374663Y1745001D01*
X331763Y1745001D02*
G01*
X331763Y1763400D01*
X333762Y1769501D01*
X335862Y1771601D01*
X339962Y1773600D01*
X344063Y1773600D01*
X348162Y1771601D01*
X350162Y1769501D01*
X352163Y1763400D01*
X352163Y1745001D01*
X352163Y1759301D02*
G01*
X374663Y1773600D01*
X339962Y1787100D02*
G01*
X337863Y1791201D01*
X331763Y1797400D01*
X374663Y1797400D01*
X331763Y1815001D02*
G01*
X331763Y1837501D01*
X348162Y1825201D01*
X348162Y1831300D01*
X350162Y1835401D01*
X352163Y1837501D01*
X358362Y1839501D01*
X362462Y1839501D01*
X368562Y1837501D01*
X372662Y1833400D01*
X374663Y1827201D01*
X374663Y1821100D01*
X372662Y1815001D01*
X370662Y1812901D01*
X366563Y1810900D01*
X1014600Y2855001D02*
G01*
X1057500Y2855001D01*
X1014600Y2855001D02*
G01*
X1014600Y2873400D01*
X1016599Y2879501D01*
X1018699Y2881601D01*
X1022799Y2883600D01*
X1026899Y2883600D01*
X1031000Y2881601D01*
X1033000Y2879501D01*
X1035000Y2873400D01*
X1035000Y2855001D01*
X1035000Y2869301D02*
G01*
X1057500Y2883600D01*
X1024799Y2899200D02*
G01*
X1022799Y2899200D01*
X1018699Y2901201D01*
X1016599Y2903301D01*
X1014600Y2907401D01*
X1014600Y2915500D01*
X1016599Y2919600D01*
X1018699Y2921700D01*
X1022799Y2923701D01*
X1026899Y2923701D01*
X1031000Y2921700D01*
X1037100Y2917600D01*
X1057500Y2897100D01*
X1057500Y2925801D01*
X1024799Y2941300D02*
G01*
X1022799Y2941300D01*
X1018699Y2943400D01*
X1016599Y2945401D01*
X1014600Y2949501D01*
X1014600Y2957701D01*
X1016599Y2961801D01*
X1018699Y2963800D01*
X1022799Y2965900D01*
X1026899Y2965900D01*
X1031000Y2963800D01*
X1037100Y2959701D01*
X1057500Y2939301D01*
X1057500Y2967901D01*
X1004600Y2434196D02*
G01*
X1047500Y2434196D01*
X1004600Y2434196D02*
G01*
X1004600Y2452597D01*
X1006599Y2458697D01*
X1008699Y2460796D01*
X1012799Y2462797D01*
X1016899Y2462797D01*
X1021000Y2460796D01*
X1023000Y2458697D01*
X1025000Y2452597D01*
X1025000Y2434196D01*
X1025000Y2448497D02*
G01*
X1047500Y2462797D01*
X1014799Y2478397D02*
G01*
X1012799Y2478397D01*
X1008699Y2480396D01*
X1006599Y2482496D01*
X1004600Y2486597D01*
X1004600Y2494697D01*
X1006599Y2498796D01*
X1008699Y2500897D01*
X1012799Y2502896D01*
X1016899Y2502896D01*
X1021000Y2500897D01*
X1027100Y2496797D01*
X1047500Y2476296D01*
X1047500Y2504996D01*
X1004600Y2522597D02*
G01*
X1004600Y2545097D01*
X1021000Y2532797D01*
X1021000Y2538897D01*
X1023000Y2542997D01*
X1025000Y2545097D01*
X1031199Y2547096D01*
X1035299Y2547096D01*
X1041400Y2545097D01*
X1045500Y2540997D01*
X1047500Y2534796D01*
X1047500Y2528697D01*
X1045500Y2522597D01*
X1043500Y2520497D01*
X1039399Y2518497D01*
X1565001Y2880399D02*
G01*
X1565001Y2837500D01*
X1565001Y2880399D02*
G01*
X1583401Y2880399D01*
X1589501Y2878400D01*
X1591601Y2876300D01*
X1593600Y2872199D01*
X1593600Y2868099D01*
X1591601Y2864000D01*
X1589501Y2861999D01*
X1583401Y2860000D01*
X1565001Y2860000D01*
X1579300Y2860000D02*
G01*
X1593600Y2837500D01*
X1609201Y2870200D02*
G01*
X1609201Y2872199D01*
X1611201Y2876300D01*
X1613301Y2878400D01*
X1617400Y2880399D01*
X1625501Y2880399D01*
X1629601Y2878400D01*
X1631701Y2876300D01*
X1633701Y2872199D01*
X1633701Y2868099D01*
X1631701Y2864000D01*
X1627601Y2857899D01*
X1607101Y2837500D01*
X1635801Y2837500D01*
X1669700Y2880399D02*
G01*
X1649300Y2851799D01*
X1680001Y2851799D01*
X1669700Y2880399D02*
G01*
X1669700Y2837500D01*
X449807Y2670399D02*
G01*
X449807Y2627500D01*
X449807Y2670399D02*
G01*
X468207Y2670399D01*
X474306Y2668400D01*
X476406Y2666300D01*
X478407Y2662199D01*
X478407Y2658099D01*
X476406Y2654000D01*
X474306Y2651999D01*
X468207Y2650000D01*
X449807Y2650000D01*
X464106Y2650000D02*
G01*
X478407Y2627500D01*
X494007Y2660200D02*
G01*
X494007Y2662199D01*
X496006Y2666300D01*
X498107Y2668400D01*
X502206Y2670399D01*
X510306Y2670399D01*
X514407Y2668400D01*
X516507Y2666300D01*
X518506Y2662199D01*
X518506Y2658099D01*
X516507Y2654000D01*
X512406Y2647899D01*
X491907Y2627500D01*
X520607Y2627500D01*
X562707Y2670399D02*
G01*
X542307Y2627500D01*
X534106Y2670399D02*
G01*
X562707Y2670399D01*
X334600Y2140001D02*
G01*
X377500Y2140001D01*
X334600Y2140001D02*
G01*
X334600Y2158400D01*
X336599Y2164501D01*
X338699Y2166601D01*
X342800Y2168600D01*
X346900Y2168600D01*
X350999Y2166601D01*
X353000Y2164501D01*
X355000Y2158400D01*
X355000Y2140001D01*
X355000Y2154301D02*
G01*
X377500Y2168600D01*
X344800Y2184200D02*
G01*
X342800Y2184200D01*
X338699Y2186201D01*
X336599Y2188301D01*
X334600Y2192401D01*
X334600Y2200500D01*
X336599Y2204600D01*
X338699Y2206700D01*
X342800Y2208701D01*
X346900Y2208701D01*
X350999Y2206700D01*
X357100Y2202600D01*
X377500Y2182100D01*
X377500Y2210801D01*
X348899Y2250900D02*
G01*
X355000Y2248800D01*
X359099Y2244701D01*
X361199Y2238600D01*
X361199Y2236500D01*
X359099Y2230401D01*
X355000Y2226300D01*
X348899Y2224301D01*
X346900Y2224301D01*
X340700Y2226300D01*
X336599Y2230401D01*
X334600Y2236500D01*
X334600Y2238600D01*
X336599Y2244701D01*
X340700Y2248800D01*
X348899Y2250900D01*
X359099Y2250900D01*
X369400Y2248800D01*
X375500Y2244701D01*
X377500Y2238600D01*
X377500Y2234501D01*
X375500Y2228400D01*
X371399Y2226300D01*
X2434194Y3495399D02*
G01*
X2434194Y3452500D01*
X2434194Y3495399D02*
G01*
X2452595Y3495399D01*
X2458694Y3493400D01*
X2460794Y3491300D01*
X2462794Y3487199D01*
X2462794Y3483099D01*
X2460794Y3479000D01*
X2458694Y3476999D01*
X2452595Y3475000D01*
X2434194Y3475000D01*
X2448495Y3475000D02*
G01*
X2462794Y3452500D01*
X2480394Y3495399D02*
G01*
X2502894Y3495399D01*
X2490694Y3479000D01*
X2496795Y3479000D01*
X2500895Y3476999D01*
X2502894Y3475000D01*
X2504994Y3468800D01*
X2504994Y3464699D01*
X2502894Y3458600D01*
X2498795Y3454499D01*
X2492695Y3452500D01*
X2486594Y3452500D01*
X2480394Y3454499D01*
X2478395Y3456500D01*
X2476295Y3460599D01*
X2530694Y3495399D02*
G01*
X2524594Y3493400D01*
X2520495Y3487199D01*
X2518495Y3476999D01*
X2518495Y3470900D01*
X2520495Y3460599D01*
X2524594Y3454499D01*
X2530694Y3452500D01*
X2534795Y3452500D01*
X2540995Y3454499D01*
X2545095Y3460599D01*
X2547094Y3470900D01*
X2547094Y3476999D01*
X2545095Y3487199D01*
X2540995Y3493400D01*
X2534795Y3495399D01*
X2530694Y3495399D01*
X2225000Y3580399D02*
G01*
X2225000Y3549699D01*
X2226999Y3543600D01*
X2231099Y3539499D01*
X2237299Y3537500D01*
X2241400Y3537500D01*
X2247500Y3539499D01*
X2251599Y3543600D01*
X2253599Y3549699D01*
X2253599Y3580399D01*
X2267100Y3572199D02*
G01*
X2271199Y3574299D01*
X2277399Y3580399D01*
X2277399Y3537500D01*
X1600000Y3585399D02*
G01*
X1600000Y3554699D01*
X1601999Y3548600D01*
X1606099Y3544499D01*
X1612299Y3542500D01*
X1616400Y3542500D01*
X1622500Y3544499D01*
X1626599Y3548600D01*
X1628599Y3554699D01*
X1628599Y3585399D01*
X1644200Y3575200D02*
G01*
X1644200Y3577199D01*
X1646199Y3581300D01*
X1648299Y3583400D01*
X1652399Y3585399D01*
X1660500Y3585399D01*
X1664600Y3583400D01*
X1666700Y3581300D01*
X1668699Y3577199D01*
X1668699Y3573099D01*
X1666700Y3569000D01*
X1662600Y3562899D01*
X1642100Y3542500D01*
X1670799Y3542500D01*
X2815000Y3585399D02*
G01*
X2815000Y3554699D01*
X2816999Y3548600D01*
X2821099Y3544499D01*
X2827299Y3542500D01*
X2831400Y3542500D01*
X2837500Y3544499D01*
X2841599Y3548600D01*
X2843599Y3554699D01*
X2843599Y3585399D01*
X2861199Y3585399D02*
G01*
X2883699Y3585399D01*
X2871499Y3569000D01*
X2877600Y3569000D01*
X2881700Y3566999D01*
X2883699Y3565000D01*
X2885799Y3558800D01*
X2885799Y3554699D01*
X2883699Y3548600D01*
X2879600Y3544499D01*
X2873500Y3542500D01*
X2867399Y3542500D01*
X2861199Y3544499D01*
X2859200Y3546500D01*
X2857100Y3550599D01*
X840000Y3155399D02*
G01*
X840000Y3124699D01*
X841999Y3118600D01*
X846099Y3114499D01*
X852299Y3112500D01*
X856400Y3112500D01*
X862500Y3114499D01*
X866599Y3118600D01*
X868599Y3124699D01*
X868599Y3155399D01*
X902600Y3155399D02*
G01*
X882100Y3126799D01*
X912799Y3126799D01*
X902600Y3155399D02*
G01*
X902600Y3112500D01*
X1455000Y3150399D02*
G01*
X1455000Y3119699D01*
X1456999Y3113600D01*
X1461099Y3109499D01*
X1467299Y3107500D01*
X1471400Y3107500D01*
X1477500Y3109499D01*
X1481599Y3113600D01*
X1483599Y3119699D01*
X1483599Y3150399D01*
X1521700Y3150399D02*
G01*
X1501199Y3150399D01*
X1499200Y3131999D01*
X1501199Y3134000D01*
X1507399Y3136100D01*
X1513500Y3136100D01*
X1519600Y3134000D01*
X1523699Y3130000D01*
X1525799Y3123800D01*
X1525799Y3119699D01*
X1523699Y3113600D01*
X1519600Y3109499D01*
X1513500Y3107500D01*
X1507399Y3107500D01*
X1501199Y3109499D01*
X1499200Y3111500D01*
X1497100Y3115599D01*
X2068398Y3155399D02*
G01*
X2068398Y3124699D01*
X2070398Y3118600D01*
X2074498Y3114499D01*
X2080699Y3112500D01*
X2084799Y3112500D01*
X2090898Y3114499D01*
X2094998Y3118600D01*
X2096998Y3124699D01*
X2096998Y3155399D01*
X2135099Y3149299D02*
G01*
X2132999Y3153400D01*
X2126899Y3155399D01*
X2122799Y3155399D01*
X2116698Y3153400D01*
X2112599Y3147199D01*
X2110499Y3136999D01*
X2110499Y3126799D01*
X2112599Y3118600D01*
X2116698Y3114499D01*
X2122799Y3112500D01*
X2124898Y3112500D01*
X2130999Y3114499D01*
X2135099Y3118600D01*
X2137098Y3124699D01*
X2137098Y3126799D01*
X2135099Y3132899D01*
X2130999Y3136999D01*
X2124898Y3139000D01*
X2122799Y3139000D01*
X2116698Y3136999D01*
X2112599Y3132899D01*
X2110499Y3126799D01*
X2805000Y2715399D02*
G01*
X2805000Y2684699D01*
X2806999Y2678600D01*
X2811099Y2674499D01*
X2817299Y2672500D01*
X2821400Y2672500D01*
X2827500Y2674499D01*
X2831599Y2678600D01*
X2833599Y2684699D01*
X2833599Y2715399D01*
X2857399Y2715399D02*
G01*
X2851199Y2713400D01*
X2849200Y2709299D01*
X2849200Y2705200D01*
X2851199Y2701100D01*
X2855299Y2699000D01*
X2863500Y2696999D01*
X2869600Y2695000D01*
X2873699Y2690900D01*
X2875799Y2686799D01*
X2875799Y2680599D01*
X2873699Y2676500D01*
X2871700Y2674499D01*
X2865500Y2672500D01*
X2857399Y2672500D01*
X2851199Y2674499D01*
X2849200Y2676500D01*
X2847100Y2680599D01*
X2847100Y2686799D01*
X2849200Y2690900D01*
X2853299Y2695000D01*
X2859399Y2696999D01*
X2867600Y2699000D01*
X2871700Y2701100D01*
X2873699Y2705200D01*
X2873699Y2709299D01*
X2871700Y2713400D01*
X2865500Y2715399D01*
X2857399Y2715399D01*
X2220000Y2710399D02*
G01*
X2220000Y2679699D01*
X2221999Y2673600D01*
X2226099Y2669499D01*
X2232299Y2667500D01*
X2236400Y2667500D01*
X2242500Y2669499D01*
X2246599Y2673600D01*
X2248599Y2679699D01*
X2248599Y2710399D01*
X2288699Y2696100D02*
G01*
X2286700Y2690000D01*
X2282600Y2685900D01*
X2276499Y2683800D01*
X2274399Y2683800D01*
X2268299Y2685900D01*
X2264200Y2690000D01*
X2262100Y2696100D01*
X2262100Y2698099D01*
X2264200Y2704299D01*
X2268299Y2708400D01*
X2274399Y2710399D01*
X2276499Y2710399D01*
X2282600Y2708400D01*
X2286700Y2704299D01*
X2288699Y2696100D01*
X2288699Y2685900D01*
X2286700Y2675599D01*
X2282600Y2669499D01*
X2276499Y2667500D01*
X2272399Y2667500D01*
X2266199Y2669499D01*
X2264200Y2673600D01*
X1730000Y2700399D02*
G01*
X1730000Y2669699D01*
X1731999Y2663600D01*
X1736099Y2659499D01*
X1742299Y2657500D01*
X1746400Y2657500D01*
X1752500Y2659499D01*
X1756599Y2663600D01*
X1758599Y2669699D01*
X1758599Y2700399D01*
X1772100Y2692199D02*
G01*
X1776199Y2694299D01*
X1782399Y2700399D01*
X1782399Y2657500D01*
X1808100Y2700399D02*
G01*
X1801999Y2698400D01*
X1797899Y2692199D01*
X1795900Y2681999D01*
X1795900Y2675900D01*
X1797899Y2665599D01*
X1801999Y2659499D01*
X1808100Y2657500D01*
X1812200Y2657500D01*
X1818400Y2659499D01*
X1822500Y2665599D01*
X1824499Y2675900D01*
X1824499Y2681999D01*
X1822500Y2692199D01*
X1818400Y2698400D01*
X1812200Y2700399D01*
X1808100Y2700399D01*
X1250000Y2690399D02*
G01*
X1250000Y2659699D01*
X1251999Y2653600D01*
X1256099Y2649499D01*
X1262299Y2647500D01*
X1266400Y2647500D01*
X1272500Y2649499D01*
X1276599Y2653600D01*
X1278599Y2659699D01*
X1278599Y2690399D01*
X1292100Y2682199D02*
G01*
X1296199Y2684299D01*
X1302399Y2690399D01*
X1302399Y2647500D01*
X1315900Y2682199D02*
G01*
X1320000Y2684299D01*
X1326099Y2690399D01*
X1326099Y2647500D01*
X700000Y2685399D02*
G01*
X700000Y2654699D01*
X701999Y2648600D01*
X706100Y2644499D01*
X712300Y2642500D01*
X716399Y2642500D01*
X722500Y2644499D01*
X726599Y2648600D01*
X728600Y2654699D01*
X728600Y2685399D01*
X742100Y2677199D02*
G01*
X746199Y2679299D01*
X752399Y2685399D01*
X752399Y2642500D01*
X767899Y2675200D02*
G01*
X767899Y2677199D01*
X770000Y2681300D01*
X771999Y2683400D01*
X776099Y2685399D01*
X784300Y2685399D01*
X788400Y2683400D01*
X790399Y2681300D01*
X792500Y2677199D01*
X792500Y2673099D01*
X790399Y2669000D01*
X786300Y2662899D01*
X765900Y2642500D01*
X794499Y2642500D01*
X490000Y2295399D02*
G01*
X490000Y2264699D01*
X491999Y2258600D01*
X496100Y2254499D01*
X502300Y2252500D01*
X506399Y2252500D01*
X512500Y2254499D01*
X516599Y2258600D01*
X518600Y2264699D01*
X518600Y2295399D01*
X532100Y2287199D02*
G01*
X536199Y2289299D01*
X542399Y2295399D01*
X542399Y2252500D01*
X560000Y2295399D02*
G01*
X582500Y2295399D01*
X570199Y2279000D01*
X576300Y2279000D01*
X580399Y2276999D01*
X582500Y2275000D01*
X584499Y2268800D01*
X584499Y2264699D01*
X582500Y2258600D01*
X578400Y2254499D01*
X572199Y2252500D01*
X566100Y2252500D01*
X560000Y2254499D01*
X557899Y2256500D01*
X555900Y2260599D01*
X760000Y1965399D02*
G01*
X760000Y1934699D01*
X761999Y1928600D01*
X766099Y1924499D01*
X772299Y1922500D01*
X776400Y1922500D01*
X782500Y1924499D01*
X786599Y1928600D01*
X788599Y1934699D01*
X788599Y1965399D01*
X802100Y1957199D02*
G01*
X806199Y1959299D01*
X812399Y1965399D01*
X812399Y1922500D01*
X846300Y1965399D02*
G01*
X825900Y1936799D01*
X856499Y1936799D01*
X846300Y1965399D02*
G01*
X846300Y1922500D01*
X1410000Y1960399D02*
G01*
X1410000Y1929699D01*
X1411999Y1923600D01*
X1416099Y1919499D01*
X1422299Y1917500D01*
X1426400Y1917500D01*
X1432500Y1919499D01*
X1436599Y1923600D01*
X1438599Y1929699D01*
X1438599Y1960399D01*
X1452100Y1952199D02*
G01*
X1456199Y1954299D01*
X1462399Y1960399D01*
X1462399Y1917500D01*
X1500399Y1960399D02*
G01*
X1480000Y1960399D01*
X1477899Y1941999D01*
X1480000Y1944000D01*
X1486099Y1946100D01*
X1492200Y1946100D01*
X1498400Y1944000D01*
X1502500Y1940000D01*
X1504499Y1933800D01*
X1504499Y1929699D01*
X1502500Y1923600D01*
X1498400Y1919499D01*
X1492200Y1917500D01*
X1486099Y1917500D01*
X1480000Y1919499D01*
X1477899Y1921500D01*
X1475900Y1925599D01*
X2045000Y1950399D02*
G01*
X2045000Y1919699D01*
X2046999Y1913600D01*
X2051099Y1909499D01*
X2057299Y1907500D01*
X2061400Y1907500D01*
X2067500Y1909499D01*
X2071599Y1913600D01*
X2073599Y1919699D01*
X2073599Y1950399D01*
X2087100Y1942199D02*
G01*
X2091199Y1944299D01*
X2097399Y1950399D01*
X2097399Y1907500D01*
X2135399Y1944299D02*
G01*
X2133400Y1948400D01*
X2127200Y1950399D01*
X2123100Y1950399D01*
X2116999Y1948400D01*
X2112899Y1942199D01*
X2110900Y1931999D01*
X2110900Y1921799D01*
X2112899Y1913600D01*
X2116999Y1909499D01*
X2123100Y1907500D01*
X2125200Y1907500D01*
X2131300Y1909499D01*
X2135399Y1913600D01*
X2137500Y1919699D01*
X2137500Y1921799D01*
X2135399Y1927899D01*
X2131300Y1931999D01*
X2125200Y1934000D01*
X2123100Y1934000D01*
X2116999Y1931999D01*
X2112899Y1927899D01*
X2110900Y1921799D01*
X1303437Y3365704D02*
G01*
X1299337Y3363604D01*
X1295237Y3359504D01*
X1293238Y3355504D01*
X1293238Y3347303D01*
X1295237Y3343204D01*
X1299337Y3339104D01*
X1303437Y3337004D01*
X1309638Y3335003D01*
X1319837Y3335003D01*
X1325937Y3337004D01*
X1330038Y3339104D01*
X1334138Y3343204D01*
X1336138Y3347303D01*
X1336138Y3355504D01*
X1334138Y3359504D01*
X1330038Y3363604D01*
X1325937Y3365704D01*
X1299337Y3403703D02*
G01*
X1295237Y3401703D01*
X1293238Y3395504D01*
X1293238Y3391504D01*
X1295237Y3385304D01*
X1301437Y3381203D01*
X1311638Y3379203D01*
X1321837Y3379203D01*
X1330038Y3381203D01*
X1334138Y3385304D01*
X1336138Y3391504D01*
X1336138Y3393503D01*
X1334138Y3399603D01*
X1330038Y3403703D01*
X1323937Y3405803D01*
X1321837Y3405803D01*
X1315738Y3403703D01*
X1311638Y3399603D01*
X1309638Y3393503D01*
X1309638Y3391504D01*
X1311638Y3385304D01*
X1315738Y3381203D01*
X1321837Y3379203D01*
X1850703Y3715200D02*
G01*
X1848603Y3719299D01*
X1844503Y3723400D01*
X1840504Y3725399D01*
X1832304Y3725399D01*
X1828203Y3723400D01*
X1824103Y3719299D01*
X1822003Y3715200D01*
X1820003Y3709000D01*
X1820003Y3698800D01*
X1822003Y3692700D01*
X1824103Y3688600D01*
X1828203Y3684499D01*
X1832304Y3682500D01*
X1840504Y3682500D01*
X1844503Y3684499D01*
X1848603Y3688600D01*
X1850703Y3692700D01*
X1868303Y3725399D02*
G01*
X1890803Y3725399D01*
X1878504Y3709000D01*
X1884603Y3709000D01*
X1888703Y3706999D01*
X1890803Y3705000D01*
X1892803Y3698800D01*
X1892803Y3694699D01*
X1890803Y3688600D01*
X1886703Y3684499D01*
X1880504Y3682500D01*
X1874404Y3682500D01*
X1868303Y3684499D01*
X1866203Y3686500D01*
X1864203Y3690599D01*
X1918603Y3725399D02*
G01*
X1912503Y3723400D01*
X1908404Y3717199D01*
X1906304Y3706999D01*
X1906304Y3700900D01*
X1908404Y3690599D01*
X1912503Y3684499D01*
X1918603Y3682500D01*
X1922704Y3682500D01*
X1928804Y3684499D01*
X1932903Y3690599D01*
X1935003Y3700900D01*
X1935003Y3706999D01*
X1932903Y3717199D01*
X1928804Y3723400D01*
X1922704Y3725399D01*
X1918603Y3725399D01*
X1579799Y3355704D02*
G01*
X1575699Y3353604D01*
X1571599Y3349504D01*
X1569600Y3345504D01*
X1569600Y3337303D01*
X1571599Y3333204D01*
X1575699Y3329104D01*
X1579799Y3327004D01*
X1586000Y3325003D01*
X1596199Y3325003D01*
X1602299Y3327004D01*
X1606400Y3329104D01*
X1610500Y3333204D01*
X1612500Y3337303D01*
X1612500Y3345504D01*
X1610500Y3349504D01*
X1606400Y3353604D01*
X1602299Y3355704D01*
X1569600Y3373303D02*
G01*
X1569600Y3395803D01*
X1586000Y3383503D01*
X1586000Y3389603D01*
X1588000Y3393703D01*
X1590000Y3395803D01*
X1596199Y3397804D01*
X1600299Y3397804D01*
X1606400Y3395803D01*
X1610500Y3391703D01*
X1612500Y3385504D01*
X1612500Y3379403D01*
X1610500Y3373303D01*
X1608500Y3371203D01*
X1604399Y3369203D01*
X1577799Y3411304D02*
G01*
X1575699Y3415403D01*
X1569600Y3421504D01*
X1612500Y3421504D01*
X1380001Y3625399D02*
G01*
X1380001Y3582500D01*
X1380001Y3625399D02*
G01*
X1398401Y3625399D01*
X1404501Y3623400D01*
X1406601Y3621300D01*
X1408600Y3617199D01*
X1408600Y3613099D01*
X1406601Y3609000D01*
X1404501Y3606999D01*
X1398401Y3605000D01*
X1380001Y3605000D01*
X1394300Y3605000D02*
G01*
X1408600Y3582500D01*
X1450801Y3625399D02*
G01*
X1430300Y3582500D01*
X1422101Y3625399D02*
G01*
X1450801Y3625399D01*
X1844805Y3495399D02*
G01*
X1844805Y3452500D01*
X1844805Y3495399D02*
G01*
X1863206Y3495399D01*
X1869305Y3493400D01*
X1871405Y3491300D01*
X1873406Y3487199D01*
X1873406Y3483099D01*
X1871405Y3479000D01*
X1869305Y3476999D01*
X1863206Y3475000D01*
X1844805Y3475000D01*
X1859106Y3475000D02*
G01*
X1873406Y3452500D01*
X1891005Y3495399D02*
G01*
X1913505Y3495399D01*
X1901306Y3479000D01*
X1907406Y3479000D01*
X1911505Y3476999D01*
X1913505Y3475000D01*
X1915605Y3468800D01*
X1915605Y3464699D01*
X1913505Y3458600D01*
X1909405Y3454499D01*
X1903306Y3452500D01*
X1897205Y3452500D01*
X1891005Y3454499D01*
X1889005Y3456500D01*
X1886905Y3460599D01*
X1984194Y3490399D02*
G01*
X1984194Y3447500D01*
X1984194Y3490399D02*
G01*
X2002595Y3490399D01*
X2008694Y3488400D01*
X2010794Y3486300D01*
X2012794Y3482199D01*
X2012794Y3478099D01*
X2010794Y3474000D01*
X2008694Y3471999D01*
X2002595Y3470000D01*
X1984194Y3470000D01*
X1998495Y3470000D02*
G01*
X2012794Y3447500D01*
X2028395Y3480200D02*
G01*
X2028395Y3482199D01*
X2030394Y3486300D01*
X2032494Y3488400D01*
X2036594Y3490399D01*
X2044695Y3490399D01*
X2048795Y3488400D01*
X2050895Y3486300D01*
X2052894Y3482199D01*
X2052894Y3478099D01*
X2050895Y3474000D01*
X2046795Y3467899D01*
X2026295Y3447500D01*
X2054994Y3447500D01*
X1900699Y3270200D02*
G01*
X1898599Y3274299D01*
X1894499Y3278400D01*
X1890500Y3280399D01*
X1882299Y3280399D01*
X1878199Y3278400D01*
X1874099Y3274299D01*
X1871999Y3270200D01*
X1870000Y3264000D01*
X1870000Y3253800D01*
X1871999Y3247700D01*
X1874099Y3243600D01*
X1878199Y3239499D01*
X1882299Y3237500D01*
X1890500Y3237500D01*
X1894499Y3239499D01*
X1898599Y3243600D01*
X1900699Y3247700D01*
X1934600Y3280399D02*
G01*
X1914200Y3251799D01*
X1944899Y3251799D01*
X1934600Y3280399D02*
G01*
X1934600Y3237500D01*
X1772632Y2926314D02*
G01*
X1768531Y2924214D01*
X1764431Y2920113D01*
X1762431Y2916113D01*
X1762431Y2907914D01*
X1764431Y2903814D01*
X1768531Y2899713D01*
X1772632Y2897613D01*
X1778832Y2895614D01*
X1789031Y2895614D01*
X1795132Y2897613D01*
X1799232Y2899713D01*
X1803332Y2903814D01*
X1805331Y2907914D01*
X1805331Y2916113D01*
X1803332Y2920113D01*
X1799232Y2924214D01*
X1795132Y2926314D01*
X1770631Y2939814D02*
G01*
X1768531Y2943913D01*
X1762431Y2950014D01*
X1805331Y2950014D01*
X1762431Y2967613D02*
G01*
X1762431Y2990113D01*
X1778832Y2977813D01*
X1778832Y2984014D01*
X1780832Y2988114D01*
X1782831Y2990113D01*
X1789031Y2992114D01*
X1793131Y2992114D01*
X1799232Y2990113D01*
X1803332Y2986014D01*
X1805331Y2979913D01*
X1805331Y2973714D01*
X1803332Y2967613D01*
X1801332Y2965614D01*
X1797232Y2963514D01*
X1246509Y3269987D02*
G01*
X1244409Y3274088D01*
X1240309Y3278188D01*
X1236310Y3280187D01*
X1228109Y3280187D01*
X1224009Y3278188D01*
X1219909Y3274088D01*
X1217809Y3269987D01*
X1215810Y3263787D01*
X1215810Y3253587D01*
X1217809Y3247487D01*
X1219909Y3243388D01*
X1224009Y3239288D01*
X1228109Y3237287D01*
X1236310Y3237287D01*
X1240309Y3239288D01*
X1244409Y3243388D01*
X1246509Y3247487D01*
X1260010Y3271988D02*
G01*
X1264110Y3274088D01*
X1270209Y3280187D01*
X1270209Y3237287D01*
X1304210Y3280187D02*
G01*
X1283710Y3251588D01*
X1314409Y3251588D01*
X1304210Y3280187D02*
G01*
X1304210Y3237287D01*
X1163437Y2916314D02*
G01*
X1159337Y2914214D01*
X1155237Y2910113D01*
X1153238Y2906113D01*
X1153238Y2897914D01*
X1155237Y2893814D01*
X1159337Y2889713D01*
X1163437Y2887613D01*
X1169638Y2885614D01*
X1179837Y2885614D01*
X1185937Y2887613D01*
X1190038Y2889713D01*
X1194138Y2893814D01*
X1196138Y2897914D01*
X1196138Y2906113D01*
X1194138Y2910113D01*
X1190038Y2914214D01*
X1185937Y2916314D01*
X1161437Y2929814D02*
G01*
X1159337Y2933913D01*
X1153238Y2940014D01*
X1196138Y2940014D01*
X1153238Y2978114D02*
G01*
X1153238Y2957613D01*
X1171638Y2955614D01*
X1169638Y2957613D01*
X1167538Y2963714D01*
X1167538Y2969913D01*
X1169638Y2976014D01*
X1173638Y2980113D01*
X1179837Y2982114D01*
X1183937Y2982114D01*
X1190038Y2980113D01*
X1194138Y2976014D01*
X1196138Y2969913D01*
X1196138Y2963714D01*
X1194138Y2957613D01*
X1192138Y2955614D01*
X1188037Y2953514D01*
X584800Y3035704D02*
G01*
X580700Y3033604D01*
X576599Y3029504D01*
X574600Y3025504D01*
X574600Y3017303D01*
X576599Y3013204D01*
X580700Y3009104D01*
X584800Y3007004D01*
X590999Y3005003D01*
X601199Y3005003D01*
X607300Y3007004D01*
X611399Y3009104D01*
X615500Y3013204D01*
X617500Y3017303D01*
X617500Y3025504D01*
X615500Y3029504D01*
X611399Y3033604D01*
X607300Y3035704D01*
X582800Y3049203D02*
G01*
X580700Y3053303D01*
X574600Y3059403D01*
X617500Y3059403D01*
X580700Y3097503D02*
G01*
X576599Y3095403D01*
X574600Y3089304D01*
X574600Y3085203D01*
X576599Y3079004D01*
X582800Y3075003D01*
X593000Y3072903D01*
X603200Y3072903D01*
X611399Y3075003D01*
X615500Y3079004D01*
X617500Y3085203D01*
X617500Y3087204D01*
X615500Y3093404D01*
X611399Y3097503D01*
X605300Y3099504D01*
X603200Y3099504D01*
X597100Y3097503D01*
X593000Y3093404D01*
X590999Y3087204D01*
X590999Y3085203D01*
X593000Y3079004D01*
X597100Y3075003D01*
X603200Y3072903D01*
X600704Y3240200D02*
G01*
X598604Y3244299D01*
X594504Y3248400D01*
X590504Y3250399D01*
X582303Y3250399D01*
X578204Y3248400D01*
X574104Y3244299D01*
X572004Y3240200D01*
X570003Y3234000D01*
X570003Y3223800D01*
X572004Y3217700D01*
X574104Y3213600D01*
X578204Y3209499D01*
X582303Y3207500D01*
X590504Y3207500D01*
X594504Y3209499D01*
X598604Y3213600D01*
X600704Y3217700D01*
X614203Y3242199D02*
G01*
X618303Y3244299D01*
X624403Y3250399D01*
X624403Y3207500D01*
X666503Y3250399D02*
G01*
X646104Y3207500D01*
X637903Y3250399D02*
G01*
X666503Y3250399D01*
X2373437Y2911314D02*
G01*
X2369337Y2909214D01*
X2365237Y2905113D01*
X2363238Y2901113D01*
X2363238Y2892914D01*
X2365237Y2888814D01*
X2369337Y2884713D01*
X2373437Y2882613D01*
X2379638Y2880614D01*
X2389837Y2880614D01*
X2395937Y2882613D01*
X2400038Y2884713D01*
X2404138Y2888814D01*
X2406138Y2892914D01*
X2406138Y2901113D01*
X2404138Y2905113D01*
X2400038Y2909214D01*
X2395937Y2911314D01*
X2371437Y2924814D02*
G01*
X2369337Y2928913D01*
X2363238Y2935014D01*
X2406138Y2935014D01*
X2363238Y2958714D02*
G01*
X2365237Y2952613D01*
X2369337Y2950614D01*
X2373437Y2950614D01*
X2377538Y2952613D01*
X2379638Y2956714D01*
X2381638Y2964913D01*
X2383638Y2971014D01*
X2387737Y2975113D01*
X2391837Y2977114D01*
X2398037Y2977114D01*
X2402138Y2975113D01*
X2404138Y2973114D01*
X2406138Y2966914D01*
X2406138Y2958714D01*
X2404138Y2952613D01*
X2402138Y2950614D01*
X2398037Y2948514D01*
X2391837Y2948514D01*
X2387737Y2950614D01*
X2383638Y2954614D01*
X2381638Y2960814D01*
X2379638Y2969014D01*
X2377538Y2973114D01*
X2373437Y2975113D01*
X2369337Y2975113D01*
X2365237Y2973114D01*
X2363238Y2966914D01*
X2363238Y2958714D01*
X2471509Y3270200D02*
G01*
X2469409Y3274299D01*
X2465309Y3278400D01*
X2461310Y3280399D01*
X2453109Y3280399D01*
X2449009Y3278400D01*
X2444910Y3274299D01*
X2442809Y3270200D01*
X2440810Y3264000D01*
X2440810Y3253800D01*
X2442809Y3247700D01*
X2444910Y3243600D01*
X2449009Y3239499D01*
X2453109Y3237500D01*
X2461310Y3237500D01*
X2465309Y3239499D01*
X2469409Y3243600D01*
X2471509Y3247700D01*
X2485010Y3272199D02*
G01*
X2489110Y3274299D01*
X2495209Y3280399D01*
X2495209Y3237500D01*
X2535309Y3266100D02*
G01*
X2533310Y3260000D01*
X2529210Y3255900D01*
X2523010Y3253800D01*
X2521009Y3253800D01*
X2514809Y3255900D01*
X2510810Y3260000D01*
X2508710Y3266100D01*
X2508710Y3268099D01*
X2510810Y3274299D01*
X2514809Y3278400D01*
X2521009Y3280399D01*
X2523010Y3280399D01*
X2529210Y3278400D01*
X2533310Y3274299D01*
X2535309Y3266100D01*
X2535309Y3255900D01*
X2533310Y3245599D01*
X2529210Y3239499D01*
X2523010Y3237500D01*
X2518909Y3237500D01*
X2512809Y3239499D01*
X2510810Y3243600D01*
X2579584Y2775704D02*
G01*
X2575484Y2773604D01*
X2571385Y2769504D01*
X2569385Y2765504D01*
X2569385Y2757303D01*
X2571385Y2753204D01*
X2575484Y2749104D01*
X2579584Y2747004D01*
X2585784Y2745003D01*
X2595985Y2745003D01*
X2602084Y2747004D01*
X2606184Y2749104D01*
X2610285Y2753204D01*
X2612285Y2757303D01*
X2612285Y2765504D01*
X2610285Y2769504D01*
X2606184Y2773604D01*
X2602084Y2775704D01*
X2579584Y2791203D02*
G01*
X2577584Y2791203D01*
X2573485Y2793303D01*
X2571385Y2795304D01*
X2569385Y2799403D01*
X2569385Y2807604D01*
X2571385Y2811703D01*
X2573485Y2813703D01*
X2577584Y2815803D01*
X2581684Y2815803D01*
X2585784Y2813703D01*
X2591885Y2809603D01*
X2612285Y2789203D01*
X2612285Y2817804D01*
X2569385Y2843604D02*
G01*
X2571385Y2837503D01*
X2577584Y2833404D01*
X2587785Y2831304D01*
X2593885Y2831304D01*
X2604184Y2833404D01*
X2610285Y2837503D01*
X2612285Y2843604D01*
X2612285Y2847703D01*
X2610285Y2853804D01*
X2604184Y2857903D01*
X2593885Y2860003D01*
X2587785Y2860003D01*
X2577584Y2857903D01*
X2571385Y2853804D01*
X2569385Y2847703D01*
X2569385Y2843604D01*
X2809799Y2910704D02*
G01*
X2805699Y2908604D01*
X2801599Y2904504D01*
X2799600Y2900504D01*
X2799600Y2892303D01*
X2801599Y2888204D01*
X2805699Y2884104D01*
X2809799Y2882004D01*
X2816000Y2880003D01*
X2826199Y2880003D01*
X2832299Y2882004D01*
X2836400Y2884104D01*
X2840500Y2888204D01*
X2842500Y2892303D01*
X2842500Y2900504D01*
X2840500Y2904504D01*
X2836400Y2908604D01*
X2832299Y2910704D01*
X2809799Y2926203D02*
G01*
X2807799Y2926203D01*
X2803699Y2928303D01*
X2801599Y2930304D01*
X2799600Y2934403D01*
X2799600Y2942604D01*
X2801599Y2946703D01*
X2803699Y2948703D01*
X2807799Y2950803D01*
X2811899Y2950803D01*
X2816000Y2948703D01*
X2822100Y2944603D01*
X2842500Y2924203D01*
X2842500Y2952804D01*
X2807799Y2966304D02*
G01*
X2805699Y2970403D01*
X2799600Y2976504D01*
X2842500Y2976504D01*
X1105703Y3270200D02*
G01*
X1103603Y3274299D01*
X1099503Y3278400D01*
X1095504Y3280399D01*
X1087304Y3280399D01*
X1083203Y3278400D01*
X1079103Y3274299D01*
X1077003Y3270200D01*
X1075003Y3264000D01*
X1075003Y3253800D01*
X1077003Y3247700D01*
X1079103Y3243600D01*
X1083203Y3239499D01*
X1087304Y3237500D01*
X1095504Y3237500D01*
X1099503Y3239499D01*
X1103603Y3243600D01*
X1105703Y3247700D01*
X1123303Y3280399D02*
G01*
X1145803Y3280399D01*
X1133504Y3264000D01*
X1139603Y3264000D01*
X1143703Y3261999D01*
X1145803Y3260000D01*
X1147803Y3253800D01*
X1147803Y3249699D01*
X1145803Y3243600D01*
X1141703Y3239499D01*
X1135504Y3237500D01*
X1129404Y3237500D01*
X1123303Y3239499D01*
X1121203Y3241500D01*
X1119203Y3245599D01*
X1185904Y3274299D02*
G01*
X1183804Y3278400D01*
X1177704Y3280399D01*
X1173603Y3280399D01*
X1167503Y3278400D01*
X1163404Y3272199D01*
X1161304Y3261999D01*
X1161304Y3251799D01*
X1163404Y3243600D01*
X1167503Y3239499D01*
X1173603Y3237500D01*
X1175604Y3237500D01*
X1181804Y3239499D01*
X1185904Y3243600D01*
X1187903Y3249699D01*
X1187903Y3251799D01*
X1185904Y3257899D01*
X1181804Y3261999D01*
X1175604Y3264000D01*
X1173603Y3264000D01*
X1167503Y3261999D01*
X1163404Y3257899D01*
X1161304Y3251799D01*
X829799Y2911314D02*
G01*
X825699Y2909214D01*
X821599Y2905113D01*
X819600Y2901113D01*
X819600Y2892914D01*
X821599Y2888814D01*
X825699Y2884713D01*
X829799Y2882613D01*
X836000Y2880614D01*
X846199Y2880614D01*
X852299Y2882613D01*
X856400Y2884713D01*
X860500Y2888814D01*
X862500Y2892914D01*
X862500Y2901113D01*
X860500Y2905113D01*
X856400Y2909214D01*
X852299Y2911314D01*
X819600Y2928913D02*
G01*
X819600Y2951413D01*
X836000Y2939113D01*
X836000Y2945214D01*
X838000Y2949313D01*
X840000Y2951413D01*
X846199Y2953413D01*
X850299Y2953413D01*
X856400Y2951413D01*
X860500Y2947314D01*
X862500Y2941113D01*
X862500Y2935014D01*
X860500Y2928913D01*
X858500Y2926813D01*
X854399Y2924814D01*
X819600Y2995614D02*
G01*
X862500Y2975113D01*
X819600Y2966914D02*
G01*
X819600Y2995614D01*
X1710703Y3270200D02*
G01*
X1708603Y3274299D01*
X1704503Y3278400D01*
X1700504Y3280399D01*
X1692304Y3280399D01*
X1688203Y3278400D01*
X1684103Y3274299D01*
X1682003Y3270200D01*
X1680003Y3264000D01*
X1680003Y3253800D01*
X1682003Y3247700D01*
X1684103Y3243600D01*
X1688203Y3239499D01*
X1692304Y3237500D01*
X1700504Y3237500D01*
X1704503Y3239499D01*
X1708603Y3243600D01*
X1710703Y3247700D01*
X1728303Y3280399D02*
G01*
X1750803Y3280399D01*
X1738504Y3264000D01*
X1744603Y3264000D01*
X1748703Y3261999D01*
X1750803Y3260000D01*
X1752803Y3253800D01*
X1752803Y3249699D01*
X1750803Y3243600D01*
X1746703Y3239499D01*
X1740504Y3237500D01*
X1734404Y3237500D01*
X1728303Y3239499D01*
X1726203Y3241500D01*
X1724203Y3245599D01*
X1776504Y3280399D02*
G01*
X1770403Y3278400D01*
X1768404Y3274299D01*
X1768404Y3270200D01*
X1770403Y3266100D01*
X1774503Y3264000D01*
X1782704Y3261999D01*
X1788804Y3260000D01*
X1792903Y3255900D01*
X1795003Y3251799D01*
X1795003Y3245599D01*
X1792903Y3241500D01*
X1790904Y3239499D01*
X1784704Y3237500D01*
X1776504Y3237500D01*
X1770403Y3239499D01*
X1768404Y3241500D01*
X1766304Y3245599D01*
X1766304Y3251799D01*
X1768404Y3255900D01*
X1772503Y3260000D01*
X1778603Y3261999D01*
X1786804Y3264000D01*
X1790904Y3266100D01*
X1792903Y3270200D01*
X1792903Y3274299D01*
X1790904Y3278400D01*
X1784704Y3280399D01*
X1776504Y3280399D01*
X1455703Y2960200D02*
G01*
X1453603Y2964299D01*
X1449503Y2968400D01*
X1445504Y2970399D01*
X1437304Y2970399D01*
X1433203Y2968400D01*
X1429103Y2964299D01*
X1427003Y2960200D01*
X1425003Y2954000D01*
X1425003Y2943800D01*
X1427003Y2937700D01*
X1429103Y2933600D01*
X1433203Y2929499D01*
X1437304Y2927500D01*
X1445504Y2927500D01*
X1449503Y2929499D01*
X1453603Y2933600D01*
X1455703Y2937700D01*
X1473303Y2970399D02*
G01*
X1495803Y2970399D01*
X1483504Y2954000D01*
X1489603Y2954000D01*
X1493703Y2951999D01*
X1495803Y2950000D01*
X1497803Y2943800D01*
X1497803Y2939699D01*
X1495803Y2933600D01*
X1491703Y2929499D01*
X1485504Y2927500D01*
X1479404Y2927500D01*
X1473303Y2929499D01*
X1471203Y2931500D01*
X1469203Y2935599D01*
X1537903Y2956100D02*
G01*
X1535904Y2950000D01*
X1531804Y2945900D01*
X1525604Y2943800D01*
X1523603Y2943800D01*
X1517503Y2945900D01*
X1513404Y2950000D01*
X1511304Y2956100D01*
X1511304Y2958099D01*
X1513404Y2964299D01*
X1517503Y2968400D01*
X1523603Y2970399D01*
X1525604Y2970399D01*
X1531804Y2968400D01*
X1535904Y2964299D01*
X1537903Y2956100D01*
X1537903Y2945900D01*
X1535904Y2935599D01*
X1531804Y2929499D01*
X1525604Y2927500D01*
X1521504Y2927500D01*
X1515403Y2929499D01*
X1513404Y2933600D01*
X2325703Y3270200D02*
G01*
X2323603Y3274299D01*
X2319503Y3278400D01*
X2315504Y3280399D01*
X2307304Y3280399D01*
X2303203Y3278400D01*
X2299103Y3274299D01*
X2297003Y3270200D01*
X2295003Y3264000D01*
X2295003Y3253800D01*
X2297003Y3247700D01*
X2299103Y3243600D01*
X2303203Y3239499D01*
X2307304Y3237500D01*
X2315504Y3237500D01*
X2319503Y3239499D01*
X2323603Y3243600D01*
X2325703Y3247700D01*
X2359603Y3280399D02*
G01*
X2339203Y3251799D01*
X2369903Y3251799D01*
X2359603Y3280399D02*
G01*
X2359603Y3237500D01*
X2395604Y3280399D02*
G01*
X2389503Y3278400D01*
X2385403Y3272199D01*
X2383404Y3261999D01*
X2383404Y3255900D01*
X2385403Y3245599D01*
X2389503Y3239499D01*
X2395604Y3237500D01*
X2399704Y3237500D01*
X2405904Y3239499D01*
X2410003Y3245599D01*
X2412003Y3255900D01*
X2412003Y3261999D01*
X2410003Y3272199D01*
X2405904Y3278400D01*
X2399704Y3280399D01*
X2395604Y3280399D01*
X2074799Y2911314D02*
G01*
X2070699Y2909214D01*
X2066599Y2905113D01*
X2064600Y2901113D01*
X2064600Y2892914D01*
X2066599Y2888814D01*
X2070699Y2884713D01*
X2074799Y2882613D01*
X2081000Y2880614D01*
X2091199Y2880614D01*
X2097299Y2882613D01*
X2101400Y2884713D01*
X2105500Y2888814D01*
X2107500Y2892914D01*
X2107500Y2901113D01*
X2105500Y2905113D01*
X2101400Y2909214D01*
X2097299Y2911314D01*
X2064600Y2945214D02*
G01*
X2093199Y2924814D01*
X2093199Y2955513D01*
X2064600Y2945214D02*
G01*
X2107500Y2945214D01*
X2072799Y2969014D02*
G01*
X2070699Y2973114D01*
X2064600Y2979214D01*
X2107500Y2979214D01*
X2915699Y3240200D02*
G01*
X2913599Y3244299D01*
X2909499Y3248400D01*
X2905500Y3250399D01*
X2897299Y3250399D01*
X2893199Y3248400D01*
X2889099Y3244299D01*
X2886999Y3240200D01*
X2885000Y3234000D01*
X2885000Y3223800D01*
X2886999Y3217700D01*
X2889099Y3213600D01*
X2893199Y3209499D01*
X2897299Y3207500D01*
X2905500Y3207500D01*
X2909499Y3209499D01*
X2913599Y3213600D01*
X2915699Y3217700D01*
X2949600Y3250399D02*
G01*
X2929200Y3221799D01*
X2959899Y3221799D01*
X2949600Y3250399D02*
G01*
X2949600Y3207500D01*
X2975399Y3240200D02*
G01*
X2975399Y3242199D01*
X2977500Y3246300D01*
X2979499Y3248400D01*
X2983599Y3250399D01*
X2991800Y3250399D01*
X2995900Y3248400D01*
X2997899Y3246300D01*
X3000000Y3242199D01*
X3000000Y3238099D01*
X2997899Y3234000D01*
X2993800Y3227899D01*
X2973400Y3207500D01*
X3001999Y3207500D01*
X2644799Y2906314D02*
G01*
X2640699Y2904214D01*
X2636599Y2900113D01*
X2634600Y2896113D01*
X2634600Y2887914D01*
X2636599Y2883814D01*
X2640699Y2879713D01*
X2644799Y2877613D01*
X2651000Y2875614D01*
X2661199Y2875614D01*
X2667299Y2877613D01*
X2671400Y2879713D01*
X2675500Y2883814D01*
X2677500Y2887914D01*
X2677500Y2896113D01*
X2675500Y2900113D01*
X2671400Y2904214D01*
X2667299Y2906314D01*
X2634600Y2940214D02*
G01*
X2663199Y2919814D01*
X2663199Y2950513D01*
X2634600Y2940214D02*
G01*
X2677500Y2940214D01*
X2634600Y2968114D02*
G01*
X2634600Y2990614D01*
X2651000Y2978314D01*
X2651000Y2984414D01*
X2653000Y2988514D01*
X2655000Y2990614D01*
X2661199Y2992613D01*
X2665299Y2992613D01*
X2671400Y2990614D01*
X2675500Y2986514D01*
X2677500Y2980313D01*
X2677500Y2974214D01*
X2675500Y2968114D01*
X2673500Y2966014D01*
X2669399Y2964014D01*
X3044799Y2855704D02*
G01*
X3040699Y2853604D01*
X3036599Y2849504D01*
X3034600Y2845504D01*
X3034600Y2837303D01*
X3036599Y2833204D01*
X3040699Y2829104D01*
X3044799Y2827004D01*
X3051000Y2825003D01*
X3061199Y2825003D01*
X3067299Y2827004D01*
X3071400Y2829104D01*
X3075500Y2833204D01*
X3077500Y2837303D01*
X3077500Y2845504D01*
X3075500Y2849504D01*
X3071400Y2853604D01*
X3067299Y2855704D01*
X3034600Y2889603D02*
G01*
X3063199Y2869203D01*
X3063199Y2899904D01*
X3034600Y2889603D02*
G01*
X3077500Y2889603D01*
X3034600Y2933804D02*
G01*
X3063199Y2913404D01*
X3063199Y2944004D01*
X3034600Y2933804D02*
G01*
X3077500Y2933804D01*
X2789799Y2495704D02*
G01*
X2785699Y2493604D01*
X2781599Y2489504D01*
X2779600Y2485504D01*
X2779600Y2477303D01*
X2781599Y2473204D01*
X2785699Y2469104D01*
X2789799Y2467004D01*
X2796000Y2465003D01*
X2806199Y2465003D01*
X2812299Y2467004D01*
X2816400Y2469104D01*
X2820500Y2473204D01*
X2822500Y2477303D01*
X2822500Y2485504D01*
X2820500Y2489504D01*
X2816400Y2493604D01*
X2812299Y2495704D01*
X2779600Y2529603D02*
G01*
X2808199Y2509203D01*
X2808199Y2539904D01*
X2779600Y2529603D02*
G01*
X2822500Y2529603D01*
X2779600Y2577903D02*
G01*
X2779600Y2557503D01*
X2798000Y2555403D01*
X2796000Y2557503D01*
X2793900Y2563604D01*
X2793900Y2569704D01*
X2796000Y2575904D01*
X2800000Y2580003D01*
X2806199Y2582004D01*
X2810299Y2582004D01*
X2816400Y2580003D01*
X2820500Y2575904D01*
X2822500Y2569704D01*
X2822500Y2563604D01*
X2820500Y2557503D01*
X2818500Y2555403D01*
X2814399Y2553404D01*
X1699805Y3060399D02*
G01*
X1699805Y3017500D01*
X1699805Y3060399D02*
G01*
X1718206Y3060399D01*
X1724305Y3058400D01*
X1726405Y3056300D01*
X1728406Y3052199D01*
X1728406Y3048099D01*
X1726405Y3044000D01*
X1724305Y3041999D01*
X1718206Y3040000D01*
X1699805Y3040000D01*
X1714106Y3040000D02*
G01*
X1728406Y3017500D01*
X1762406Y3060399D02*
G01*
X1741905Y3031799D01*
X1772605Y3031799D01*
X1762406Y3060399D02*
G01*
X1762406Y3017500D01*
X1844194Y3055399D02*
G01*
X1844194Y3012500D01*
X1844194Y3055399D02*
G01*
X1862595Y3055399D01*
X1868694Y3053400D01*
X1870794Y3051300D01*
X1872794Y3047199D01*
X1872794Y3043099D01*
X1870794Y3039000D01*
X1868694Y3036999D01*
X1862595Y3035000D01*
X1844194Y3035000D01*
X1858495Y3035000D02*
G01*
X1872794Y3012500D01*
X1910895Y3055399D02*
G01*
X1890394Y3055399D01*
X1888395Y3036999D01*
X1890394Y3039000D01*
X1896594Y3041100D01*
X1902695Y3041100D01*
X1908795Y3039000D01*
X1912894Y3035000D01*
X1914994Y3028800D01*
X1914994Y3024699D01*
X1912894Y3018600D01*
X1908795Y3014499D01*
X1902695Y3012500D01*
X1896594Y3012500D01*
X1890394Y3014499D01*
X1888395Y3016500D01*
X1886295Y3020599D01*
X2445001Y3070399D02*
G01*
X2445001Y3027500D01*
X2445001Y3070399D02*
G01*
X2463401Y3070399D01*
X2469501Y3068400D01*
X2471601Y3066300D01*
X2473600Y3062199D01*
X2473600Y3058099D01*
X2471601Y3054000D01*
X2469501Y3051999D01*
X2463401Y3050000D01*
X2445001Y3050000D01*
X2459300Y3050000D02*
G01*
X2473600Y3027500D01*
X2511701Y3064299D02*
G01*
X2509601Y3068400D01*
X2503500Y3070399D01*
X2499400Y3070399D01*
X2493301Y3068400D01*
X2489201Y3062199D01*
X2487101Y3051999D01*
X2487101Y3041799D01*
X2489201Y3033600D01*
X2493301Y3029499D01*
X2499400Y3027500D01*
X2501500Y3027500D01*
X2507601Y3029499D01*
X2511701Y3033600D01*
X2513701Y3039699D01*
X2513701Y3041799D01*
X2511701Y3047899D01*
X2507601Y3051999D01*
X2501500Y3054000D01*
X2499400Y3054000D01*
X2493301Y3051999D01*
X2489201Y3047899D01*
X2487101Y3041799D01*
X2299194Y3075399D02*
G01*
X2299194Y3032500D01*
X2299194Y3075399D02*
G01*
X2317595Y3075399D01*
X2323694Y3073400D01*
X2325794Y3071300D01*
X2327794Y3067199D01*
X2327794Y3063099D01*
X2325794Y3059000D01*
X2323694Y3056999D01*
X2317595Y3055000D01*
X2299194Y3055000D01*
X2313495Y3055000D02*
G01*
X2327794Y3032500D01*
X2341295Y3067199D02*
G01*
X2345394Y3069299D01*
X2351594Y3075399D01*
X2351594Y3032500D01*
X2389594Y3075399D02*
G01*
X2369194Y3075399D01*
X2367094Y3056999D01*
X2369194Y3059000D01*
X2375294Y3061100D01*
X2381395Y3061100D01*
X2387595Y3059000D01*
X2391694Y3055000D01*
X2393694Y3048800D01*
X2393694Y3044699D01*
X2391694Y3038600D01*
X2387595Y3034499D01*
X2381395Y3032500D01*
X2375294Y3032500D01*
X2369194Y3034499D01*
X2367094Y3036500D01*
X2365095Y3040599D01*
X449807Y3040399D02*
G01*
X449807Y2997500D01*
X449807Y3040399D02*
G01*
X468207Y3040399D01*
X474308Y3038400D01*
X476408Y3036300D01*
X478407Y3032199D01*
X478407Y3028099D01*
X476408Y3024000D01*
X474308Y3021999D01*
X468207Y3020000D01*
X449807Y3020000D01*
X464108Y3020000D02*
G01*
X478407Y2997500D01*
X491907Y3032199D02*
G01*
X496008Y3034299D01*
X502208Y3040399D01*
X502208Y2997500D01*
X540207Y3034299D02*
G01*
X538207Y3038400D01*
X532008Y3040399D01*
X527908Y3040399D01*
X521808Y3038400D01*
X517707Y3032199D01*
X515707Y3021999D01*
X515707Y3011799D01*
X517707Y3003600D01*
X521808Y2999499D01*
X527908Y2997500D01*
X530007Y2997500D01*
X536107Y2999499D01*
X540207Y3003600D01*
X542307Y3009699D01*
X542307Y3011799D01*
X540207Y3017899D01*
X536107Y3021999D01*
X530007Y3024000D01*
X527908Y3024000D01*
X521808Y3021999D01*
X517707Y3017899D01*
X515707Y3011799D01*
X449807Y3240399D02*
G01*
X449807Y3197500D01*
X449807Y3240399D02*
G01*
X468207Y3240399D01*
X474308Y3238400D01*
X476408Y3236300D01*
X478407Y3232199D01*
X478407Y3228099D01*
X476408Y3224000D01*
X474308Y3221999D01*
X468207Y3220000D01*
X449807Y3220000D01*
X464108Y3220000D02*
G01*
X478407Y3197500D01*
X491907Y3232199D02*
G01*
X496008Y3234299D01*
X502208Y3240399D01*
X502208Y3197500D01*
X544308Y3240399D02*
G01*
X523807Y3197500D01*
X515707Y3240399D02*
G01*
X544308Y3240399D01*
X1079805Y3070399D02*
G01*
X1079805Y3027500D01*
X1079805Y3070399D02*
G01*
X1098206Y3070399D01*
X1104305Y3068400D01*
X1106405Y3066300D01*
X1108406Y3062199D01*
X1108406Y3058099D01*
X1106405Y3054000D01*
X1104305Y3051999D01*
X1098206Y3050000D01*
X1079805Y3050000D01*
X1094106Y3050000D02*
G01*
X1108406Y3027500D01*
X1121905Y3062199D02*
G01*
X1126005Y3064299D01*
X1132205Y3070399D01*
X1132205Y3027500D01*
X1155906Y3070399D02*
G01*
X1149805Y3068400D01*
X1147705Y3064299D01*
X1147705Y3060200D01*
X1149805Y3056100D01*
X1153806Y3054000D01*
X1162006Y3051999D01*
X1168206Y3050000D01*
X1172305Y3045900D01*
X1174305Y3041799D01*
X1174305Y3035599D01*
X1172305Y3031500D01*
X1170205Y3029499D01*
X1164106Y3027500D01*
X1155906Y3027500D01*
X1149805Y3029499D01*
X1147705Y3031500D01*
X1145706Y3035599D01*
X1145706Y3041799D01*
X1147705Y3045900D01*
X1151805Y3050000D01*
X1157906Y3051999D01*
X1166105Y3054000D01*
X1170205Y3056100D01*
X1172305Y3060200D01*
X1172305Y3064299D01*
X1170205Y3068400D01*
X1164106Y3070399D01*
X1155906Y3070399D01*
X1215001Y3070399D02*
G01*
X1215001Y3027500D01*
X1215001Y3070399D02*
G01*
X1233401Y3070399D01*
X1239501Y3068400D01*
X1241601Y3066300D01*
X1243600Y3062199D01*
X1243600Y3058099D01*
X1241601Y3054000D01*
X1239501Y3051999D01*
X1233401Y3050000D01*
X1215001Y3050000D01*
X1229300Y3050000D02*
G01*
X1243600Y3027500D01*
X1257101Y3062199D02*
G01*
X1261201Y3064299D01*
X1267400Y3070399D01*
X1267400Y3027500D01*
X1307501Y3056100D02*
G01*
X1305401Y3050000D01*
X1301301Y3045900D01*
X1295200Y3043800D01*
X1293100Y3043800D01*
X1287001Y3045900D01*
X1282901Y3050000D01*
X1280901Y3056100D01*
X1280901Y3058099D01*
X1282901Y3064299D01*
X1287001Y3068400D01*
X1293100Y3070399D01*
X1295200Y3070399D01*
X1301301Y3068400D01*
X1305401Y3064299D01*
X1307501Y3056100D01*
X1307501Y3045900D01*
X1305401Y3035599D01*
X1301301Y3029499D01*
X1295200Y3027500D01*
X1291100Y3027500D01*
X1285001Y3029499D01*
X1282901Y3033600D01*
X2884194Y2970399D02*
G01*
X2884194Y2927500D01*
X2884194Y2970399D02*
G01*
X2902595Y2970399D01*
X2908694Y2968400D01*
X2910794Y2966300D01*
X2912794Y2962199D01*
X2912794Y2958099D01*
X2910794Y2954000D01*
X2908694Y2951999D01*
X2902595Y2950000D01*
X2884194Y2950000D01*
X2898495Y2950000D02*
G01*
X2912794Y2927500D01*
X2928395Y2960200D02*
G01*
X2928395Y2962199D01*
X2930394Y2966300D01*
X2932494Y2968400D01*
X2936594Y2970399D01*
X2944695Y2970399D01*
X2948795Y2968400D01*
X2950895Y2966300D01*
X2952894Y2962199D01*
X2952894Y2958099D01*
X2950895Y2954000D01*
X2946795Y2947899D01*
X2926295Y2927500D01*
X2954994Y2927500D01*
X2980694Y2970399D02*
G01*
X2974594Y2968400D01*
X2970495Y2962199D01*
X2968495Y2951999D01*
X2968495Y2945900D01*
X2970495Y2935599D01*
X2974594Y2929499D01*
X2980694Y2927500D01*
X2984795Y2927500D01*
X2990995Y2929499D01*
X2995095Y2935599D01*
X2997094Y2945900D01*
X2997094Y2951999D01*
X2995095Y2962199D01*
X2990995Y2968400D01*
X2984795Y2970399D01*
X2980694Y2970399D01*
X2900001Y3110399D02*
G01*
X2900001Y3067500D01*
X2900001Y3110399D02*
G01*
X2918401Y3110399D01*
X2924501Y3108400D01*
X2926601Y3106300D01*
X2928600Y3102199D01*
X2928600Y3098099D01*
X2926601Y3094000D01*
X2924501Y3091999D01*
X2918401Y3090000D01*
X2900001Y3090000D01*
X2914300Y3090000D02*
G01*
X2928600Y3067500D01*
X2944201Y3100200D02*
G01*
X2944201Y3102199D01*
X2946201Y3106300D01*
X2948301Y3108400D01*
X2952401Y3110399D01*
X2960501Y3110399D01*
X2964601Y3108400D01*
X2966701Y3106300D01*
X2968701Y3102199D01*
X2968701Y3098099D01*
X2966701Y3094000D01*
X2962601Y3087899D01*
X2942101Y3067500D01*
X2970801Y3067500D01*
X2984300Y3102199D02*
G01*
X2988401Y3104299D01*
X2994501Y3110399D01*
X2994501Y3067500D01*
X2685000Y3155399D02*
G01*
X2685000Y3124699D01*
X2686999Y3118600D01*
X2691099Y3114499D01*
X2697299Y3112500D01*
X2701400Y3112500D01*
X2707500Y3114499D01*
X2711599Y3118600D01*
X2713599Y3124699D01*
X2713599Y3155399D01*
X2755799Y3155399D02*
G01*
X2735299Y3112500D01*
X2727100Y3155399D02*
G01*
X2755799Y3155399D01*
X2850000Y1585399D02*
G01*
X2850000Y1554699D01*
X2851999Y1548600D01*
X2856099Y1544499D01*
X2862299Y1542500D01*
X2866400Y1542500D01*
X2872500Y1544499D01*
X2876599Y1548600D01*
X2878599Y1554699D01*
X2878599Y1585399D01*
X2892100Y1577199D02*
G01*
X2896199Y1579299D01*
X2902399Y1585399D01*
X2902399Y1542500D01*
X2926099Y1585399D02*
G01*
X2920000Y1583400D01*
X2917899Y1579299D01*
X2917899Y1575199D01*
X2920000Y1571100D01*
X2923999Y1569000D01*
X2932200Y1566999D01*
X2938400Y1565000D01*
X2942500Y1560900D01*
X2944499Y1556799D01*
X2944499Y1550599D01*
X2942500Y1546500D01*
X2940399Y1544499D01*
X2934300Y1542500D01*
X2926099Y1542500D01*
X2920000Y1544499D01*
X2917899Y1546500D01*
X2915900Y1550599D01*
X2915900Y1556799D01*
X2917899Y1560900D01*
X2921999Y1565000D01*
X2928100Y1566999D01*
X2936300Y1569000D01*
X2940399Y1571100D01*
X2942500Y1575199D01*
X2942500Y1579299D01*
X2940399Y1583400D01*
X2934300Y1585399D01*
X2926099Y1585399D01*
X2820000Y2095399D02*
G01*
X2820000Y2064699D01*
X2821999Y2058600D01*
X2826099Y2054499D01*
X2832299Y2052500D01*
X2836400Y2052500D01*
X2842500Y2054499D01*
X2846599Y2058600D01*
X2848599Y2064699D01*
X2848599Y2095399D01*
X2862100Y2087199D02*
G01*
X2866199Y2089299D01*
X2872399Y2095399D01*
X2872399Y2052500D01*
X2914499Y2095399D02*
G01*
X2893999Y2052500D01*
X2885900Y2095399D02*
G01*
X2914499Y2095399D01*
X2504600Y1950001D02*
G01*
X2547500Y1950001D01*
X2504600Y1950001D02*
G01*
X2504600Y1968400D01*
X2506599Y1974501D01*
X2508699Y1976601D01*
X2512799Y1978600D01*
X2516899Y1978600D01*
X2521000Y1976601D01*
X2523000Y1974501D01*
X2525000Y1968400D01*
X2525000Y1950001D01*
X2525000Y1964301D02*
G01*
X2547500Y1978600D01*
X2504600Y1996201D02*
G01*
X2504600Y2018701D01*
X2521000Y2006500D01*
X2521000Y2012600D01*
X2523000Y2016700D01*
X2525000Y2018701D01*
X2531199Y2020801D01*
X2535299Y2020801D01*
X2541400Y2018701D01*
X2545500Y2014600D01*
X2547500Y2008501D01*
X2547500Y2002400D01*
X2545500Y1996201D01*
X2543500Y1994200D01*
X2539399Y1992100D01*
X2514799Y2036300D02*
G01*
X2512799Y2036300D01*
X2508699Y2038400D01*
X2506599Y2040401D01*
X2504600Y2044501D01*
X2504600Y2052701D01*
X2506599Y2056801D01*
X2508699Y2058800D01*
X2512799Y2060900D01*
X2516899Y2060900D01*
X2521000Y2058800D01*
X2527100Y2054701D01*
X2547500Y2034301D01*
X2547500Y2062901D01*
X2649600Y2090001D02*
G01*
X2692500Y2090001D01*
X2649600Y2090001D02*
G01*
X2649600Y2108400D01*
X2651599Y2114501D01*
X2653699Y2116601D01*
X2657799Y2118600D01*
X2661899Y2118600D01*
X2666000Y2116601D01*
X2668000Y2114501D01*
X2670000Y2108400D01*
X2670000Y2090001D01*
X2670000Y2104301D02*
G01*
X2692500Y2118600D01*
X2649600Y2136201D02*
G01*
X2649600Y2158701D01*
X2666000Y2146500D01*
X2666000Y2152600D01*
X2668000Y2156700D01*
X2670000Y2158701D01*
X2676199Y2160801D01*
X2680299Y2160801D01*
X2686400Y2158701D01*
X2690500Y2154600D01*
X2692500Y2148501D01*
X2692500Y2142401D01*
X2690500Y2136201D01*
X2688500Y2134200D01*
X2684399Y2132100D01*
X2649600Y2178400D02*
G01*
X2649600Y2200900D01*
X2666000Y2188600D01*
X2666000Y2194701D01*
X2668000Y2198800D01*
X2670000Y2200900D01*
X2676199Y2202901D01*
X2680299Y2202901D01*
X2686400Y2200900D01*
X2690500Y2196801D01*
X2692500Y2190601D01*
X2692500Y2184501D01*
X2690500Y2178400D01*
X2688500Y2176300D01*
X2684399Y2174301D01*
X2654600Y1955001D02*
G01*
X2697500Y1955001D01*
X2654600Y1955001D02*
G01*
X2654600Y1973402D01*
X2656599Y1979502D01*
X2658699Y1981601D01*
X2662799Y1983602D01*
X2666899Y1983602D01*
X2671000Y1981601D01*
X2673000Y1979502D01*
X2675000Y1973402D01*
X2675000Y1955001D01*
X2675000Y1969301D02*
G01*
X2697500Y1983602D01*
X2654600Y2001201D02*
G01*
X2654600Y2023701D01*
X2671000Y2011502D01*
X2671000Y2017602D01*
X2673000Y2021702D01*
X2675000Y2023701D01*
X2681199Y2025801D01*
X2685299Y2025801D01*
X2691400Y2023701D01*
X2695500Y2019601D01*
X2697500Y2013501D01*
X2697500Y2007402D01*
X2695500Y2001201D01*
X2693500Y1999202D01*
X2689399Y1997101D01*
X2654600Y2059702D02*
G01*
X2683199Y2039301D01*
X2683199Y2070001D01*
X2654600Y2059702D02*
G01*
X2697500Y2059702D01*
X2910001Y1955399D02*
G01*
X2910001Y1912500D01*
X2910001Y1955399D02*
G01*
X2928401Y1955399D01*
X2934501Y1953400D01*
X2936601Y1951300D01*
X2938600Y1947199D01*
X2938600Y1943099D01*
X2936601Y1939000D01*
X2934501Y1936999D01*
X2928401Y1935000D01*
X2910001Y1935000D01*
X2924300Y1935000D02*
G01*
X2938600Y1912500D01*
X2956201Y1955399D02*
G01*
X2978701Y1955399D01*
X2966500Y1939000D01*
X2972601Y1939000D01*
X2976701Y1936999D01*
X2978701Y1935000D01*
X2980801Y1928800D01*
X2980801Y1924699D01*
X2978701Y1918600D01*
X2974601Y1914499D01*
X2968500Y1912500D01*
X2962401Y1912500D01*
X2956201Y1914499D01*
X2954201Y1916500D01*
X2952101Y1920599D01*
X3018801Y1955399D02*
G01*
X2998401Y1955399D01*
X2996301Y1936999D01*
X2998401Y1939000D01*
X3004501Y1941100D01*
X3010600Y1941100D01*
X3016800Y1939000D01*
X3020901Y1935000D01*
X3022901Y1928800D01*
X3022901Y1924699D01*
X3020901Y1918600D01*
X3016800Y1914499D01*
X3010600Y1912500D01*
X3004501Y1912500D01*
X2998401Y1914499D01*
X2996301Y1916500D01*
X2994300Y1920599D01*
X2684600Y1590001D02*
G01*
X2727500Y1590001D01*
X2684600Y1590001D02*
G01*
X2684600Y1608400D01*
X2686599Y1614501D01*
X2688699Y1616601D01*
X2692799Y1618600D01*
X2696899Y1618600D01*
X2701000Y1616601D01*
X2703000Y1614501D01*
X2705000Y1608400D01*
X2705000Y1590001D01*
X2705000Y1604301D02*
G01*
X2727500Y1618600D01*
X2684600Y1652600D02*
G01*
X2713199Y1632100D01*
X2713199Y1662800D01*
X2684600Y1652600D02*
G01*
X2727500Y1652600D01*
X2684600Y1688600D02*
G01*
X2686599Y1682501D01*
X2692799Y1678400D01*
X2703000Y1676300D01*
X2709099Y1676300D01*
X2719399Y1678400D01*
X2725500Y1682501D01*
X2727500Y1688600D01*
X2727500Y1692701D01*
X2725500Y1698800D01*
X2719399Y1702901D01*
X2709099Y1705001D01*
X2703000Y1705001D01*
X2692799Y1702901D01*
X2686599Y1698800D01*
X2684600Y1692701D01*
X2684600Y1688600D01*
X2469600Y1465001D02*
G01*
X2512500Y1465001D01*
X2469600Y1465001D02*
G01*
X2469600Y1483400D01*
X2471599Y1489501D01*
X2473699Y1491601D01*
X2477799Y1493600D01*
X2481899Y1493600D01*
X2486000Y1491601D01*
X2488000Y1489501D01*
X2490000Y1483400D01*
X2490000Y1465001D01*
X2490000Y1479301D02*
G01*
X2512500Y1493600D01*
X2469600Y1527600D02*
G01*
X2498199Y1507100D01*
X2498199Y1537800D01*
X2469600Y1527600D02*
G01*
X2512500Y1527600D01*
X2477799Y1551300D02*
G01*
X2475699Y1555401D01*
X2469600Y1561500D01*
X2512500Y1561500D01*
X3134600Y1485001D02*
G01*
X3177500Y1485001D01*
X3134600Y1485001D02*
G01*
X3134600Y1503400D01*
X3136599Y1509501D01*
X3138699Y1511601D01*
X3142799Y1513600D01*
X3146899Y1513600D01*
X3151000Y1511601D01*
X3153000Y1509501D01*
X3155000Y1503400D01*
X3155000Y1485001D01*
X3155000Y1499301D02*
G01*
X3177500Y1513600D01*
X3134600Y1547600D02*
G01*
X3163199Y1527100D01*
X3163199Y1557800D01*
X3134600Y1547600D02*
G01*
X3177500Y1547600D01*
X3144799Y1573400D02*
G01*
X3142799Y1573400D01*
X3138699Y1575401D01*
X3136599Y1577501D01*
X3134600Y1581500D01*
X3134600Y1589701D01*
X3136599Y1593800D01*
X3138699Y1595900D01*
X3142799Y1597901D01*
X3146899Y1597901D01*
X3151000Y1595900D01*
X3157100Y1591801D01*
X3177500Y1571300D01*
X3177500Y1600001D01*
X2775001Y1837557D02*
G01*
X2775001Y1794657D01*
X2775001Y1837557D02*
G01*
X2793401Y1837557D01*
X2799501Y1835558D01*
X2801601Y1833458D01*
X2803600Y1829358D01*
X2803600Y1825257D01*
X2801601Y1821158D01*
X2799501Y1819158D01*
X2793401Y1817157D01*
X2775001Y1817157D01*
X2789300Y1817157D02*
G01*
X2803600Y1794657D01*
X2837601Y1837557D02*
G01*
X2817101Y1808957D01*
X2847800Y1808957D01*
X2837601Y1837557D02*
G01*
X2837601Y1794657D01*
X2865401Y1837557D02*
G01*
X2887901Y1837557D01*
X2875600Y1821158D01*
X2881800Y1821158D01*
X2885901Y1819158D01*
X2887901Y1817157D01*
X2890001Y1810958D01*
X2890001Y1806858D01*
X2887901Y1800758D01*
X2883801Y1796658D01*
X2877700Y1794657D01*
X2871500Y1794657D01*
X2865401Y1796658D01*
X2863401Y1798658D01*
X2861301Y1802757D01*
X2474600Y1595001D02*
G01*
X2517500Y1595001D01*
X2474600Y1595001D02*
G01*
X2474600Y1613400D01*
X2476599Y1619501D01*
X2478699Y1621601D01*
X2482799Y1623600D01*
X2486899Y1623600D01*
X2491000Y1621601D01*
X2493000Y1619501D01*
X2495000Y1613400D01*
X2495000Y1595001D01*
X2495000Y1609301D02*
G01*
X2517500Y1623600D01*
X2474600Y1641201D02*
G01*
X2474600Y1663701D01*
X2491000Y1651500D01*
X2491000Y1657600D01*
X2493000Y1661700D01*
X2495000Y1663701D01*
X2501199Y1665801D01*
X2505299Y1665801D01*
X2511400Y1663701D01*
X2515500Y1659600D01*
X2517500Y1653501D01*
X2517500Y1647400D01*
X2515500Y1641201D01*
X2513500Y1639200D01*
X2509399Y1637100D01*
X2488900Y1705900D02*
G01*
X2495000Y1703800D01*
X2499099Y1699701D01*
X2501199Y1693600D01*
X2501199Y1691500D01*
X2499099Y1685401D01*
X2495000Y1681300D01*
X2488900Y1679301D01*
X2486899Y1679301D01*
X2480699Y1681300D01*
X2476599Y1685401D01*
X2474600Y1691500D01*
X2474600Y1693600D01*
X2476599Y1699701D01*
X2480699Y1703800D01*
X2488900Y1705900D01*
X2499099Y1705900D01*
X2509399Y1703800D01*
X2515500Y1699701D01*
X2517500Y1693600D01*
X2517500Y1689501D01*
X2515500Y1683400D01*
X2511400Y1681300D01*
X239600Y1385000D02*
G01*
X282500Y1385000D01*
X239600Y1385000D02*
G01*
X239600Y1403400D01*
X241599Y1409499D01*
X243699Y1411599D01*
X247800Y1413600D01*
X251900Y1413600D01*
X255999Y1411599D01*
X258000Y1409499D01*
X260000Y1403400D01*
X260000Y1385000D01*
X260000Y1399299D02*
G01*
X282500Y1413600D01*
X239600Y1447600D02*
G01*
X268200Y1427100D01*
X268200Y1457800D01*
X239600Y1447600D02*
G01*
X282500Y1447600D01*
X239600Y1500000D02*
G01*
X282500Y1479499D01*
X239600Y1471300D02*
G01*
X239600Y1500000D01*
X629600Y1305000D02*
G01*
X672500Y1305000D01*
X629600Y1305000D02*
G01*
X629600Y1323400D01*
X631599Y1329499D01*
X633699Y1331599D01*
X637800Y1333600D01*
X641900Y1333600D01*
X645999Y1331599D01*
X648000Y1329499D01*
X650000Y1323400D01*
X650000Y1305000D01*
X650000Y1319299D02*
G01*
X672500Y1333600D01*
X629600Y1367600D02*
G01*
X658200Y1347100D01*
X658200Y1377800D01*
X629600Y1367600D02*
G01*
X672500Y1367600D01*
X629600Y1401500D02*
G01*
X631599Y1395399D01*
X635700Y1393400D01*
X639800Y1393400D01*
X643899Y1395399D01*
X645999Y1399499D01*
X648000Y1407699D01*
X650000Y1413800D01*
X654099Y1417899D01*
X658200Y1420000D01*
X664400Y1420000D01*
X668499Y1417899D01*
X670500Y1415900D01*
X672500Y1409699D01*
X672500Y1401500D01*
X670500Y1395399D01*
X668499Y1393400D01*
X664400Y1391300D01*
X658200Y1391300D01*
X654099Y1393400D01*
X650000Y1397500D01*
X648000Y1403600D01*
X645999Y1411799D01*
X643899Y1415900D01*
X639800Y1417899D01*
X635700Y1417899D01*
X631599Y1415900D01*
X629600Y1409699D01*
X629600Y1401500D01*
X475000Y1565399D02*
G01*
X475000Y1534699D01*
X476999Y1528600D01*
X481100Y1524499D01*
X487300Y1522500D01*
X491399Y1522500D01*
X497500Y1524499D01*
X501599Y1528600D01*
X503600Y1534699D01*
X503600Y1565399D01*
X519200Y1555199D02*
G01*
X519200Y1557199D01*
X521199Y1561300D01*
X523299Y1563400D01*
X527399Y1565399D01*
X535500Y1565399D01*
X539600Y1563400D01*
X541700Y1561300D01*
X543699Y1557199D01*
X543699Y1553099D01*
X541700Y1549000D01*
X537600Y1542899D01*
X517100Y1522500D01*
X545799Y1522500D01*
X559299Y1557199D02*
G01*
X563400Y1559299D01*
X569499Y1565399D01*
X569499Y1522500D01*
G36*
X2429160Y1228020D02*
G01*
X2429160Y1210020D01*
X2457260Y1210020D01*
X2457260Y1228020D01*
G37*
G36*
X2302740Y1228020D02*
G01*
X2302740Y1210020D01*
X2330840Y1210020D01*
X2330840Y1228020D01*
G37*
G36*
X1644160Y1219780D02*
G01*
X1644160Y1201780D01*
X1672260Y1201780D01*
X1672260Y1219780D01*
G37*
G36*
X1517740Y1219780D02*
G01*
X1517740Y1201780D01*
X1545840Y1201780D01*
X1545840Y1219780D01*
G37*
D12*
X2699724Y2270738D02*
G01*
X2699724Y2239241D01*
X2656033Y2282937D02*
G01*
X2687529Y2282937D01*
X2656033Y2227046D02*
G01*
X2687529Y2227046D01*
X2633361Y2283166D02*
G01*
X2601864Y2283166D01*
X2589666Y2270969D02*
G01*
X2589666Y2239474D01*
X2633361Y2227276D02*
G01*
X2601864Y2227276D01*
X2739724Y1760738D02*
G01*
X2739724Y1729241D01*
X2696033Y1772937D02*
G01*
X2727529Y1772937D01*
X2696033Y1717046D02*
G01*
X2727529Y1717046D01*
X2673361Y1773166D02*
G01*
X2641864Y1773166D01*
X2629666Y1760969D02*
G01*
X2629666Y1729474D01*
X2673361Y1717276D02*
G01*
X2641864Y1717276D01*
D11*
X2436306Y825572D02*
G01*
X2380794Y825572D01*
X2380794Y754423D02*
G01*
X2436306Y754423D01*
X2442307Y760423D02*
G01*
X2442307Y819573D01*
X2293693Y825572D02*
G01*
X2349205Y825572D01*
X2349205Y754423D02*
G01*
X2293693Y754423D01*
X2287692Y760423D02*
G01*
X2287692Y819573D01*
D12*
X2085739Y855275D02*
G01*
X2054242Y855275D01*
X2097938Y898966D02*
G01*
X2097938Y867471D01*
X2042046Y898966D02*
G01*
X2042046Y867471D01*
X2098167Y921639D02*
G01*
X2098167Y953135D01*
X2085968Y965333D02*
G01*
X2054474Y965333D01*
X2042277Y921639D02*
G01*
X2042277Y953135D01*
X1254260Y971455D02*
G01*
X1285757Y971455D01*
X1242061Y927764D02*
G01*
X1242061Y959259D01*
X1297953Y927764D02*
G01*
X1297953Y959259D01*
X1241832Y905091D02*
G01*
X1241832Y873595D01*
X1254031Y861397D02*
G01*
X1285525Y861397D01*
X1297722Y905091D02*
G01*
X1297722Y873595D01*
D11*
X1676306Y825574D02*
G01*
X1620794Y825574D01*
X1620794Y754425D02*
G01*
X1676306Y754425D01*
X1682307Y760425D02*
G01*
X1682307Y819574D01*
X1533693Y825574D02*
G01*
X1589205Y825574D01*
X1589205Y754425D02*
G01*
X1533693Y754425D01*
X1527692Y760425D02*
G01*
X1527692Y819574D01*
D12*
X3090739Y2090275D02*
G01*
X3059242Y2090275D01*
X3102938Y2133966D02*
G01*
X3102938Y2102471D01*
X3047046Y2133966D02*
G01*
X3047046Y2102471D01*
X3103167Y2156639D02*
G01*
X3103167Y2188135D01*
X3090968Y2200333D02*
G01*
X3059474Y2200333D01*
X3047277Y2156639D02*
G01*
X3047277Y2188135D01*
X2719260Y1964724D02*
G01*
X2750757Y1964724D01*
X2707061Y1921033D02*
G01*
X2707061Y1952528D01*
X2762953Y1921033D02*
G01*
X2762953Y1952528D01*
X2706832Y1898360D02*
G01*
X2706832Y1866864D01*
X2719031Y1854666D02*
G01*
X2750526Y1854666D01*
X2762722Y1898360D02*
G01*
X2762722Y1866864D01*
X3105739Y1640275D02*
G01*
X3074242Y1640275D01*
X3117938Y1683966D02*
G01*
X3117938Y1652471D01*
X3062046Y1683966D02*
G01*
X3062046Y1652471D01*
X3118167Y1706639D02*
G01*
X3118167Y1738135D01*
X3105968Y1750333D02*
G01*
X3074474Y1750333D01*
X3062277Y1706639D02*
G01*
X3062277Y1738135D01*
X2684260Y1564724D02*
G01*
X2715757Y1564724D01*
X2672061Y1521033D02*
G01*
X2672061Y1552528D01*
X2727953Y1521033D02*
G01*
X2727953Y1552528D01*
X2671832Y1498360D02*
G01*
X2671832Y1466864D01*
X2684031Y1454666D02*
G01*
X2715526Y1454666D01*
X2727722Y1498360D02*
G01*
X2727722Y1466864D01*
D13*
X2454260Y1145000D02*
G01*
X2305739Y1145000D01*
D11*
X2454260Y1213020D02*
G01*
X2454260Y996979D01*
X2305739Y1213020D02*
G01*
X2305739Y996979D01*
X2454260Y996979D02*
G01*
X2431157Y996979D01*
X2305739Y996979D02*
G01*
X2328842Y996979D01*
D13*
X1669260Y1136752D02*
G01*
X1520739Y1136752D01*
D11*
X1669260Y1204773D02*
G01*
X1669260Y988733D01*
X1520739Y1204773D02*
G01*
X1520739Y988733D01*
X1669260Y988733D02*
G01*
X1646157Y988733D01*
X1520739Y988733D02*
G01*
X1543842Y988733D01*
D14*
X2143504Y1218269D02*
G01*
X2186486Y1218267D01*
X2143504Y1001730D02*
G01*
X2186486Y1001732D01*
X1343504Y1230000D02*
G01*
X1386486Y1229998D01*
X1343504Y1013461D02*
G01*
X1386486Y1013463D01*
D12*
X2527637Y924600D02*
G01*
X2512637Y924600D01*
X2497637Y924600D01*
X2512637Y924600D01*
X2687637Y845000D02*
G01*
X2477637Y845000D01*
X2477637Y1225000D01*
X2687637Y1225000D01*
X2687637Y845000D01*
X2681577Y847989D02*
G01*
X2673707Y847989D01*
X2673707Y877989D01*
X2681577Y877989D01*
X2681577Y847989D01*
X2681577Y1191999D02*
G01*
X2673707Y1191999D01*
X2673707Y1221999D01*
X2681577Y1221999D01*
X2681577Y1191999D01*
D11*
X2171252Y826635D02*
G01*
X2120663Y826635D01*
X2120663Y754423D01*
X2171252Y754423D01*
X2208747Y826635D02*
G01*
X2259336Y826635D01*
X2259336Y754423D01*
X2208747Y754423D01*
X1381252Y826635D02*
G01*
X1330663Y826635D01*
X1330663Y754423D01*
X1381252Y754423D01*
X1418747Y826635D02*
G01*
X1469336Y826635D01*
X1469336Y754423D01*
X1418747Y754423D01*
D12*
X1742637Y929600D02*
G01*
X1727637Y929600D01*
X1712637Y929600D01*
X1727637Y929600D01*
X1902637Y850000D02*
G01*
X1692637Y850000D01*
X1692637Y1230000D01*
X1902637Y1230000D01*
X1902637Y850000D01*
X1896577Y852989D02*
G01*
X1888707Y852989D01*
X1888707Y882989D01*
X1896577Y882989D01*
X1896577Y852989D01*
X1896577Y1196999D02*
G01*
X1888707Y1196999D01*
X1888707Y1226999D01*
X1896577Y1226999D01*
X1896577Y1196999D01*
D11*
X2159992Y854402D02*
G01*
X2230007Y854402D01*
X2159992Y975598D02*
G01*
X2230007Y975598D01*
D12*
X3262287Y785000D02*
G01*
X3305000Y785000D01*
X3315000Y785000D01*
X3315000Y1185000D01*
X3262287Y1185000D01*
X3196844Y1185000D02*
G01*
X3102642Y1185000D01*
X3102642Y785000D02*
G01*
X3196844Y785000D01*
D11*
X1374992Y846132D02*
G01*
X1445007Y846132D01*
X1374992Y967328D02*
G01*
X1445007Y967328D01*
X2503991Y2253220D02*
G01*
X2503991Y2215468D01*
X2556008Y2215468D01*
X2556008Y2253220D01*
X2503991Y2286779D02*
G01*
X2503991Y2324531D01*
X2556008Y2324531D01*
X2556008Y2286779D01*
X2811779Y2231149D02*
G01*
X2849530Y2231149D01*
X2849530Y2283166D01*
X2811779Y2283166D01*
X2778220Y2231149D02*
G01*
X2740469Y2231149D01*
X2740469Y2283166D01*
X2778220Y2283166D01*
X2951779Y2231149D02*
G01*
X2989530Y2231149D01*
X2989530Y2283166D01*
X2951779Y2283166D01*
X2918220Y2231149D02*
G01*
X2880469Y2231149D01*
X2880469Y2283166D01*
X2918220Y2283166D01*
X2533991Y1773220D02*
G01*
X2533991Y1735468D01*
X2586008Y1735468D01*
X2586008Y1773220D01*
X2533991Y1806779D02*
G01*
X2533991Y1844531D01*
X2586008Y1844531D01*
X2586008Y1806779D01*
X2991779Y1721149D02*
G01*
X3029530Y1721149D01*
X3029530Y1773166D01*
X2991779Y1773166D01*
X2958220Y1721149D02*
G01*
X2920469Y1721149D01*
X2920469Y1773166D01*
X2958220Y1773166D01*
D12*
X1495739Y2700275D02*
G01*
X1464242Y2700275D01*
X1507938Y2743966D02*
G01*
X1507938Y2712471D01*
X1452046Y2743966D02*
G01*
X1452046Y2712471D01*
X1508167Y2766639D02*
G01*
X1508167Y2798135D01*
X1495968Y2810333D02*
G01*
X1464474Y2810333D01*
X1452277Y2766639D02*
G01*
X1452277Y2798135D01*
X1969724Y2840738D02*
G01*
X1969724Y2809241D01*
X1926033Y2852937D02*
G01*
X1957529Y2852937D01*
X1926033Y2797046D02*
G01*
X1957529Y2797046D01*
X1903361Y2853166D02*
G01*
X1871864Y2853166D01*
X1859666Y2840969D02*
G01*
X1859666Y2809474D01*
X1903361Y2797276D02*
G01*
X1871864Y2797276D01*
D11*
X2151008Y1772775D02*
G01*
X2151008Y1810527D01*
X2098991Y1810527D01*
X2098991Y1772775D01*
X2151008Y1739216D02*
G01*
X2151008Y1701464D01*
X2098991Y1701464D01*
X2098991Y1739216D01*
X1541008Y1772775D02*
G01*
X1541008Y1810527D01*
X1488991Y1810527D01*
X1488991Y1772775D01*
X1541008Y1739216D02*
G01*
X1541008Y1701464D01*
X1488991Y1701464D01*
X1488991Y1739216D01*
X508991Y2003220D02*
G01*
X508991Y1965468D01*
X561008Y1965468D01*
X561008Y2003220D01*
X508991Y2036779D02*
G01*
X508991Y2074531D01*
X561008Y2074531D01*
X561008Y2036779D01*
X1836008Y2500976D02*
G01*
X1836008Y2538728D01*
X1783991Y2538728D01*
X1783991Y2500976D01*
X1836008Y2467417D02*
G01*
X1836008Y2429666D01*
X1783991Y2429666D01*
X1783991Y2467417D01*
X2336008Y2500976D02*
G01*
X2336008Y2538728D01*
X2283991Y2538728D01*
X2283991Y2500976D01*
X2336008Y2467417D02*
G01*
X2336008Y2429666D01*
X2283991Y2429666D01*
X2283991Y2467417D01*
D12*
X584261Y3459724D02*
G01*
X615758Y3459724D01*
X572062Y3416033D02*
G01*
X572062Y3447528D01*
X627953Y3416033D02*
G01*
X627953Y3447528D01*
X571833Y3393361D02*
G01*
X571833Y3361864D01*
X584031Y3349666D02*
G01*
X615525Y3349666D01*
X627723Y3393361D02*
G01*
X627723Y3361864D01*
X940739Y3570275D02*
G01*
X909242Y3570275D01*
X952938Y3613966D02*
G01*
X952938Y3582471D01*
X897046Y3613966D02*
G01*
X897046Y3582471D01*
X953167Y3636639D02*
G01*
X953167Y3668135D01*
X940968Y3680333D02*
G01*
X909474Y3680333D01*
X897277Y3636639D02*
G01*
X897277Y3668135D01*
X1964664Y3624261D02*
G01*
X1964664Y3655758D01*
X2008355Y3612062D02*
G01*
X1976859Y3612062D01*
X2008355Y3667953D02*
G01*
X1976859Y3667953D01*
X2031027Y3611833D02*
G01*
X2062524Y3611833D01*
X2074722Y3624031D02*
G01*
X2074722Y3655526D01*
X2031027Y3667723D02*
G01*
X2062524Y3667723D01*
X1977093Y3429724D02*
G01*
X2008590Y3429724D01*
X1964894Y3386033D02*
G01*
X1964894Y3417528D01*
X2020785Y3386033D02*
G01*
X2020785Y3417528D01*
X1964665Y3363361D02*
G01*
X1964665Y3331864D01*
X1976863Y3319666D02*
G01*
X2008357Y3319666D01*
X2020555Y3363361D02*
G01*
X2020555Y3331864D01*
X1684476Y1949115D02*
G01*
X1715973Y1949115D01*
X1672277Y1905423D02*
G01*
X1672277Y1936918D01*
X1728168Y1905423D02*
G01*
X1728168Y1936918D01*
X1672048Y1882750D02*
G01*
X1672048Y1851255D01*
X1684246Y1839056D02*
G01*
X1715740Y1839056D01*
X1727938Y1882750D02*
G01*
X1727938Y1851255D01*
X1855739Y1839665D02*
G01*
X1824242Y1839665D01*
X1867938Y1883355D02*
G01*
X1867938Y1851860D01*
X1812046Y1883355D02*
G01*
X1812046Y1851860D01*
X1868167Y1906028D02*
G01*
X1868167Y1937525D01*
X1855968Y1949722D02*
G01*
X1824474Y1949722D01*
X1812277Y1906028D02*
G01*
X1812277Y1937525D01*
X1196423Y1949115D02*
G01*
X1227920Y1949115D01*
X1184224Y1905423D02*
G01*
X1184224Y1936918D01*
X1240117Y1905423D02*
G01*
X1240117Y1936918D01*
X1183995Y1882750D02*
G01*
X1183995Y1851255D01*
X1196193Y1839056D02*
G01*
X1227689Y1839056D01*
X1239885Y1882750D02*
G01*
X1239885Y1851255D01*
X1056638Y1949115D02*
G01*
X1088136Y1949115D01*
X1044440Y1905423D02*
G01*
X1044440Y1936918D01*
X1100331Y1905423D02*
G01*
X1100331Y1936918D01*
X1044210Y1882750D02*
G01*
X1044210Y1851255D01*
X1056409Y1839056D02*
G01*
X1087903Y1839056D01*
X1100101Y1882750D02*
G01*
X1100101Y1851255D01*
X409261Y1984724D02*
G01*
X440758Y1984724D01*
X397062Y1941033D02*
G01*
X397062Y1972528D01*
X452953Y1941033D02*
G01*
X452953Y1972528D01*
X396833Y1918360D02*
G01*
X396833Y1886864D01*
X409030Y1874666D02*
G01*
X440525Y1874666D01*
X452723Y1918360D02*
G01*
X452723Y1886864D01*
X799260Y2299724D02*
G01*
X830757Y2299724D01*
X787061Y2256033D02*
G01*
X787061Y2287528D01*
X842953Y2256033D02*
G01*
X842953Y2287528D01*
X786832Y2233361D02*
G01*
X786832Y2201864D01*
X799031Y2189666D02*
G01*
X830525Y2189666D01*
X842722Y2233361D02*
G01*
X842722Y2201864D01*
X1495739Y2555275D02*
G01*
X1464242Y2555275D01*
X1507938Y2598966D02*
G01*
X1507938Y2567471D01*
X1452046Y2598966D02*
G01*
X1452046Y2567471D01*
X1508167Y2621639D02*
G01*
X1508167Y2653135D01*
X1495968Y2665333D02*
G01*
X1464474Y2665333D01*
X1452277Y2621639D02*
G01*
X1452277Y2653135D01*
X1575739Y2555275D02*
G01*
X1544242Y2555275D01*
X1587938Y2598966D02*
G01*
X1587938Y2567471D01*
X1532046Y2598966D02*
G01*
X1532046Y2567471D01*
X1588167Y2621639D02*
G01*
X1588167Y2653135D01*
X1575968Y2665333D02*
G01*
X1544474Y2665333D01*
X1532277Y2621639D02*
G01*
X1532277Y2653135D01*
X2060739Y2580275D02*
G01*
X2029242Y2580275D01*
X2072938Y2623966D02*
G01*
X2072938Y2592471D01*
X2017046Y2623966D02*
G01*
X2017046Y2592471D01*
X2073167Y2646639D02*
G01*
X2073167Y2678135D01*
X2060968Y2690333D02*
G01*
X2029474Y2690333D01*
X2017277Y2646639D02*
G01*
X2017277Y2678135D01*
X1949260Y2724724D02*
G01*
X1980757Y2724724D01*
X1937061Y2681033D02*
G01*
X1937061Y2712528D01*
X1992953Y2681033D02*
G01*
X1992953Y2712528D01*
X1936832Y2658361D02*
G01*
X1936832Y2626864D01*
X1949031Y2614666D02*
G01*
X1980525Y2614666D01*
X1992722Y2658361D02*
G01*
X1992722Y2626864D01*
X404261Y2379531D02*
G01*
X435758Y2379531D01*
X392062Y2335841D02*
G01*
X392062Y2367336D01*
X447953Y2335841D02*
G01*
X447953Y2367336D01*
X391833Y2313168D02*
G01*
X391833Y2281671D01*
X404030Y2269474D02*
G01*
X435525Y2269474D01*
X447723Y2313168D02*
G01*
X447723Y2281671D01*
X435275Y2709261D02*
G01*
X435275Y2740758D01*
X478966Y2697062D02*
G01*
X447471Y2697062D01*
X478966Y2752953D02*
G01*
X447471Y2752953D01*
X501639Y2696833D02*
G01*
X533135Y2696833D01*
X545333Y2709031D02*
G01*
X545333Y2740526D01*
X501639Y2752723D02*
G01*
X533135Y2752723D01*
X929260Y2689724D02*
G01*
X960757Y2689724D01*
X917061Y2646033D02*
G01*
X917061Y2677528D01*
X972953Y2646033D02*
G01*
X972953Y2677528D01*
X916832Y2623361D02*
G01*
X916832Y2591864D01*
X929031Y2579666D02*
G01*
X960525Y2579666D01*
X972722Y2623361D02*
G01*
X972722Y2591864D01*
X1014260Y2689724D02*
G01*
X1045757Y2689724D01*
X1002061Y2646033D02*
G01*
X1002061Y2677528D01*
X1057953Y2646033D02*
G01*
X1057953Y2677528D01*
X1001832Y2623361D02*
G01*
X1001832Y2591864D01*
X1014031Y2579666D02*
G01*
X1045525Y2579666D01*
X1057722Y2623361D02*
G01*
X1057722Y2591864D01*
X2429665Y3624472D02*
G01*
X2429665Y3655970D01*
X2473356Y3612274D02*
G01*
X2441860Y3612274D01*
X2473356Y3668166D02*
G01*
X2441860Y3668166D01*
X2496028Y3612044D02*
G01*
X2527524Y3612044D01*
X2539723Y3624243D02*
G01*
X2539723Y3655738D01*
X2496028Y3667935D02*
G01*
X2527524Y3667935D01*
X2124260Y3429724D02*
G01*
X2155757Y3429724D01*
X2112061Y3386033D02*
G01*
X2112061Y3417528D01*
X2167953Y3386033D02*
G01*
X2167953Y3417528D01*
X2111832Y3363361D02*
G01*
X2111832Y3331864D01*
X2124031Y3319666D02*
G01*
X2155526Y3319666D01*
X2167722Y3363361D02*
G01*
X2167722Y3331864D01*
X3075739Y3575275D02*
G01*
X3044242Y3575275D01*
X3087938Y3618966D02*
G01*
X3087938Y3587471D01*
X3032046Y3618966D02*
G01*
X3032046Y3587471D01*
X3088167Y3641639D02*
G01*
X3088167Y3673135D01*
X3075968Y3685333D02*
G01*
X3044474Y3685333D01*
X3032277Y3641639D02*
G01*
X3032277Y3673135D01*
X2699260Y3424724D02*
G01*
X2730757Y3424724D01*
X2687061Y3381033D02*
G01*
X2687061Y3412528D01*
X2742953Y3381033D02*
G01*
X2742953Y3412528D01*
X2686832Y3358361D02*
G01*
X2686832Y3326864D01*
X2699031Y3314666D02*
G01*
X2730526Y3314666D01*
X2742722Y3358361D02*
G01*
X2742722Y3326864D01*
X960739Y2705275D02*
G01*
X929242Y2705275D01*
X972938Y2748966D02*
G01*
X972938Y2717471D01*
X917046Y2748966D02*
G01*
X917046Y2717471D01*
X973167Y2771639D02*
G01*
X973167Y2803135D01*
X960968Y2815333D02*
G01*
X929474Y2815333D01*
X917277Y2771639D02*
G01*
X917277Y2803135D01*
X619261Y2569724D02*
G01*
X650758Y2569724D01*
X607062Y2526033D02*
G01*
X607062Y2557528D01*
X662953Y2526033D02*
G01*
X662953Y2557528D01*
X606833Y2503361D02*
G01*
X606833Y2471864D01*
X619031Y2459666D02*
G01*
X650525Y2459666D01*
X662723Y2503361D02*
G01*
X662723Y2471864D01*
X1159260Y2539724D02*
G01*
X1190757Y2539724D01*
X1147061Y2496033D02*
G01*
X1147061Y2527528D01*
X1202953Y2496033D02*
G01*
X1202953Y2527528D01*
X1146832Y2473361D02*
G01*
X1146832Y2441864D01*
X1159031Y2429666D02*
G01*
X1190525Y2429666D01*
X1202722Y2473361D02*
G01*
X1202722Y2441864D01*
X1649260Y2539724D02*
G01*
X1680757Y2539724D01*
X1637061Y2496033D02*
G01*
X1637061Y2527528D01*
X1692953Y2496033D02*
G01*
X1692953Y2527528D01*
X1636832Y2473361D02*
G01*
X1636832Y2441864D01*
X1649031Y2429666D02*
G01*
X1680525Y2429666D01*
X1692722Y2473361D02*
G01*
X1692722Y2441864D01*
X2465739Y2695275D02*
G01*
X2434242Y2695275D01*
X2477938Y2738966D02*
G01*
X2477938Y2707471D01*
X2422046Y2738966D02*
G01*
X2422046Y2707471D01*
X2478167Y2761639D02*
G01*
X2478167Y2793135D01*
X2465968Y2805333D02*
G01*
X2434474Y2805333D01*
X2422277Y2761639D02*
G01*
X2422277Y2793135D01*
X2124260Y2539726D02*
G01*
X2155757Y2539726D01*
X2112061Y2496035D02*
G01*
X2112061Y2527530D01*
X2167953Y2496035D02*
G01*
X2167953Y2527530D01*
X2111832Y2473362D02*
G01*
X2111832Y2441867D01*
X2124031Y2429668D02*
G01*
X2155526Y2429668D01*
X2167722Y2473362D02*
G01*
X2167722Y2441867D01*
X830523Y2320275D02*
G01*
X799026Y2320275D01*
X842722Y2363966D02*
G01*
X842722Y2332471D01*
X786831Y2363966D02*
G01*
X786831Y2332471D01*
X842951Y2386639D02*
G01*
X842951Y2418135D01*
X830753Y2430333D02*
G01*
X799259Y2430333D01*
X787061Y2386639D02*
G01*
X787061Y2418135D01*
X1087902Y1980275D02*
G01*
X1056405Y1980275D01*
X1100101Y2023966D02*
G01*
X1100101Y1992471D01*
X1044209Y2023966D02*
G01*
X1044209Y1992471D01*
X1100330Y2046639D02*
G01*
X1100330Y2078135D01*
X1088131Y2090333D02*
G01*
X1056637Y2090333D01*
X1044440Y2046639D02*
G01*
X1044440Y2078135D01*
X485275Y2134261D02*
G01*
X485275Y2165758D01*
X528966Y2122062D02*
G01*
X497471Y2122062D01*
X528966Y2177953D02*
G01*
X497471Y2177953D01*
X551639Y2121833D02*
G01*
X583135Y2121833D01*
X595333Y2134031D02*
G01*
X595333Y2165526D01*
X551639Y2177723D02*
G01*
X583135Y2177723D01*
X684261Y1834724D02*
G01*
X715758Y1834724D01*
X672062Y1791033D02*
G01*
X672062Y1822528D01*
X727953Y1791033D02*
G01*
X727953Y1822528D01*
X671833Y1768360D02*
G01*
X671833Y1736864D01*
X684031Y1724666D02*
G01*
X715525Y1724666D01*
X727723Y1768360D02*
G01*
X727723Y1736864D01*
X1715739Y1991078D02*
G01*
X1684242Y1991078D01*
X1727938Y2034769D02*
G01*
X1727938Y2003274D01*
X1672046Y2034769D02*
G01*
X1672046Y2003274D01*
X1728167Y2057442D02*
G01*
X1728167Y2088937D01*
X1715968Y2101136D02*
G01*
X1684474Y2101136D01*
X1672277Y2057442D02*
G01*
X1672277Y2088937D01*
X1334260Y1810527D02*
G01*
X1365757Y1810527D01*
X1322061Y1766837D02*
G01*
X1322061Y1798332D01*
X1377953Y1766837D02*
G01*
X1377953Y1798332D01*
X1321832Y1744164D02*
G01*
X1321832Y1712667D01*
X1334031Y1700470D02*
G01*
X1365525Y1700470D01*
X1377722Y1744164D02*
G01*
X1377722Y1712667D01*
X2305739Y1980275D02*
G01*
X2274242Y1980275D01*
X2317938Y2023966D02*
G01*
X2317938Y1992471D01*
X2262046Y2023966D02*
G01*
X2262046Y1992471D01*
X2318167Y2046639D02*
G01*
X2318167Y2078135D01*
X2305968Y2090333D02*
G01*
X2274474Y2090333D01*
X2262277Y2046639D02*
G01*
X2262277Y2078135D01*
X1964260Y1810527D02*
G01*
X1995757Y1810527D01*
X1952061Y1766837D02*
G01*
X1952061Y1798332D01*
X2007953Y1766837D02*
G01*
X2007953Y1798332D01*
X1951832Y1744164D02*
G01*
X1951832Y1712667D01*
X1964031Y1700470D02*
G01*
X1995525Y1700470D01*
X2007722Y1744164D02*
G01*
X2007722Y1712667D01*
X2549260Y3424724D02*
G01*
X2580757Y3424724D01*
X2537061Y3381033D02*
G01*
X2537061Y3412528D01*
X2592953Y3381033D02*
G01*
X2592953Y3412528D01*
X2536832Y3358361D02*
G01*
X2536832Y3326864D01*
X2549031Y3314666D02*
G01*
X2580526Y3314666D01*
X2592722Y3358361D02*
G01*
X2592722Y3326864D01*
X2675531Y3655740D02*
G01*
X2675531Y3624243D01*
X2631840Y3667939D02*
G01*
X2663334Y3667939D01*
X2631840Y3612048D02*
G01*
X2663334Y3612048D01*
X2609166Y3668168D02*
G01*
X2577671Y3668168D01*
X2565473Y3655970D02*
G01*
X2565473Y3624475D01*
X2609166Y3612278D02*
G01*
X2577671Y3612278D01*
D11*
X721779Y3708991D02*
G01*
X759531Y3708991D01*
X759531Y3761008D01*
X721779Y3761008D01*
X688220Y3708991D02*
G01*
X650468Y3708991D01*
X650468Y3761008D01*
X688220Y3761008D01*
X2636779Y3513991D02*
G01*
X2674530Y3513991D01*
X2674530Y3566008D01*
X2636779Y3566008D01*
X2603220Y3513991D02*
G01*
X2565469Y3513991D01*
X2565469Y3566008D01*
X2603220Y3566008D01*
X1815940Y2029825D02*
G01*
X1815940Y1992074D01*
X1867956Y1992074D01*
X1867956Y2029825D01*
X1815940Y2063386D02*
G01*
X1815940Y2101136D01*
X1867956Y2101136D01*
X1867956Y2063386D01*
X1183991Y2029825D02*
G01*
X1183991Y1992074D01*
X1236008Y1992074D01*
X1236008Y2029825D01*
X1183991Y2063386D02*
G01*
X1183991Y2101136D01*
X1236008Y2101136D01*
X1236008Y2063386D01*
X451008Y1811779D02*
G01*
X451008Y1849531D01*
X398991Y1849531D01*
X398991Y1811779D01*
X451008Y1778220D02*
G01*
X451008Y1740468D01*
X398991Y1740468D01*
X398991Y1778220D01*
X1056008Y2781779D02*
G01*
X1056008Y2819531D01*
X1003991Y2819531D01*
X1003991Y2781779D01*
X1056008Y2748220D02*
G01*
X1056008Y2710468D01*
X1003991Y2710468D01*
X1003991Y2748220D01*
X1116008Y2500976D02*
G01*
X1116008Y2538728D01*
X1063991Y2538728D01*
X1063991Y2500976D01*
X1116008Y2467417D02*
G01*
X1116008Y2429666D01*
X1063991Y2429666D01*
X1063991Y2467417D01*
X1532043Y2743220D02*
G01*
X1532043Y2705468D01*
X1584059Y2705468D01*
X1584059Y2743220D01*
X1532043Y2776779D02*
G01*
X1532043Y2814531D01*
X1584059Y2814531D01*
X1584059Y2776779D01*
X506586Y2558991D02*
G01*
X544337Y2558991D01*
X544337Y2611008D01*
X506586Y2611008D01*
X473027Y2558991D02*
G01*
X435275Y2558991D01*
X435275Y2611008D01*
X473027Y2611008D01*
X2018991Y2753220D02*
G01*
X2018991Y2715468D01*
X2071008Y2715468D01*
X2071008Y2753220D01*
X2018991Y2786779D02*
G01*
X2018991Y2824531D01*
X2071008Y2824531D01*
X2071008Y2786779D01*
X446008Y2216779D02*
G01*
X446008Y2254531D01*
X393991Y2254531D01*
X393991Y2216779D01*
X446008Y2183220D02*
G01*
X446008Y2145468D01*
X393991Y2145468D01*
X393991Y2183220D01*
X2500973Y3513991D02*
G01*
X2538725Y3513991D01*
X2538725Y3566008D01*
X2500973Y3566008D01*
X2467413Y3513991D02*
G01*
X2429663Y3513991D01*
X2429663Y3566008D01*
X2467413Y3566008D01*
X2191703Y3669457D02*
G01*
X2311499Y3669457D01*
X2311499Y3470542D01*
X2191703Y3470542D01*
X2191703Y3669457D01*
X1571703Y3669457D02*
G01*
X1691499Y3669457D01*
X1691499Y3470542D01*
X1571703Y3470542D01*
X1571703Y3669457D01*
X2790101Y3669457D02*
G01*
X2909898Y3669457D01*
X2909898Y3470542D01*
X2790101Y3470542D01*
X2790101Y3669457D01*
X815101Y3234457D02*
G01*
X934898Y3234457D01*
X934898Y3035542D01*
X815101Y3035542D01*
X815101Y3234457D01*
X1431703Y3234457D02*
G01*
X1551499Y3234457D01*
X1551499Y3035542D01*
X1431703Y3035542D01*
X1431703Y3234457D01*
X2040102Y3234457D02*
G01*
X2159898Y3234457D01*
X2159898Y3035542D01*
X2040102Y3035542D01*
X2040102Y3234457D01*
X2780101Y2794457D02*
G01*
X2899898Y2794457D01*
X2899898Y2595542D01*
X2780101Y2595542D01*
X2780101Y2794457D01*
X2190101Y2789457D02*
G01*
X2309898Y2789457D01*
X2309898Y2590542D01*
X2190101Y2590542D01*
X2190101Y2789457D01*
X1715101Y2779457D02*
G01*
X1834898Y2779457D01*
X1834898Y2580542D01*
X1715101Y2580542D01*
X1715101Y2779457D01*
X1225101Y2779457D02*
G01*
X1344898Y2779457D01*
X1344898Y2580542D01*
X1225101Y2580542D01*
X1225101Y2779457D01*
X685102Y2779457D02*
G01*
X804898Y2779457D01*
X804898Y2580542D01*
X685102Y2580542D01*
X685102Y2779457D01*
X555102Y2389457D02*
G01*
X674897Y2389457D01*
X674897Y2190542D01*
X555102Y2190542D01*
X555102Y2389457D01*
X745102Y2054457D02*
G01*
X864898Y2054457D01*
X864898Y1855542D01*
X745102Y1855542D01*
X745102Y2054457D01*
X1395101Y2054457D02*
G01*
X1514898Y2054457D01*
X1514898Y1855542D01*
X1395101Y1855542D01*
X1395101Y2054457D01*
X2030101Y2054457D02*
G01*
X2149898Y2054457D01*
X2149898Y1855542D01*
X2030101Y1855542D01*
X2030101Y2054457D01*
D12*
X1362898Y3429724D02*
G01*
X1394395Y3429724D01*
X1350699Y3386033D02*
G01*
X1350699Y3417528D01*
X1406592Y3386033D02*
G01*
X1406592Y3417528D01*
X1350470Y3363361D02*
G01*
X1350470Y3331864D01*
X1362668Y3319666D02*
G01*
X1394164Y3319666D01*
X1406360Y3363361D02*
G01*
X1406360Y3331864D01*
X1820275Y3624261D02*
G01*
X1820275Y3655758D01*
X1863966Y3612062D02*
G01*
X1832470Y3612062D01*
X1863966Y3667953D02*
G01*
X1832470Y3667953D01*
X1886638Y3611833D02*
G01*
X1918135Y3611833D01*
X1930333Y3624031D02*
G01*
X1930333Y3655526D01*
X1886638Y3667723D02*
G01*
X1918135Y3667723D01*
X1504260Y3429724D02*
G01*
X1535757Y3429724D01*
X1492061Y3386033D02*
G01*
X1492061Y3417528D01*
X1547953Y3386033D02*
G01*
X1547953Y3417528D01*
X1491832Y3363361D02*
G01*
X1491832Y3331864D01*
X1504031Y3319666D02*
G01*
X1535525Y3319666D01*
X1547722Y3363361D02*
G01*
X1547722Y3331864D01*
D11*
X1421779Y3513991D02*
G01*
X1459530Y3513991D01*
X1459530Y3566008D01*
X1421779Y3566008D01*
X1388220Y3513991D02*
G01*
X1350469Y3513991D01*
X1350469Y3566008D01*
X1388220Y3566008D01*
X1891584Y3513991D02*
G01*
X1929336Y3513991D01*
X1929336Y3566008D01*
X1891584Y3566008D01*
X1858024Y3513991D02*
G01*
X1820273Y3513991D01*
X1820273Y3566008D01*
X1858024Y3566008D01*
X2035973Y3513991D02*
G01*
X2073725Y3513991D01*
X2073725Y3566008D01*
X2035973Y3566008D01*
X2002413Y3513991D02*
G01*
X1964663Y3513991D01*
X1964663Y3566008D01*
X2002413Y3566008D01*
D12*
X1934724Y3210738D02*
G01*
X1934724Y3179241D01*
X1891033Y3222937D02*
G01*
X1922529Y3222937D01*
X1891033Y3167046D02*
G01*
X1922529Y3167046D01*
X1868361Y3223166D02*
G01*
X1836864Y3223166D01*
X1824666Y3210969D02*
G01*
X1824666Y3179474D01*
X1868361Y3167276D02*
G01*
X1836864Y3167276D01*
X1837093Y2990335D02*
G01*
X1868590Y2990335D01*
X1824894Y2946644D02*
G01*
X1824894Y2978139D01*
X1880785Y2946644D02*
G01*
X1880785Y2978139D01*
X1824665Y2923971D02*
G01*
X1824665Y2892474D01*
X1836863Y2880277D02*
G01*
X1868357Y2880277D01*
X1880555Y2923971D02*
G01*
X1880555Y2892474D01*
X1320531Y3210527D02*
G01*
X1320531Y3179029D01*
X1276840Y3222725D02*
G01*
X1308334Y3222725D01*
X1276840Y3166833D02*
G01*
X1308334Y3166833D01*
X1254166Y3222955D02*
G01*
X1222671Y3222955D01*
X1210473Y3210756D02*
G01*
X1210473Y3179261D01*
X1254166Y3167064D02*
G01*
X1222671Y3167064D01*
X1222898Y2990335D02*
G01*
X1254395Y2990335D01*
X1210699Y2946644D02*
G01*
X1210699Y2978139D01*
X1266592Y2946644D02*
G01*
X1266592Y2978139D01*
X1210470Y2923971D02*
G01*
X1210470Y2892474D01*
X1222668Y2880277D02*
G01*
X1254164Y2880277D01*
X1266360Y2923971D02*
G01*
X1266360Y2892474D01*
X644261Y3104724D02*
G01*
X675758Y3104724D01*
X632062Y3061033D02*
G01*
X632062Y3092528D01*
X687953Y3061033D02*
G01*
X687953Y3092528D01*
X631833Y3038361D02*
G01*
X631833Y3006864D01*
X644031Y2994666D02*
G01*
X675525Y2994666D01*
X687723Y3038361D02*
G01*
X687723Y3006864D01*
X679724Y3170738D02*
G01*
X679724Y3139241D01*
X636033Y3182937D02*
G01*
X667528Y3182937D01*
X636033Y3127046D02*
G01*
X667528Y3127046D01*
X613360Y3183166D02*
G01*
X581864Y3183166D01*
X569666Y3170969D02*
G01*
X569666Y3139474D01*
X613360Y3127276D02*
G01*
X581864Y3127276D01*
X2437898Y2990335D02*
G01*
X2469395Y2990335D01*
X2425699Y2946644D02*
G01*
X2425699Y2978139D01*
X2481592Y2946644D02*
G01*
X2481592Y2978139D01*
X2425470Y2923971D02*
G01*
X2425470Y2892474D01*
X2437668Y2880277D02*
G01*
X2469164Y2880277D01*
X2481360Y2923971D02*
G01*
X2481360Y2892474D01*
X2535531Y3210738D02*
G01*
X2535531Y3179241D01*
X2491840Y3222937D02*
G01*
X2523334Y3222937D01*
X2491840Y3167046D02*
G01*
X2523334Y3167046D01*
X2469166Y3223166D02*
G01*
X2437671Y3223166D01*
X2425473Y3210969D02*
G01*
X2425473Y3179474D01*
X2469166Y3167276D02*
G01*
X2437671Y3167276D01*
X2579260Y2714724D02*
G01*
X2610757Y2714724D01*
X2567061Y2671033D02*
G01*
X2567061Y2702528D01*
X2622953Y2671033D02*
G01*
X2622953Y2702528D01*
X2566832Y2648361D02*
G01*
X2566832Y2616864D01*
X2579031Y2604666D02*
G01*
X2610526Y2604666D01*
X2622722Y2648361D02*
G01*
X2622722Y2616864D01*
X2760739Y2875275D02*
G01*
X2729242Y2875275D01*
X2772938Y2918966D02*
G01*
X2772938Y2887471D01*
X2717046Y2918966D02*
G01*
X2717046Y2887471D01*
X2773167Y2941639D02*
G01*
X2773167Y2973135D01*
X2760968Y2985333D02*
G01*
X2729474Y2985333D01*
X2717277Y2941639D02*
G01*
X2717277Y2973135D01*
X1070275Y3179261D02*
G01*
X1070275Y3210758D01*
X1113966Y3167062D02*
G01*
X1082470Y3167062D01*
X1113966Y3222953D02*
G01*
X1082470Y3222953D01*
X1136638Y3166833D02*
G01*
X1168135Y3166833D01*
X1180333Y3179031D02*
G01*
X1180333Y3210526D01*
X1136638Y3222723D02*
G01*
X1168135Y3222723D01*
X744261Y2990335D02*
G01*
X775757Y2990335D01*
X732062Y2946644D02*
G01*
X732062Y2978139D01*
X787953Y2946644D02*
G01*
X787953Y2978139D01*
X731833Y2923971D02*
G01*
X731833Y2892474D01*
X744031Y2880277D02*
G01*
X775525Y2880277D01*
X787722Y2923971D02*
G01*
X787722Y2892474D01*
X1680275Y3179261D02*
G01*
X1680275Y3210758D01*
X1723966Y3167062D02*
G01*
X1692470Y3167062D01*
X1723966Y3222953D02*
G01*
X1692470Y3222953D01*
X1746638Y3166833D02*
G01*
X1778135Y3166833D01*
X1790333Y3179031D02*
G01*
X1790333Y3210526D01*
X1746638Y3222723D02*
G01*
X1778135Y3222723D01*
X1364260Y2989724D02*
G01*
X1395757Y2989724D01*
X1352061Y2946033D02*
G01*
X1352061Y2977528D01*
X1407953Y2946033D02*
G01*
X1407953Y2977528D01*
X1351832Y2923361D02*
G01*
X1351832Y2891864D01*
X1364031Y2879666D02*
G01*
X1395525Y2879666D01*
X1407722Y2923361D02*
G01*
X1407722Y2891864D01*
X2290275Y3179261D02*
G01*
X2290275Y3210758D01*
X2333966Y3167062D02*
G01*
X2302470Y3167062D01*
X2333966Y3222953D02*
G01*
X2302470Y3222953D01*
X2356638Y3166833D02*
G01*
X2388135Y3166833D01*
X2400333Y3179031D02*
G01*
X2400333Y3210526D01*
X2356638Y3222723D02*
G01*
X2388135Y3222723D01*
X1984260Y2990335D02*
G01*
X2015757Y2990335D01*
X1972061Y2946644D02*
G01*
X1972061Y2978139D01*
X2027953Y2946644D02*
G01*
X2027953Y2978139D01*
X1971832Y2923971D02*
G01*
X1971832Y2892474D01*
X1984031Y2880277D02*
G01*
X2015525Y2880277D01*
X2027722Y2923971D02*
G01*
X2027722Y2892474D01*
X2885275Y3149261D02*
G01*
X2885275Y3180758D01*
X2928966Y3137062D02*
G01*
X2897470Y3137062D01*
X2928966Y3192953D02*
G01*
X2897470Y3192953D01*
X2951638Y3136833D02*
G01*
X2983135Y3136833D01*
X2995333Y3149031D02*
G01*
X2995333Y3180526D01*
X2951638Y3192723D02*
G01*
X2983135Y3192723D01*
X2574260Y2990335D02*
G01*
X2605757Y2990335D01*
X2562061Y2946644D02*
G01*
X2562061Y2978139D01*
X2617953Y2946644D02*
G01*
X2617953Y2978139D01*
X2561832Y2923971D02*
G01*
X2561832Y2892474D01*
X2574031Y2880277D02*
G01*
X2605526Y2880277D01*
X2617722Y2923971D02*
G01*
X2617722Y2892474D01*
X3044260Y2809724D02*
G01*
X3075757Y2809724D01*
X3032061Y2766033D02*
G01*
X3032061Y2797528D01*
X3087953Y2766033D02*
G01*
X3087953Y2797528D01*
X3031832Y2743361D02*
G01*
X3031832Y2711864D01*
X3044031Y2699666D02*
G01*
X3075526Y2699666D01*
X3087722Y2743361D02*
G01*
X3087722Y2711864D01*
X2714260Y2589724D02*
G01*
X2745757Y2589724D01*
X2702061Y2546033D02*
G01*
X2702061Y2577528D01*
X2757953Y2546033D02*
G01*
X2757953Y2577528D01*
X2701832Y2523361D02*
G01*
X2701832Y2491864D01*
X2714031Y2479666D02*
G01*
X2745526Y2479666D01*
X2757722Y2523361D02*
G01*
X2757722Y2491864D01*
D11*
X1751584Y3083991D02*
G01*
X1789336Y3083991D01*
X1789336Y3136008D01*
X1751584Y3136008D01*
X1718024Y3083991D02*
G01*
X1680273Y3083991D01*
X1680273Y3136008D01*
X1718024Y3136008D01*
X1895973Y3083991D02*
G01*
X1933725Y3083991D01*
X1933725Y3136008D01*
X1895973Y3136008D01*
X1862413Y3083991D02*
G01*
X1824663Y3083991D01*
X1824663Y3136008D01*
X1862413Y3136008D01*
X2496779Y3088991D02*
G01*
X2534530Y3088991D01*
X2534530Y3141008D01*
X2496779Y3141008D01*
X2463220Y3088991D02*
G01*
X2425469Y3088991D01*
X2425469Y3141008D01*
X2463220Y3141008D01*
X2360973Y3088991D02*
G01*
X2398725Y3088991D01*
X2398725Y3141008D01*
X2360973Y3141008D01*
X2327413Y3088991D02*
G01*
X2289663Y3088991D01*
X2289663Y3141008D01*
X2327413Y3141008D01*
X473027Y3106008D02*
G01*
X435275Y3106008D01*
X435275Y3053991D01*
X473027Y3053991D01*
X506586Y3106008D02*
G01*
X544337Y3106008D01*
X544337Y3053991D01*
X506586Y3053991D01*
X506586Y3128991D02*
G01*
X544337Y3128991D01*
X544337Y3181008D01*
X506586Y3181008D01*
X473027Y3128991D02*
G01*
X435275Y3128991D01*
X435275Y3181008D01*
X473027Y3181008D01*
X1141584Y3083991D02*
G01*
X1179336Y3083991D01*
X1179336Y3136008D01*
X1141584Y3136008D01*
X1108024Y3083991D02*
G01*
X1070273Y3083991D01*
X1070273Y3136008D01*
X1108024Y3136008D01*
X1281779Y3083991D02*
G01*
X1319530Y3083991D01*
X1319530Y3136008D01*
X1281779Y3136008D01*
X1248220Y3083991D02*
G01*
X1210469Y3083991D01*
X1210469Y3136008D01*
X1248220Y3136008D01*
X2922413Y2916008D02*
G01*
X2884663Y2916008D01*
X2884663Y2863991D01*
X2922413Y2863991D01*
X2955973Y2916008D02*
G01*
X2993725Y2916008D01*
X2993725Y2863991D01*
X2955973Y2863991D01*
X2955973Y2998991D02*
G01*
X2993725Y2998991D01*
X2993725Y3051008D01*
X2955973Y3051008D01*
X2922413Y2998991D02*
G01*
X2884663Y2998991D01*
X2884663Y3051008D01*
X2922413Y3051008D01*
X2650101Y3234457D02*
G01*
X2769898Y3234457D01*
X2769898Y3035542D01*
X2650101Y3035542D01*
X2650101Y3234457D01*
X2835101Y1679457D02*
G01*
X2954898Y1679457D01*
X2954898Y1480542D01*
X2835101Y1480542D01*
X2835101Y1679457D01*
X2805101Y2184457D02*
G01*
X2924898Y2184457D01*
X2924898Y1985542D01*
X2805101Y1985542D01*
X2805101Y2184457D01*
X2503991Y2123220D02*
G01*
X2503991Y2085468D01*
X2556008Y2085468D01*
X2556008Y2123220D01*
X2503991Y2156779D02*
G01*
X2503991Y2194531D01*
X2556008Y2194531D01*
X2556008Y2156779D01*
X2631008Y2161779D02*
G01*
X2631008Y2199531D01*
X2578991Y2199531D01*
X2578991Y2161779D01*
X2631008Y2128220D02*
G01*
X2631008Y2090468D01*
X2578991Y2090468D01*
X2578991Y2128220D01*
X2631008Y2026779D02*
G01*
X2631008Y2064531D01*
X2578991Y2064531D01*
X2578991Y2026779D01*
X2631008Y1993220D02*
G01*
X2631008Y1955468D01*
X2578991Y1955468D01*
X2578991Y1993220D01*
X2856779Y1908991D02*
G01*
X2894530Y1908991D01*
X2894530Y1961008D01*
X2856779Y1961008D01*
X2823220Y1908991D02*
G01*
X2785469Y1908991D01*
X2785469Y1961008D01*
X2823220Y1961008D01*
X2661008Y1661779D02*
G01*
X2661008Y1699531D01*
X2608991Y1699531D01*
X2608991Y1661779D01*
X2661008Y1628220D02*
G01*
X2661008Y1590468D01*
X2608991Y1590468D01*
X2608991Y1628220D01*
X2581008Y1531779D02*
G01*
X2581008Y1569531D01*
X2528991Y1569531D01*
X2528991Y1531779D01*
X2581008Y1498220D02*
G01*
X2581008Y1460468D01*
X2528991Y1460468D01*
X2528991Y1498220D01*
X3116008Y1561779D02*
G01*
X3116008Y1599531D01*
X3063991Y1599531D01*
X3063991Y1561779D01*
X3116008Y1528220D02*
G01*
X3116008Y1490468D01*
X3063991Y1490468D01*
X3063991Y1528220D01*
X2851779Y1721149D02*
G01*
X2889530Y1721149D01*
X2889530Y1773166D01*
X2851779Y1773166D01*
X2818220Y1721149D02*
G01*
X2780469Y1721149D01*
X2780469Y1773166D01*
X2818220Y1773166D01*
X2533991Y1633220D02*
G01*
X2533991Y1595468D01*
X2586008Y1595468D01*
X2586008Y1633220D01*
X2533991Y1666779D02*
G01*
X2533991Y1704531D01*
X2586008Y1704531D01*
X2586008Y1666779D01*
X286008Y1591779D02*
G01*
X286008Y1629531D01*
X233991Y1629531D01*
X233991Y1591779D01*
X286008Y1558220D02*
G01*
X286008Y1520468D01*
X233991Y1520468D01*
X233991Y1558220D01*
X741008Y1386779D02*
G01*
X741008Y1424531D01*
X688991Y1424531D01*
X688991Y1386779D01*
X741008Y1353220D02*
G01*
X741008Y1315468D01*
X688991Y1315468D01*
X688991Y1353220D01*
X655102Y3664457D02*
G01*
X774898Y3664457D01*
X774898Y3465542D01*
X655102Y3465542D01*
X655102Y3664457D01*
X417739Y1643157D02*
G01*
X642260Y1643157D01*
X642260Y1456842D01*
X417739Y1456842D01*
X417739Y1643157D01*
D12*
G75*
G01*
X2589665Y2270969D02*
G02*
X2601863Y2283167I12198J0D01*
G75*
G01*
X2601863Y2227275D02*
G02*
X2589665Y2239474I0J12198D01*
G75*
G01*
X2687527Y2282938D02*
G02*
X2699725Y2270739I0J-12198D01*
G75*
G01*
X2699725Y2239244D02*
G02*
X2687527Y2227046I-12198J0D01*
G75*
G01*
X2629665Y1760969D02*
G02*
X2641863Y1773167I12198J0D01*
G75*
G01*
X2641863Y1717275D02*
G02*
X2629665Y1729474I0J12198D01*
G75*
G01*
X2727527Y1772938D02*
G02*
X2739725Y1760739I0J-12198D01*
G75*
G01*
X2739725Y1729244D02*
G02*
X2727527Y1717046I-12198J0D01*
D11*
G75*
G01*
X2436307Y754423D02*
G03*
X2442307Y760423I0J6000D01*
G75*
G01*
X2442307Y819573D02*
G03*
X2436307Y825573I-6000J0D01*
G75*
G01*
X2293693Y754423D02*
G02*
X2287693Y760423I0J6000D01*
G75*
G01*
X2287693Y819573D02*
G02*
X2293693Y825573I6000J0D01*
D12*
G75*
G01*
X2085969Y965335D02*
G02*
X2098167Y953137I0J-12198D01*
G75*
G01*
X2042275Y953137D02*
G02*
X2054474Y965335I12198J0D01*
G75*
G01*
X2097938Y867473D02*
G02*
X2085739Y855275I-12198J0D01*
G75*
G01*
X2054244Y855275D02*
G02*
X2042046Y867473I0J12198D01*
G75*
G01*
X1254031Y861396D02*
G02*
X1241833Y873594I0J12198D01*
G75*
G01*
X1297725Y873594D02*
G02*
X1285526Y861396I-12198J0D01*
G75*
G01*
X1242062Y959258D02*
G02*
X1254261Y971456I12198J0D01*
G75*
G01*
X1285756Y971456D02*
G02*
X1297954Y959258I0J-12198D01*
D11*
G75*
G01*
X1676307Y754425D02*
G03*
X1682307Y760425I0J6000D01*
G75*
G01*
X1682307Y819575D02*
G03*
X1676307Y825575I-6000J0D01*
G75*
G01*
X1533693Y754425D02*
G02*
X1527693Y760425I0J6000D01*
G75*
G01*
X1527693Y819575D02*
G02*
X1533693Y825575I6000J0D01*
D12*
G75*
G01*
X3090969Y2200335D02*
G02*
X3103167Y2188137I0J-12198D01*
G75*
G01*
X3047275Y2188137D02*
G02*
X3059474Y2200335I12198J0D01*
G75*
G01*
X3102938Y2102473D02*
G02*
X3090739Y2090275I-12198J0D01*
G75*
G01*
X3059244Y2090275D02*
G02*
X3047046Y2102473I0J12198D01*
G75*
G01*
X2719031Y1854665D02*
G02*
X2706833Y1866863I0J12198D01*
G75*
G01*
X2762725Y1866863D02*
G02*
X2750526Y1854665I-12198J0D01*
G75*
G01*
X2707062Y1952527D02*
G02*
X2719261Y1964725I12198J0D01*
G75*
G01*
X2750756Y1964725D02*
G02*
X2762954Y1952527I0J-12198D01*
G75*
G01*
X3105969Y1750335D02*
G02*
X3118167Y1738137I0J-12198D01*
G75*
G01*
X3062275Y1738137D02*
G02*
X3074474Y1750335I12198J0D01*
G75*
G01*
X3117938Y1652473D02*
G02*
X3105739Y1640275I-12198J0D01*
G75*
G01*
X3074244Y1640275D02*
G02*
X3062046Y1652473I0J12198D01*
G75*
G01*
X2684031Y1454665D02*
G02*
X2671833Y1466863I0J12198D01*
G75*
G01*
X2727725Y1466863D02*
G02*
X2715526Y1454665I-12198J0D01*
G75*
G01*
X2672062Y1552527D02*
G02*
X2684261Y1564725I12198J0D01*
G75*
G01*
X2715756Y1564725D02*
G02*
X2727954Y1552527I0J-12198D01*
G75*
G01*
X2491391Y924600D02*
G03*
X2491391Y925000I21259J200D01*
G75*
G01*
X1706391Y929600D02*
G03*
X1706391Y930000I21259J200D01*
G75*
G01*
X1495969Y2810335D02*
G02*
X1508167Y2798137I0J-12198D01*
G75*
G01*
X1452275Y2798137D02*
G02*
X1464474Y2810335I12198J0D01*
G75*
G01*
X1507938Y2712473D02*
G02*
X1495739Y2700275I-12198J0D01*
G75*
G01*
X1464244Y2700275D02*
G02*
X1452046Y2712473I0J12198D01*
G75*
G01*
X1859665Y2840969D02*
G02*
X1871863Y2853167I12198J0D01*
G75*
G01*
X1871863Y2797275D02*
G02*
X1859665Y2809474I0J12198D01*
G75*
G01*
X1957527Y2852938D02*
G02*
X1969725Y2840739I0J-12198D01*
G75*
G01*
X1969725Y2809244D02*
G02*
X1957527Y2797046I-12198J0D01*
G75*
G01*
X584031Y3349665D02*
G02*
X571833Y3361863I0J12198D01*
G75*
G01*
X627725Y3361863D02*
G02*
X615526Y3349665I-12198J0D01*
G75*
G01*
X572062Y3447527D02*
G02*
X584261Y3459725I12198J0D01*
G75*
G01*
X615756Y3459725D02*
G02*
X627954Y3447527I0J-12198D01*
G75*
G01*
X940969Y3680335D02*
G02*
X953167Y3668137I0J-12198D01*
G75*
G01*
X897275Y3668137D02*
G02*
X909474Y3680335I12198J0D01*
G75*
G01*
X952938Y3582473D02*
G02*
X940739Y3570275I-12198J0D01*
G75*
G01*
X909244Y3570275D02*
G02*
X897046Y3582473I0J12198D01*
G75*
G01*
X2074724Y3624031D02*
G02*
X2062526Y3611833I-12198J0D01*
G75*
G01*
X2062526Y3667725D02*
G02*
X2074724Y3655526I0J-12198D01*
G75*
G01*
X1976862Y3612062D02*
G02*
X1964664Y3624261I0J12198D01*
G75*
G01*
X1964664Y3655756D02*
G02*
X1976862Y3667954I12198J0D01*
G75*
G01*
X1976863Y3319665D02*
G02*
X1964665Y3331863I0J12198D01*
G75*
G01*
X2020557Y3331863D02*
G02*
X2008358Y3319665I-12198J0D01*
G75*
G01*
X1964894Y3417527D02*
G02*
X1977093Y3429725I12198J0D01*
G75*
G01*
X2008588Y3429725D02*
G02*
X2020786Y3417527I0J-12198D01*
G75*
G01*
X1684246Y1839055D02*
G02*
X1672048Y1851253I0J12198D01*
G75*
G01*
X1727940Y1851253D02*
G02*
X1715741Y1839055I-12198J0D01*
G75*
G01*
X1672277Y1936917D02*
G02*
X1684476Y1949115I12198J0D01*
G75*
G01*
X1715971Y1949115D02*
G02*
X1728169Y1936917I0J-12198D01*
G75*
G01*
X1855969Y1949725D02*
G02*
X1868167Y1937527I0J-12198D01*
G75*
G01*
X1812275Y1937527D02*
G02*
X1824474Y1949725I12198J0D01*
G75*
G01*
X1867938Y1851863D02*
G02*
X1855739Y1839665I-12198J0D01*
G75*
G01*
X1824244Y1839665D02*
G02*
X1812046Y1851863I0J12198D01*
G75*
G01*
X1196194Y1839055D02*
G02*
X1183996Y1851253I0J12198D01*
G75*
G01*
X1239888Y1851253D02*
G02*
X1227689Y1839055I-12198J0D01*
G75*
G01*
X1184225Y1936917D02*
G02*
X1196424Y1949115I12198J0D01*
G75*
G01*
X1227919Y1949115D02*
G02*
X1240117Y1936917I0J-12198D01*
G75*
G01*
X1056409Y1839055D02*
G02*
X1044211Y1851253I0J12198D01*
G75*
G01*
X1100103Y1851253D02*
G02*
X1087904Y1839055I-12198J0D01*
G75*
G01*
X1044440Y1936917D02*
G02*
X1056639Y1949115I12198J0D01*
G75*
G01*
X1088134Y1949115D02*
G02*
X1100332Y1936917I0J-12198D01*
G75*
G01*
X409031Y1874665D02*
G02*
X396833Y1886863I0J12198D01*
G75*
G01*
X452725Y1886863D02*
G02*
X440526Y1874665I-12198J0D01*
G75*
G01*
X397062Y1972527D02*
G02*
X409261Y1984725I12198J0D01*
G75*
G01*
X440756Y1984725D02*
G02*
X452954Y1972527I0J-12198D01*
G75*
G01*
X799031Y2189665D02*
G02*
X786833Y2201863I0J12198D01*
G75*
G01*
X842725Y2201863D02*
G02*
X830526Y2189665I-12198J0D01*
G75*
G01*
X787062Y2287527D02*
G02*
X799261Y2299725I12198J0D01*
G75*
G01*
X830756Y2299725D02*
G02*
X842954Y2287527I0J-12198D01*
G75*
G01*
X1495969Y2665335D02*
G02*
X1508167Y2653137I0J-12198D01*
G75*
G01*
X1452275Y2653137D02*
G02*
X1464474Y2665335I12198J0D01*
G75*
G01*
X1507938Y2567473D02*
G02*
X1495739Y2555275I-12198J0D01*
G75*
G01*
X1464244Y2555275D02*
G02*
X1452046Y2567473I0J12198D01*
G75*
G01*
X1575969Y2665335D02*
G02*
X1588167Y2653137I0J-12198D01*
G75*
G01*
X1532275Y2653137D02*
G02*
X1544474Y2665335I12198J0D01*
G75*
G01*
X1587938Y2567473D02*
G02*
X1575739Y2555275I-12198J0D01*
G75*
G01*
X1544244Y2555275D02*
G02*
X1532046Y2567473I0J12198D01*
G75*
G01*
X2060969Y2690335D02*
G02*
X2073167Y2678137I0J-12198D01*
G75*
G01*
X2017275Y2678137D02*
G02*
X2029474Y2690335I12198J0D01*
G75*
G01*
X2072938Y2592473D02*
G02*
X2060739Y2580275I-12198J0D01*
G75*
G01*
X2029244Y2580275D02*
G02*
X2017046Y2592473I0J12198D01*
G75*
G01*
X1949031Y2614665D02*
G02*
X1936833Y2626863I0J12198D01*
G75*
G01*
X1992725Y2626863D02*
G02*
X1980526Y2614665I-12198J0D01*
G75*
G01*
X1937062Y2712527D02*
G02*
X1949261Y2724725I12198J0D01*
G75*
G01*
X1980756Y2724725D02*
G02*
X1992954Y2712527I0J-12198D01*
G75*
G01*
X404031Y2269472D02*
G02*
X391833Y2281670I0J12198D01*
G75*
G01*
X447725Y2281670D02*
G02*
X435526Y2269472I-12198J0D01*
G75*
G01*
X392062Y2367334D02*
G02*
X404261Y2379532I12198J0D01*
G75*
G01*
X435756Y2379532D02*
G02*
X447954Y2367334I0J-12198D01*
G75*
G01*
X545335Y2709031D02*
G02*
X533137Y2696833I-12198J0D01*
G75*
G01*
X533137Y2752725D02*
G02*
X545335Y2740526I0J-12198D01*
G75*
G01*
X447473Y2697062D02*
G02*
X435275Y2709261I0J12198D01*
G75*
G01*
X435275Y2740756D02*
G02*
X447473Y2752954I12198J0D01*
G75*
G01*
X929031Y2579665D02*
G02*
X916833Y2591863I0J12198D01*
G75*
G01*
X972725Y2591863D02*
G02*
X960526Y2579665I-12198J0D01*
G75*
G01*
X917062Y2677527D02*
G02*
X929261Y2689725I12198J0D01*
G75*
G01*
X960756Y2689725D02*
G02*
X972954Y2677527I0J-12198D01*
G75*
G01*
X1014031Y2579665D02*
G02*
X1001833Y2591863I0J12198D01*
G75*
G01*
X1057725Y2591863D02*
G02*
X1045526Y2579665I-12198J0D01*
G75*
G01*
X1002062Y2677527D02*
G02*
X1014261Y2689725I12198J0D01*
G75*
G01*
X1045756Y2689725D02*
G02*
X1057954Y2677527I0J-12198D01*
G75*
G01*
X2539725Y3624243D02*
G02*
X2527527Y3612045I-12198J0D01*
G75*
G01*
X2527527Y3667937D02*
G02*
X2539725Y3655738I0J-12198D01*
G75*
G01*
X2441863Y3612274D02*
G02*
X2429665Y3624473I0J12198D01*
G75*
G01*
X2429665Y3655968D02*
G02*
X2441863Y3668166I12198J0D01*
G75*
G01*
X2124031Y3319665D02*
G02*
X2111833Y3331863I0J12198D01*
G75*
G01*
X2167725Y3331863D02*
G02*
X2155526Y3319665I-12198J0D01*
G75*
G01*
X2112062Y3417527D02*
G02*
X2124261Y3429725I12198J0D01*
G75*
G01*
X2155756Y3429725D02*
G02*
X2167954Y3417527I0J-12198D01*
G75*
G01*
X3075969Y3685335D02*
G02*
X3088167Y3673137I0J-12198D01*
G75*
G01*
X3032275Y3673137D02*
G02*
X3044474Y3685335I12198J0D01*
G75*
G01*
X3087938Y3587473D02*
G02*
X3075739Y3575275I-12198J0D01*
G75*
G01*
X3044244Y3575275D02*
G02*
X3032046Y3587473I0J12198D01*
G75*
G01*
X2699031Y3314665D02*
G02*
X2686833Y3326863I0J12198D01*
G75*
G01*
X2742725Y3326863D02*
G02*
X2730526Y3314665I-12198J0D01*
G75*
G01*
X2687062Y3412527D02*
G02*
X2699261Y3424725I12198J0D01*
G75*
G01*
X2730756Y3424725D02*
G02*
X2742954Y3412527I0J-12198D01*
G75*
G01*
X960969Y2815335D02*
G02*
X973167Y2803137I0J-12198D01*
G75*
G01*
X917275Y2803137D02*
G02*
X929474Y2815335I12198J0D01*
G75*
G01*
X972938Y2717473D02*
G02*
X960739Y2705275I-12198J0D01*
G75*
G01*
X929244Y2705275D02*
G02*
X917046Y2717473I0J12198D01*
G75*
G01*
X619031Y2459665D02*
G02*
X606833Y2471863I0J12198D01*
G75*
G01*
X662725Y2471863D02*
G02*
X650526Y2459665I-12198J0D01*
G75*
G01*
X607062Y2557527D02*
G02*
X619261Y2569725I12198J0D01*
G75*
G01*
X650756Y2569725D02*
G02*
X662954Y2557527I0J-12198D01*
G75*
G01*
X1159031Y2429665D02*
G02*
X1146833Y2441863I0J12198D01*
G75*
G01*
X1202725Y2441863D02*
G02*
X1190526Y2429665I-12198J0D01*
G75*
G01*
X1147062Y2527527D02*
G02*
X1159261Y2539725I12198J0D01*
G75*
G01*
X1190756Y2539725D02*
G02*
X1202954Y2527527I0J-12198D01*
G75*
G01*
X1649031Y2429665D02*
G02*
X1636833Y2441863I0J12198D01*
G75*
G01*
X1692725Y2441863D02*
G02*
X1680526Y2429665I-12198J0D01*
G75*
G01*
X1637062Y2527527D02*
G02*
X1649261Y2539725I12198J0D01*
G75*
G01*
X1680756Y2539725D02*
G02*
X1692954Y2527527I0J-12198D01*
G75*
G01*
X2465969Y2805335D02*
G02*
X2478167Y2793137I0J-12198D01*
G75*
G01*
X2422275Y2793137D02*
G02*
X2434474Y2805335I12198J0D01*
G75*
G01*
X2477938Y2707473D02*
G02*
X2465739Y2695275I-12198J0D01*
G75*
G01*
X2434244Y2695275D02*
G02*
X2422046Y2707473I0J12198D01*
G75*
G01*
X2124031Y2429667D02*
G02*
X2111833Y2441865I0J12198D01*
G75*
G01*
X2167725Y2441865D02*
G02*
X2155526Y2429667I-12198J0D01*
G75*
G01*
X2112062Y2527529D02*
G02*
X2124261Y2539727I12198J0D01*
G75*
G01*
X2155756Y2539727D02*
G02*
X2167954Y2527529I0J-12198D01*
G75*
G01*
X830754Y2430335D02*
G02*
X842952Y2418137I0J-12198D01*
G75*
G01*
X787060Y2418137D02*
G02*
X799259Y2430335I12198J0D01*
G75*
G01*
X842723Y2332473D02*
G02*
X830524Y2320275I-12198J0D01*
G75*
G01*
X799029Y2320275D02*
G02*
X786831Y2332473I0J12198D01*
G75*
G01*
X1088132Y2090335D02*
G02*
X1100330Y2078137I0J-12198D01*
G75*
G01*
X1044438Y2078137D02*
G02*
X1056637Y2090335I12198J0D01*
G75*
G01*
X1100101Y1992473D02*
G02*
X1087902Y1980275I-12198J0D01*
G75*
G01*
X1056407Y1980275D02*
G02*
X1044209Y1992473I0J12198D01*
G75*
G01*
X595335Y2134031D02*
G02*
X583137Y2121833I-12198J0D01*
G75*
G01*
X583137Y2177725D02*
G02*
X595335Y2165526I0J-12198D01*
G75*
G01*
X497473Y2122062D02*
G02*
X485275Y2134261I0J12198D01*
G75*
G01*
X485275Y2165756D02*
G02*
X497473Y2177954I12198J0D01*
G75*
G01*
X684031Y1724665D02*
G02*
X671833Y1736863I0J12198D01*
G75*
G01*
X727725Y1736863D02*
G02*
X715526Y1724665I-12198J0D01*
G75*
G01*
X672062Y1822527D02*
G02*
X684261Y1834725I12198J0D01*
G75*
G01*
X715756Y1834725D02*
G02*
X727954Y1822527I0J-12198D01*
G75*
G01*
X1715969Y2101138D02*
G02*
X1728167Y2088940I0J-12198D01*
G75*
G01*
X1672275Y2088940D02*
G02*
X1684474Y2101138I12198J0D01*
G75*
G01*
X1727938Y2003276D02*
G02*
X1715739Y1991078I-12198J0D01*
G75*
G01*
X1684244Y1991078D02*
G02*
X1672046Y2003276I0J12198D01*
G75*
G01*
X1334031Y1700468D02*
G02*
X1321833Y1712666I0J12198D01*
G75*
G01*
X1377725Y1712666D02*
G02*
X1365526Y1700468I-12198J0D01*
G75*
G01*
X1322062Y1798330D02*
G02*
X1334261Y1810528I12198J0D01*
G75*
G01*
X1365756Y1810528D02*
G02*
X1377954Y1798330I0J-12198D01*
G75*
G01*
X2305969Y2090335D02*
G02*
X2318167Y2078137I0J-12198D01*
G75*
G01*
X2262275Y2078137D02*
G02*
X2274474Y2090335I12198J0D01*
G75*
G01*
X2317938Y1992473D02*
G02*
X2305739Y1980275I-12198J0D01*
G75*
G01*
X2274244Y1980275D02*
G02*
X2262046Y1992473I0J12198D01*
G75*
G01*
X1964031Y1700468D02*
G02*
X1951833Y1712666I0J12198D01*
G75*
G01*
X2007725Y1712666D02*
G02*
X1995526Y1700468I-12198J0D01*
G75*
G01*
X1952062Y1798330D02*
G02*
X1964261Y1810528I12198J0D01*
G75*
G01*
X1995756Y1810528D02*
G02*
X2007954Y1798330I0J-12198D01*
G75*
G01*
X2549031Y3314665D02*
G02*
X2536833Y3326863I0J12198D01*
G75*
G01*
X2592725Y3326863D02*
G02*
X2580526Y3314665I-12198J0D01*
G75*
G01*
X2537062Y3412527D02*
G02*
X2549261Y3424725I12198J0D01*
G75*
G01*
X2580756Y3424725D02*
G02*
X2592954Y3412527I0J-12198D01*
G75*
G01*
X2565471Y3655971D02*
G02*
X2577669Y3668169I12198J0D01*
G75*
G01*
X2577669Y3612277D02*
G02*
X2565471Y3624476I0J12198D01*
G75*
G01*
X2663333Y3667940D02*
G02*
X2675531Y3655741I0J-12198D01*
G75*
G01*
X2675531Y3624246D02*
G02*
X2663333Y3612048I-12198J0D01*
G75*
G01*
X1362669Y3319665D02*
G02*
X1350471Y3331863I0J12198D01*
G75*
G01*
X1406363Y3331863D02*
G02*
X1394164Y3319665I-12198J0D01*
G75*
G01*
X1350700Y3417527D02*
G02*
X1362899Y3429725I12198J0D01*
G75*
G01*
X1394394Y3429725D02*
G02*
X1406592Y3417527I0J-12198D01*
G75*
G01*
X1930335Y3624031D02*
G02*
X1918137Y3611833I-12198J0D01*
G75*
G01*
X1918137Y3667725D02*
G02*
X1930335Y3655526I0J-12198D01*
G75*
G01*
X1832473Y3612062D02*
G02*
X1820275Y3624261I0J12198D01*
G75*
G01*
X1820275Y3655756D02*
G02*
X1832473Y3667954I12198J0D01*
G75*
G01*
X1504031Y3319665D02*
G02*
X1491833Y3331863I0J12198D01*
G75*
G01*
X1547725Y3331863D02*
G02*
X1535526Y3319665I-12198J0D01*
G75*
G01*
X1492062Y3417527D02*
G02*
X1504261Y3429725I12198J0D01*
G75*
G01*
X1535756Y3429725D02*
G02*
X1547954Y3417527I0J-12198D01*
G75*
G01*
X1824665Y3210969D02*
G02*
X1836863Y3223167I12198J0D01*
G75*
G01*
X1836863Y3167275D02*
G02*
X1824665Y3179474I0J12198D01*
G75*
G01*
X1922527Y3222938D02*
G02*
X1934725Y3210739I0J-12198D01*
G75*
G01*
X1934725Y3179244D02*
G02*
X1922527Y3167046I-12198J0D01*
G75*
G01*
X1836863Y2880275D02*
G02*
X1824665Y2892473I0J12198D01*
G75*
G01*
X1880557Y2892473D02*
G02*
X1868358Y2880275I-12198J0D01*
G75*
G01*
X1824894Y2978137D02*
G02*
X1837093Y2990335I12198J0D01*
G75*
G01*
X1868588Y2990335D02*
G02*
X1880786Y2978137I0J-12198D01*
G75*
G01*
X1210471Y3210757D02*
G02*
X1222669Y3222955I12198J0D01*
G75*
G01*
X1222669Y3167063D02*
G02*
X1210471Y3179262I0J12198D01*
G75*
G01*
X1308333Y3222726D02*
G02*
X1320531Y3210527I0J-12198D01*
G75*
G01*
X1320531Y3179032D02*
G02*
X1308333Y3166834I-12198J0D01*
G75*
G01*
X1222669Y2880275D02*
G02*
X1210471Y2892473I0J12198D01*
G75*
G01*
X1266363Y2892473D02*
G02*
X1254164Y2880275I-12198J0D01*
G75*
G01*
X1210700Y2978137D02*
G02*
X1222899Y2990335I12198J0D01*
G75*
G01*
X1254394Y2990335D02*
G02*
X1266592Y2978137I0J-12198D01*
G75*
G01*
X644031Y2994665D02*
G02*
X631833Y3006863I0J12198D01*
G75*
G01*
X687725Y3006863D02*
G02*
X675526Y2994665I-12198J0D01*
G75*
G01*
X632062Y3092527D02*
G02*
X644261Y3104725I12198J0D01*
G75*
G01*
X675756Y3104725D02*
G02*
X687954Y3092527I0J-12198D01*
G75*
G01*
X569665Y3170969D02*
G02*
X581863Y3183167I12198J0D01*
G75*
G01*
X581863Y3127275D02*
G02*
X569665Y3139474I0J12198D01*
G75*
G01*
X667527Y3182938D02*
G02*
X679725Y3170739I0J-12198D01*
G75*
G01*
X679725Y3139244D02*
G02*
X667527Y3127046I-12198J0D01*
G75*
G01*
X2437669Y2880275D02*
G02*
X2425471Y2892473I0J12198D01*
G75*
G01*
X2481363Y2892473D02*
G02*
X2469164Y2880275I-12198J0D01*
G75*
G01*
X2425700Y2978137D02*
G02*
X2437899Y2990335I12198J0D01*
G75*
G01*
X2469394Y2990335D02*
G02*
X2481592Y2978137I0J-12198D01*
G75*
G01*
X2425471Y3210969D02*
G02*
X2437669Y3223167I12198J0D01*
G75*
G01*
X2437669Y3167275D02*
G02*
X2425471Y3179474I0J12198D01*
G75*
G01*
X2523333Y3222938D02*
G02*
X2535531Y3210739I0J-12198D01*
G75*
G01*
X2535531Y3179244D02*
G02*
X2523333Y3167046I-12198J0D01*
G75*
G01*
X2579031Y2604665D02*
G02*
X2566833Y2616863I0J12198D01*
G75*
G01*
X2622725Y2616863D02*
G02*
X2610526Y2604665I-12198J0D01*
G75*
G01*
X2567062Y2702527D02*
G02*
X2579261Y2714725I12198J0D01*
G75*
G01*
X2610756Y2714725D02*
G02*
X2622954Y2702527I0J-12198D01*
G75*
G01*
X2760969Y2985335D02*
G02*
X2773167Y2973137I0J-12198D01*
G75*
G01*
X2717275Y2973137D02*
G02*
X2729474Y2985335I12198J0D01*
G75*
G01*
X2772938Y2887473D02*
G02*
X2760739Y2875275I-12198J0D01*
G75*
G01*
X2729244Y2875275D02*
G02*
X2717046Y2887473I0J12198D01*
G75*
G01*
X1180335Y3179031D02*
G02*
X1168137Y3166833I-12198J0D01*
G75*
G01*
X1168137Y3222725D02*
G02*
X1180335Y3210526I0J-12198D01*
G75*
G01*
X1082473Y3167062D02*
G02*
X1070275Y3179261I0J12198D01*
G75*
G01*
X1070275Y3210756D02*
G02*
X1082473Y3222954I12198J0D01*
G75*
G01*
X744031Y2880275D02*
G02*
X731833Y2892473I0J12198D01*
G75*
G01*
X787725Y2892473D02*
G02*
X775526Y2880275I-12198J0D01*
G75*
G01*
X732062Y2978137D02*
G02*
X744261Y2990335I12198J0D01*
G75*
G01*
X775756Y2990335D02*
G02*
X787954Y2978137I0J-12198D01*
G75*
G01*
X1790335Y3179031D02*
G02*
X1778137Y3166833I-12198J0D01*
G75*
G01*
X1778137Y3222725D02*
G02*
X1790335Y3210526I0J-12198D01*
G75*
G01*
X1692473Y3167062D02*
G02*
X1680275Y3179261I0J12198D01*
G75*
G01*
X1680275Y3210756D02*
G02*
X1692473Y3222954I12198J0D01*
G75*
G01*
X1364031Y2879665D02*
G02*
X1351833Y2891863I0J12198D01*
G75*
G01*
X1407725Y2891863D02*
G02*
X1395526Y2879665I-12198J0D01*
G75*
G01*
X1352062Y2977527D02*
G02*
X1364261Y2989725I12198J0D01*
G75*
G01*
X1395756Y2989725D02*
G02*
X1407954Y2977527I0J-12198D01*
G75*
G01*
X2400335Y3179031D02*
G02*
X2388137Y3166833I-12198J0D01*
G75*
G01*
X2388137Y3222725D02*
G02*
X2400335Y3210526I0J-12198D01*
G75*
G01*
X2302473Y3167062D02*
G02*
X2290275Y3179261I0J12198D01*
G75*
G01*
X2290275Y3210756D02*
G02*
X2302473Y3222954I12198J0D01*
G75*
G01*
X1984031Y2880275D02*
G02*
X1971833Y2892473I0J12198D01*
G75*
G01*
X2027725Y2892473D02*
G02*
X2015526Y2880275I-12198J0D01*
G75*
G01*
X1972062Y2978137D02*
G02*
X1984261Y2990335I12198J0D01*
G75*
G01*
X2015756Y2990335D02*
G02*
X2027954Y2978137I0J-12198D01*
G75*
G01*
X2995335Y3149031D02*
G02*
X2983137Y3136833I-12198J0D01*
G75*
G01*
X2983137Y3192725D02*
G02*
X2995335Y3180526I0J-12198D01*
G75*
G01*
X2897473Y3137062D02*
G02*
X2885275Y3149261I0J12198D01*
G75*
G01*
X2885275Y3180756D02*
G02*
X2897473Y3192954I12198J0D01*
G75*
G01*
X2574031Y2880275D02*
G02*
X2561833Y2892473I0J12198D01*
G75*
G01*
X2617725Y2892473D02*
G02*
X2605526Y2880275I-12198J0D01*
G75*
G01*
X2562062Y2978137D02*
G02*
X2574261Y2990335I12198J0D01*
G75*
G01*
X2605756Y2990335D02*
G02*
X2617954Y2978137I0J-12198D01*
G75*
G01*
X3044031Y2699665D02*
G02*
X3031833Y2711863I0J12198D01*
G75*
G01*
X3087725Y2711863D02*
G02*
X3075526Y2699665I-12198J0D01*
G75*
G01*
X3032062Y2797527D02*
G02*
X3044261Y2809725I12198J0D01*
G75*
G01*
X3075756Y2809725D02*
G02*
X3087954Y2797527I0J-12198D01*
G75*
G01*
X2714031Y2479665D02*
G02*
X2701833Y2491863I0J12198D01*
G75*
G01*
X2757725Y2491863D02*
G02*
X2745526Y2479665I-12198J0D01*
G75*
G01*
X2702062Y2577527D02*
G02*
X2714261Y2589725I12198J0D01*
G75*
G01*
X2745756Y2589725D02*
G02*
X2757954Y2577527I0J-12198D01*
D15*
G75*
G01
X2149670Y980680D02*
G03X2149670Y980680I-5910J0D01*
G75*
G01
X1364670Y972410D02*
G03X1364670Y972410I-5910J0D01*
G75*
G01
X2227230Y3645000D02*
G03X2227230Y3645000I-5910J0D01*
G75*
G01
X2148360Y3674390D02*
G03X2148360Y3674390I-5910J0D01*
G75*
G01
X1607230Y3645000D02*
G03X1607230Y3645000I-5910J0D01*
G75*
G01
X1528360Y3674390D02*
G03X1528360Y3674390I-5910J0D01*
G75*
G01
X2825630Y3645000D02*
G03X2825630Y3645000I-5910J0D01*
G75*
G01
X2746760Y3674390D02*
G03X2746760Y3674390I-5910J0D01*
G75*
G01
X850630Y3210000D02*
G03X850630Y3210000I-5910J0D01*
G75*
G01
X771760Y3239390D02*
G03X771760Y3239390I-5910J0D01*
G75*
G01
X1467230Y3210000D02*
G03X1467230Y3210000I-5910J0D01*
G75*
G01
X1388360Y3239390D02*
G03X1388360Y3239390I-5910J0D01*
G75*
G01
X2075630Y3210000D02*
G03X2075630Y3210000I-5910J0D01*
G75*
G01
X1996760Y3239390D02*
G03X1996760Y3239390I-5910J0D01*
G75*
G01
X2815630Y2770000D02*
G03X2815630Y2770000I-5910J0D01*
G75*
G01
X2736760Y2799390D02*
G03X2736760Y2799390I-5910J0D01*
G75*
G01
X2225630Y2765000D02*
G03X2225630Y2765000I-5910J0D01*
G75*
G01
X2146760Y2794390D02*
G03X2146760Y2794390I-5910J0D01*
G75*
G01
X1750630Y2755000D02*
G03X1750630Y2755000I-5910J0D01*
G75*
G01
X1671760Y2784390D02*
G03X1671760Y2784390I-5910J0D01*
G75*
G01
X1260630Y2755000D02*
G03X1260630Y2755000I-5910J0D01*
G75*
G01
X1181760Y2784390D02*
G03X1181760Y2784390I-5910J0D01*
G75*
G01
X720630Y2755000D02*
G03X720630Y2755000I-5910J0D01*
G75*
G01
X641760Y2784390D02*
G03X641760Y2784390I-5910J0D01*
G75*
G01
X590630Y2365000D02*
G03X590630Y2365000I-5910J0D01*
G75*
G01
X511760Y2394390D02*
G03X511760Y2394390I-5910J0D01*
G75*
G01
X780630Y2030000D02*
G03X780630Y2030000I-5910J0D01*
G75*
G01
X701760Y2059390D02*
G03X701760Y2059390I-5910J0D01*
G75*
G01
X1430630Y2030000D02*
G03X1430630Y2030000I-5910J0D01*
G75*
G01
X1351760Y2059390D02*
G03X1351760Y2059390I-5910J0D01*
G75*
G01
X2065630Y2030000D02*
G03X2065630Y2030000I-5910J0D01*
G75*
G01
X1986760Y2059390D02*
G03X1986760Y2059390I-5910J0D01*
G75*
G01
X2685630Y3210000D02*
G03X2685630Y3210000I-5910J0D01*
G75*
G01
X2606760Y3239390D02*
G03X2606760Y3239390I-5910J0D01*
G75*
G01
X2870630Y1655000D02*
G03X2870630Y1655000I-5910J0D01*
G75*
G01
X2791760Y1684390D02*
G03X2791760Y1684390I-5910J0D01*
G75*
G01
X2840630Y2160000D02*
G03X2840630Y2160000I-5910J0D01*
G75*
G01
X2761760Y2189390D02*
G03X2761760Y2189390I-5910J0D01*
G75*
G01
X690630Y3640000D02*
G03X690630Y3640000I-5910J0D01*
G75*
G01
X611760Y3669390D02*
G03X611760Y3669390I-5910J0D01*
G75*
G01
X453270Y1600000D02*
G03X453270Y1600000I-5910J0D01*
G75*
G01
X363470Y1645810D02*
G03X363470Y1645810I-5910J0D01*
M02*
