G04 Layer: BottomSilkscreenLayer*
G04 EasyEDA v6.5.40, 2024-04-23 11:15:46*
G04 c7e9cca6e7fb4e88997dfbcd3db0eb44,2d5800d2cc32464ebd88bb1e24ba3ef2,10*
G04 Gerber Generator version 0.2*
G04 Scale: 100 percent, Rotated: No, Reflected: No *
G04 Dimensions in inches *
G04 leading zeros omitted , absolute positions ,3 integer and 6 decimal *
%FSLAX36Y36*%
%MOIN*%

%ADD10C,0.0080*%
%ADD11C,0.0060*%
%ADD12C,0.0080*%
%ADD13C,0.0080*%

%LPD*%
D10*
X996273Y3472273D02*
G01*
X999908Y3470455D01*
X1003545Y3466817D01*
X1005363Y3463182D01*
X1005363Y3455909D01*
X1003545Y3452273D01*
X999908Y3448636D01*
X996273Y3446817D01*
X990817Y3445000D01*
X981727Y3445000D01*
X976273Y3446817D01*
X972636Y3448636D01*
X968999Y3452273D01*
X967182Y3455909D01*
X967182Y3463182D01*
X968999Y3466817D01*
X972636Y3470455D01*
X976273Y3472273D01*
X981727Y3472273D01*
X981727Y3463182D02*
G01*
X981727Y3472273D01*
X1005363Y3596273D02*
G01*
X967182Y3610817D01*
X1005363Y3625363D02*
G01*
X967182Y3610817D01*
X992636Y3646455D02*
G01*
X990817Y3642818D01*
X987182Y3639182D01*
X981727Y3637363D01*
X978091Y3637363D01*
X972636Y3639182D01*
X968999Y3642818D01*
X967182Y3646455D01*
X967182Y3651909D01*
X968999Y3655545D01*
X972636Y3659182D01*
X978091Y3660999D01*
X981727Y3660999D01*
X987182Y3659182D01*
X990817Y3655545D01*
X992636Y3651909D01*
X992636Y3646455D01*
X992636Y3673000D02*
G01*
X974454Y3673000D01*
X968999Y3674818D01*
X967182Y3678454D01*
X967182Y3683908D01*
X968999Y3687545D01*
X974454Y3693000D01*
X992636Y3693000D02*
G01*
X967182Y3693000D01*
X1005363Y3710455D02*
G01*
X974454Y3710455D01*
X968999Y3712273D01*
X967182Y3715909D01*
X967182Y3719544D01*
X992636Y3705000D02*
G01*
X992636Y3717727D01*
X740000Y3555363D02*
G01*
X740000Y3517181D01*
X728000Y3555363D02*
G01*
X728000Y3517181D01*
X728000Y3555363D02*
G01*
X702545Y3517181D01*
X702545Y3555363D02*
G01*
X702545Y3517181D01*
X675999Y3555363D02*
G01*
X690545Y3517181D01*
X675999Y3555363D02*
G01*
X661455Y3517181D01*
X685091Y3529908D02*
G01*
X666909Y3529908D01*
X1323455Y3425455D02*
G01*
X1326181Y3424090D01*
X1328909Y3421363D01*
X1330272Y3418636D01*
X1330272Y3413182D01*
X1328909Y3410455D01*
X1326181Y3407727D01*
X1323455Y3406363D01*
X1319363Y3405000D01*
X1312545Y3405000D01*
X1308455Y3406363D01*
X1305726Y3407727D01*
X1303000Y3410455D01*
X1301635Y3413182D01*
X1301635Y3418636D01*
X1303000Y3421363D01*
X1305726Y3424090D01*
X1308455Y3425455D01*
X1312545Y3425455D01*
X1312545Y3418636D02*
G01*
X1312545Y3425455D01*
X1330272Y3497455D02*
G01*
X1301635Y3497455D01*
X1320726Y3506455D02*
G01*
X1292091Y3506455D01*
X1316635Y3506455D02*
G01*
X1319363Y3509182D01*
X1320726Y3511909D01*
X1320726Y3515999D01*
X1319363Y3518726D01*
X1316635Y3521455D01*
X1312545Y3522818D01*
X1309817Y3522818D01*
X1305726Y3521455D01*
X1303000Y3518726D01*
X1301635Y3515999D01*
X1301635Y3511909D01*
X1303000Y3509182D01*
X1305726Y3506455D01*
X1292091Y3531817D02*
G01*
X1292091Y3556363D01*
X1324817Y3565363D02*
G01*
X1326181Y3568090D01*
X1330272Y3572181D01*
X1301635Y3572181D01*
X1330272Y3581181D02*
G01*
X1301635Y3581181D01*
X1330272Y3600273D02*
G01*
X1301635Y3600273D01*
X1316635Y3581181D02*
G01*
X1316635Y3600273D01*
X1330272Y3628364D02*
G01*
X1301635Y3609272D01*
X1330272Y3609272D02*
G01*
X1330272Y3628364D01*
X1301635Y3609272D02*
G01*
X1301635Y3628364D01*
X1292091Y3637363D02*
G01*
X1292091Y3661909D01*
X1330272Y3670909D02*
G01*
X1301635Y3681817D01*
X1330272Y3692727D02*
G01*
X1301635Y3681817D01*
X1330272Y3701727D02*
G01*
X1328909Y3703090D01*
X1330272Y3704454D01*
X1331635Y3703090D01*
X1330272Y3701727D01*
X1320726Y3703090D02*
G01*
X1301635Y3703090D01*
X1320726Y3713454D02*
G01*
X1301635Y3713454D01*
X1315272Y3713454D02*
G01*
X1319363Y3717545D01*
X1320726Y3720273D01*
X1320726Y3724364D01*
X1319363Y3727091D01*
X1315272Y3728454D01*
X1301635Y3728454D01*
X3163455Y3415455D02*
G01*
X3166181Y3414090D01*
X3168909Y3411363D01*
X3170272Y3408636D01*
X3170272Y3403182D01*
X3168909Y3400455D01*
X3166181Y3397727D01*
X3163455Y3396363D01*
X3159363Y3395000D01*
X3152545Y3395000D01*
X3148455Y3396363D01*
X3145726Y3397727D01*
X3143000Y3400455D01*
X3141635Y3403182D01*
X3141635Y3408636D01*
X3143000Y3411363D01*
X3145726Y3414090D01*
X3148455Y3415455D01*
X3152545Y3415455D01*
X3152545Y3408636D02*
G01*
X3152545Y3415455D01*
X3170272Y3487455D02*
G01*
X3141635Y3487455D01*
X3160726Y3496455D02*
G01*
X3132091Y3496455D01*
X3156635Y3496455D02*
G01*
X3159363Y3499182D01*
X3160726Y3501909D01*
X3160726Y3505999D01*
X3159363Y3508726D01*
X3156635Y3511455D01*
X3152545Y3512818D01*
X3149817Y3512818D01*
X3145726Y3511455D01*
X3143000Y3508726D01*
X3141635Y3505999D01*
X3141635Y3501909D01*
X3143000Y3499182D01*
X3145726Y3496455D01*
X3132091Y3521817D02*
G01*
X3132091Y3546363D01*
X3164817Y3555363D02*
G01*
X3166181Y3558090D01*
X3170272Y3562181D01*
X3141635Y3562181D01*
X3170272Y3571181D02*
G01*
X3141635Y3571181D01*
X3170272Y3590273D02*
G01*
X3141635Y3590273D01*
X3156635Y3571181D02*
G01*
X3156635Y3590273D01*
X3170272Y3618364D02*
G01*
X3141635Y3599272D01*
X3170272Y3599272D02*
G01*
X3170272Y3618364D01*
X3141635Y3599272D02*
G01*
X3141635Y3618364D01*
X3132091Y3627363D02*
G01*
X3132091Y3651909D01*
X3170272Y3660909D02*
G01*
X3141635Y3671817D01*
X3170272Y3682727D02*
G01*
X3141635Y3671817D01*
X3160726Y3698544D02*
G01*
X3159363Y3695817D01*
X3156635Y3693090D01*
X3152545Y3691727D01*
X3149817Y3691727D01*
X3145726Y3693090D01*
X3143000Y3695817D01*
X3141635Y3698544D01*
X3141635Y3702636D01*
X3143000Y3705363D01*
X3145726Y3708090D01*
X3149817Y3709454D01*
X3152545Y3709454D01*
X3156635Y3708090D01*
X3159363Y3705363D01*
X3160726Y3702636D01*
X3160726Y3698544D01*
X3160726Y3718454D02*
G01*
X3147091Y3718454D01*
X3143000Y3719818D01*
X3141635Y3722545D01*
X3141635Y3726635D01*
X3143000Y3729364D01*
X3147091Y3733454D01*
X3160726Y3733454D02*
G01*
X3141635Y3733454D01*
X3170272Y3746545D02*
G01*
X3147091Y3746545D01*
X3143000Y3747908D01*
X3141635Y3750635D01*
X3141635Y3753364D01*
X3160726Y3742455D02*
G01*
X3160726Y3751999D01*
X263465Y2950455D02*
G01*
X266192Y2949090D01*
X268919Y2946363D01*
X270282Y2943636D01*
X270282Y2938182D01*
X268919Y2935455D01*
X266192Y2932727D01*
X263465Y2931363D01*
X259373Y2930000D01*
X252555Y2930000D01*
X248465Y2931363D01*
X245736Y2932727D01*
X243009Y2935455D01*
X241646Y2938182D01*
X241646Y2943636D01*
X243009Y2946363D01*
X245736Y2949090D01*
X248465Y2950455D01*
X252555Y2950455D01*
X252555Y2943636D02*
G01*
X252555Y2950455D01*
X270282Y3022455D02*
G01*
X241646Y3022455D01*
X260736Y3031455D02*
G01*
X232100Y3031455D01*
X256646Y3031455D02*
G01*
X259373Y3034182D01*
X260736Y3036909D01*
X260736Y3040999D01*
X259373Y3043726D01*
X256646Y3046455D01*
X252555Y3047818D01*
X249828Y3047818D01*
X245736Y3046455D01*
X243009Y3043726D01*
X241646Y3040999D01*
X241646Y3036909D01*
X243009Y3034182D01*
X245736Y3031455D01*
X232100Y3056817D02*
G01*
X232100Y3081363D01*
X270282Y3093090D02*
G01*
X270282Y3108090D01*
X259373Y3099908D01*
X259373Y3104000D01*
X258009Y3106727D01*
X256646Y3108090D01*
X252555Y3109454D01*
X249828Y3109454D01*
X245736Y3108090D01*
X243009Y3105363D01*
X241646Y3101273D01*
X241646Y3097181D01*
X243009Y3093090D01*
X244373Y3091727D01*
X247100Y3090363D01*
X270282Y3118454D02*
G01*
X241646Y3118454D01*
X270282Y3137545D02*
G01*
X241646Y3137545D01*
X256646Y3118454D02*
G01*
X256646Y3137545D01*
X270282Y3165635D02*
G01*
X241646Y3146545D01*
X270282Y3146545D02*
G01*
X270282Y3165635D01*
X241646Y3146545D02*
G01*
X241646Y3165635D01*
X232100Y3174636D02*
G01*
X232100Y3199182D01*
X270282Y3208182D02*
G01*
X241646Y3219090D01*
X270282Y3230000D02*
G01*
X241646Y3219090D01*
X270282Y3239000D02*
G01*
X268919Y3240363D01*
X270282Y3241727D01*
X271646Y3240363D01*
X270282Y3239000D01*
X260736Y3240363D02*
G01*
X241646Y3240363D01*
X260736Y3250727D02*
G01*
X241646Y3250727D01*
X255282Y3250727D02*
G01*
X259373Y3254818D01*
X260736Y3257545D01*
X260736Y3261635D01*
X259373Y3264364D01*
X255282Y3265727D01*
X241646Y3265727D01*
X3168455Y2930455D02*
G01*
X3171181Y2929090D01*
X3173909Y2926363D01*
X3175272Y2923636D01*
X3175272Y2918182D01*
X3173909Y2915455D01*
X3171181Y2912727D01*
X3168455Y2911363D01*
X3164363Y2910000D01*
X3157545Y2910000D01*
X3153455Y2911363D01*
X3150726Y2912727D01*
X3148000Y2915455D01*
X3146635Y2918182D01*
X3146635Y2923636D01*
X3148000Y2926363D01*
X3150726Y2929090D01*
X3153455Y2930455D01*
X3157545Y2930455D01*
X3157545Y2923636D02*
G01*
X3157545Y2930455D01*
X3175272Y3002455D02*
G01*
X3146635Y3002455D01*
X3165726Y3011455D02*
G01*
X3137091Y3011455D01*
X3161635Y3011455D02*
G01*
X3164363Y3014182D01*
X3165726Y3016909D01*
X3165726Y3020999D01*
X3164363Y3023726D01*
X3161635Y3026455D01*
X3157545Y3027818D01*
X3154817Y3027818D01*
X3150726Y3026455D01*
X3148000Y3023726D01*
X3146635Y3020999D01*
X3146635Y3016909D01*
X3148000Y3014182D01*
X3150726Y3011455D01*
X3137091Y3036817D02*
G01*
X3137091Y3061363D01*
X3175272Y3073090D02*
G01*
X3175272Y3088090D01*
X3164363Y3079908D01*
X3164363Y3084000D01*
X3163000Y3086727D01*
X3161635Y3088090D01*
X3157545Y3089454D01*
X3154817Y3089454D01*
X3150726Y3088090D01*
X3148000Y3085363D01*
X3146635Y3081273D01*
X3146635Y3077181D01*
X3148000Y3073090D01*
X3149363Y3071727D01*
X3152091Y3070363D01*
X3175272Y3098454D02*
G01*
X3146635Y3098454D01*
X3175272Y3117545D02*
G01*
X3146635Y3117545D01*
X3161635Y3098454D02*
G01*
X3161635Y3117545D01*
X3175272Y3145635D02*
G01*
X3146635Y3126545D01*
X3175272Y3126545D02*
G01*
X3175272Y3145635D01*
X3146635Y3126545D02*
G01*
X3146635Y3145635D01*
X3137091Y3154636D02*
G01*
X3137091Y3179182D01*
X3175272Y3188182D02*
G01*
X3146635Y3199090D01*
X3175272Y3210000D02*
G01*
X3146635Y3199090D01*
X3165726Y3225817D02*
G01*
X3164363Y3223090D01*
X3161635Y3220363D01*
X3157545Y3219000D01*
X3154817Y3219000D01*
X3150726Y3220363D01*
X3148000Y3223090D01*
X3146635Y3225817D01*
X3146635Y3229908D01*
X3148000Y3232636D01*
X3150726Y3235363D01*
X3154817Y3236727D01*
X3157545Y3236727D01*
X3161635Y3235363D01*
X3164363Y3232636D01*
X3165726Y3229908D01*
X3165726Y3225817D01*
X3165726Y3245727D02*
G01*
X3152091Y3245727D01*
X3148000Y3247091D01*
X3146635Y3249818D01*
X3146635Y3253908D01*
X3148000Y3256635D01*
X3152091Y3260727D01*
X3165726Y3260727D02*
G01*
X3146635Y3260727D01*
X3175272Y3273818D02*
G01*
X3152091Y3273818D01*
X3148000Y3275182D01*
X3146635Y3277908D01*
X3146635Y3280635D01*
X3165726Y3269726D02*
G01*
X3165726Y3279272D01*
X263465Y2435455D02*
G01*
X266192Y2434090D01*
X268919Y2431363D01*
X270282Y2428636D01*
X270282Y2423182D01*
X268919Y2420455D01*
X266192Y2417727D01*
X263465Y2416363D01*
X259373Y2415000D01*
X252555Y2415000D01*
X248465Y2416363D01*
X245736Y2417727D01*
X243009Y2420455D01*
X241646Y2423182D01*
X241646Y2428636D01*
X243009Y2431363D01*
X245736Y2434090D01*
X248465Y2435455D01*
X252555Y2435455D01*
X252555Y2428636D02*
G01*
X252555Y2435455D01*
X270282Y2507455D02*
G01*
X241646Y2507455D01*
X255282Y2507455D02*
G01*
X259373Y2511545D01*
X260736Y2514272D01*
X260736Y2518364D01*
X259373Y2521091D01*
X255282Y2522455D01*
X241646Y2522455D01*
X260736Y2531455D02*
G01*
X232100Y2531455D01*
X256646Y2531455D02*
G01*
X259373Y2534182D01*
X260736Y2536909D01*
X260736Y2540999D01*
X259373Y2543726D01*
X256646Y2546455D01*
X252555Y2547818D01*
X249828Y2547818D01*
X245736Y2546455D01*
X243009Y2543726D01*
X241646Y2540999D01*
X241646Y2536909D01*
X243009Y2534182D01*
X245736Y2531455D01*
X232100Y2556817D02*
G01*
X232100Y2581363D01*
X270282Y2598544D02*
G01*
X268919Y2594454D01*
X264828Y2591727D01*
X258009Y2590363D01*
X253919Y2590363D01*
X247100Y2591727D01*
X243009Y2594454D01*
X241646Y2598544D01*
X241646Y2601273D01*
X243009Y2605363D01*
X247100Y2608090D01*
X253919Y2609454D01*
X258009Y2609454D01*
X264828Y2608090D01*
X268919Y2605363D01*
X270282Y2601273D01*
X270282Y2598544D01*
X248465Y2619818D02*
G01*
X247100Y2618454D01*
X245736Y2619818D01*
X247100Y2621181D01*
X248465Y2619818D01*
X263465Y2631545D02*
G01*
X264828Y2631545D01*
X267555Y2632908D01*
X268919Y2634272D01*
X270282Y2636999D01*
X270282Y2642455D01*
X268919Y2645182D01*
X267555Y2646545D01*
X264828Y2647908D01*
X262100Y2647908D01*
X259373Y2646545D01*
X255282Y2643818D01*
X241646Y2630182D01*
X241646Y2649272D01*
X270282Y2658272D02*
G01*
X241646Y2658272D01*
X270282Y2677363D02*
G01*
X241646Y2677363D01*
X256646Y2658272D02*
G01*
X256646Y2677363D01*
X270282Y2705455D02*
G01*
X241646Y2686363D01*
X270282Y2686363D02*
G01*
X270282Y2705455D01*
X241646Y2686363D02*
G01*
X241646Y2705455D01*
X232100Y2714454D02*
G01*
X232100Y2739000D01*
X270282Y2748000D02*
G01*
X241646Y2758908D01*
X270282Y2769818D02*
G01*
X241646Y2758908D01*
X270282Y2778818D02*
G01*
X268919Y2780182D01*
X270282Y2781545D01*
X271646Y2780182D01*
X270282Y2778818D01*
X260736Y2780182D02*
G01*
X241646Y2780182D01*
X260736Y2790545D02*
G01*
X241646Y2790545D01*
X255282Y2790545D02*
G01*
X259373Y2794636D01*
X260736Y2797363D01*
X260736Y2801455D01*
X259373Y2804182D01*
X255282Y2805545D01*
X241646Y2805545D01*
X3163455Y2445455D02*
G01*
X3166181Y2444090D01*
X3168909Y2441363D01*
X3170272Y2438636D01*
X3170272Y2433182D01*
X3168909Y2430455D01*
X3166181Y2427727D01*
X3163455Y2426363D01*
X3159363Y2425000D01*
X3152545Y2425000D01*
X3148455Y2426363D01*
X3145726Y2427727D01*
X3143000Y2430455D01*
X3141635Y2433182D01*
X3141635Y2438636D01*
X3143000Y2441363D01*
X3145726Y2444090D01*
X3148455Y2445455D01*
X3152545Y2445455D01*
X3152545Y2438636D02*
G01*
X3152545Y2445455D01*
X3170272Y2517455D02*
G01*
X3141635Y2517455D01*
X3155272Y2517455D02*
G01*
X3159363Y2521545D01*
X3160726Y2524272D01*
X3160726Y2528364D01*
X3159363Y2531091D01*
X3155272Y2532455D01*
X3141635Y2532455D01*
X3160726Y2541455D02*
G01*
X3132091Y2541455D01*
X3156635Y2541455D02*
G01*
X3159363Y2544182D01*
X3160726Y2546909D01*
X3160726Y2550999D01*
X3159363Y2553726D01*
X3156635Y2556455D01*
X3152545Y2557818D01*
X3149817Y2557818D01*
X3145726Y2556455D01*
X3143000Y2553726D01*
X3141635Y2550999D01*
X3141635Y2546909D01*
X3143000Y2544182D01*
X3145726Y2541455D01*
X3132091Y2566817D02*
G01*
X3132091Y2591363D01*
X3170272Y2608544D02*
G01*
X3168909Y2604454D01*
X3164817Y2601727D01*
X3158000Y2600363D01*
X3153909Y2600363D01*
X3147091Y2601727D01*
X3143000Y2604454D01*
X3141635Y2608544D01*
X3141635Y2611273D01*
X3143000Y2615363D01*
X3147091Y2618090D01*
X3153909Y2619454D01*
X3158000Y2619454D01*
X3164817Y2618090D01*
X3168909Y2615363D01*
X3170272Y2611273D01*
X3170272Y2608544D01*
X3148455Y2629818D02*
G01*
X3147091Y2628454D01*
X3145726Y2629818D01*
X3147091Y2631181D01*
X3148455Y2629818D01*
X3163455Y2641545D02*
G01*
X3164817Y2641545D01*
X3167545Y2642908D01*
X3168909Y2644272D01*
X3170272Y2646999D01*
X3170272Y2652455D01*
X3168909Y2655182D01*
X3167545Y2656545D01*
X3164817Y2657908D01*
X3162091Y2657908D01*
X3159363Y2656545D01*
X3155272Y2653818D01*
X3141635Y2640182D01*
X3141635Y2659272D01*
X3170272Y2668272D02*
G01*
X3141635Y2668272D01*
X3170272Y2687363D02*
G01*
X3141635Y2687363D01*
X3156635Y2668272D02*
G01*
X3156635Y2687363D01*
X3170272Y2715455D02*
G01*
X3141635Y2696363D01*
X3170272Y2696363D02*
G01*
X3170272Y2715455D01*
X3141635Y2696363D02*
G01*
X3141635Y2715455D01*
X3132091Y2724454D02*
G01*
X3132091Y2749000D01*
X3170272Y2758000D02*
G01*
X3141635Y2768908D01*
X3170272Y2779818D02*
G01*
X3141635Y2768908D01*
X3160726Y2795635D02*
G01*
X3159363Y2792908D01*
X3156635Y2790182D01*
X3152545Y2788818D01*
X3149817Y2788818D01*
X3145726Y2790182D01*
X3143000Y2792908D01*
X3141635Y2795635D01*
X3141635Y2799726D01*
X3143000Y2802455D01*
X3145726Y2805182D01*
X3149817Y2806545D01*
X3152545Y2806545D01*
X3156635Y2805182D01*
X3159363Y2802455D01*
X3160726Y2799726D01*
X3160726Y2795635D01*
X3160726Y2815545D02*
G01*
X3147091Y2815545D01*
X3143000Y2816909D01*
X3141635Y2819636D01*
X3141635Y2823726D01*
X3143000Y2826455D01*
X3147091Y2830545D01*
X3160726Y2830545D02*
G01*
X3141635Y2830545D01*
X3170272Y2843636D02*
G01*
X3147091Y2843636D01*
X3143000Y2845000D01*
X3141635Y2847727D01*
X3141635Y2850455D01*
X3160726Y2839544D02*
G01*
X3160726Y2849090D01*
X263465Y1970455D02*
G01*
X266192Y1969090D01*
X268919Y1966363D01*
X270282Y1963636D01*
X270282Y1958182D01*
X268919Y1955455D01*
X266192Y1952726D01*
X263465Y1951363D01*
X259373Y1950000D01*
X252555Y1950000D01*
X248465Y1951363D01*
X245736Y1952726D01*
X243009Y1955455D01*
X241646Y1958182D01*
X241646Y1963636D01*
X243009Y1966363D01*
X245736Y1969090D01*
X248465Y1970455D01*
X252555Y1970455D01*
X252555Y1963636D02*
G01*
X252555Y1970455D01*
X270282Y2042455D02*
G01*
X241646Y2042455D01*
X255282Y2042455D02*
G01*
X259373Y2046545D01*
X260736Y2049272D01*
X260736Y2053364D01*
X259373Y2056091D01*
X255282Y2057455D01*
X241646Y2057455D01*
X260736Y2066455D02*
G01*
X232100Y2066455D01*
X256646Y2066455D02*
G01*
X259373Y2069182D01*
X260736Y2071909D01*
X260736Y2075999D01*
X259373Y2078726D01*
X256646Y2081455D01*
X252555Y2082818D01*
X249828Y2082818D01*
X245736Y2081455D01*
X243009Y2078726D01*
X241646Y2075999D01*
X241646Y2071909D01*
X243009Y2069182D01*
X245736Y2066455D01*
X232100Y2091817D02*
G01*
X232100Y2116363D01*
X270282Y2133544D02*
G01*
X268919Y2129454D01*
X264828Y2126727D01*
X258009Y2125363D01*
X253919Y2125363D01*
X247100Y2126727D01*
X243009Y2129454D01*
X241646Y2133544D01*
X241646Y2136273D01*
X243009Y2140363D01*
X247100Y2143090D01*
X253919Y2144454D01*
X258009Y2144454D01*
X264828Y2143090D01*
X268919Y2140363D01*
X270282Y2136273D01*
X270282Y2133544D01*
X248465Y2154818D02*
G01*
X247100Y2153454D01*
X245736Y2154818D01*
X247100Y2156181D01*
X248465Y2154818D01*
X266192Y2181545D02*
G01*
X268919Y2180182D01*
X270282Y2176091D01*
X270282Y2173364D01*
X268919Y2169272D01*
X264828Y2166545D01*
X258009Y2165182D01*
X251192Y2165182D01*
X245736Y2166545D01*
X243009Y2169272D01*
X241646Y2173364D01*
X241646Y2174726D01*
X243009Y2178818D01*
X245736Y2181545D01*
X249828Y2182908D01*
X251192Y2182908D01*
X255282Y2181545D01*
X258009Y2178818D01*
X259373Y2174726D01*
X259373Y2173364D01*
X258009Y2169272D01*
X255282Y2166545D01*
X251192Y2165182D01*
X270282Y2191909D02*
G01*
X241646Y2191909D01*
X270282Y2210999D02*
G01*
X241646Y2210999D01*
X256646Y2191909D02*
G01*
X256646Y2210999D01*
X270282Y2239090D02*
G01*
X241646Y2220000D01*
X270282Y2220000D02*
G01*
X270282Y2239090D01*
X241646Y2220000D02*
G01*
X241646Y2239090D01*
X232100Y2248090D02*
G01*
X232100Y2272636D01*
X270282Y2281635D02*
G01*
X241646Y2292545D01*
X270282Y2303454D02*
G01*
X241646Y2292545D01*
X270282Y2312455D02*
G01*
X268919Y2313818D01*
X270282Y2315182D01*
X271646Y2313818D01*
X270282Y2312455D01*
X260736Y2313818D02*
G01*
X241646Y2313818D01*
X260736Y2324182D02*
G01*
X241646Y2324182D01*
X255282Y2324182D02*
G01*
X259373Y2328272D01*
X260736Y2330999D01*
X260736Y2335091D01*
X259373Y2337818D01*
X255282Y2339182D01*
X241646Y2339182D01*
X3168455Y1935455D02*
G01*
X3171181Y1934090D01*
X3173909Y1931363D01*
X3175272Y1928636D01*
X3175272Y1923182D01*
X3173909Y1920455D01*
X3171181Y1917726D01*
X3168455Y1916363D01*
X3164363Y1915000D01*
X3157545Y1915000D01*
X3153455Y1916363D01*
X3150726Y1917726D01*
X3148000Y1920455D01*
X3146635Y1923182D01*
X3146635Y1928636D01*
X3148000Y1931363D01*
X3150726Y1934090D01*
X3153455Y1935455D01*
X3157545Y1935455D01*
X3157545Y1928636D02*
G01*
X3157545Y1935455D01*
X3175272Y2007455D02*
G01*
X3146635Y2007455D01*
X3160272Y2007455D02*
G01*
X3164363Y2011545D01*
X3165726Y2014272D01*
X3165726Y2018364D01*
X3164363Y2021091D01*
X3160272Y2022455D01*
X3146635Y2022455D01*
X3165726Y2031455D02*
G01*
X3137091Y2031455D01*
X3161635Y2031455D02*
G01*
X3164363Y2034182D01*
X3165726Y2036909D01*
X3165726Y2040999D01*
X3164363Y2043726D01*
X3161635Y2046455D01*
X3157545Y2047818D01*
X3154817Y2047818D01*
X3150726Y2046455D01*
X3148000Y2043726D01*
X3146635Y2040999D01*
X3146635Y2036909D01*
X3148000Y2034182D01*
X3150726Y2031455D01*
X3137091Y2056817D02*
G01*
X3137091Y2081363D01*
X3175272Y2098544D02*
G01*
X3173909Y2094454D01*
X3169817Y2091727D01*
X3163000Y2090363D01*
X3158909Y2090363D01*
X3152091Y2091727D01*
X3148000Y2094454D01*
X3146635Y2098544D01*
X3146635Y2101273D01*
X3148000Y2105363D01*
X3152091Y2108090D01*
X3158909Y2109454D01*
X3163000Y2109454D01*
X3169817Y2108090D01*
X3173909Y2105363D01*
X3175272Y2101273D01*
X3175272Y2098544D01*
X3153455Y2119818D02*
G01*
X3152091Y2118454D01*
X3150726Y2119818D01*
X3152091Y2121181D01*
X3153455Y2119818D01*
X3171181Y2146545D02*
G01*
X3173909Y2145182D01*
X3175272Y2141091D01*
X3175272Y2138364D01*
X3173909Y2134272D01*
X3169817Y2131545D01*
X3163000Y2130182D01*
X3156181Y2130182D01*
X3150726Y2131545D01*
X3148000Y2134272D01*
X3146635Y2138364D01*
X3146635Y2139726D01*
X3148000Y2143818D01*
X3150726Y2146545D01*
X3154817Y2147908D01*
X3156181Y2147908D01*
X3160272Y2146545D01*
X3163000Y2143818D01*
X3164363Y2139726D01*
X3164363Y2138364D01*
X3163000Y2134272D01*
X3160272Y2131545D01*
X3156181Y2130182D01*
X3175272Y2156909D02*
G01*
X3146635Y2156909D01*
X3175272Y2175999D02*
G01*
X3146635Y2175999D01*
X3161635Y2156909D02*
G01*
X3161635Y2175999D01*
X3175272Y2204090D02*
G01*
X3146635Y2185000D01*
X3175272Y2185000D02*
G01*
X3175272Y2204090D01*
X3146635Y2185000D02*
G01*
X3146635Y2204090D01*
X3137091Y2213090D02*
G01*
X3137091Y2237636D01*
X3175272Y2246635D02*
G01*
X3146635Y2257545D01*
X3175272Y2268454D02*
G01*
X3146635Y2257545D01*
X3165726Y2284272D02*
G01*
X3164363Y2281545D01*
X3161635Y2278818D01*
X3157545Y2277455D01*
X3154817Y2277455D01*
X3150726Y2278818D01*
X3148000Y2281545D01*
X3146635Y2284272D01*
X3146635Y2288364D01*
X3148000Y2291091D01*
X3150726Y2293818D01*
X3154817Y2295182D01*
X3157545Y2295182D01*
X3161635Y2293818D01*
X3164363Y2291091D01*
X3165726Y2288364D01*
X3165726Y2284272D01*
X3165726Y2304182D02*
G01*
X3152091Y2304182D01*
X3148000Y2305545D01*
X3146635Y2308272D01*
X3146635Y2312363D01*
X3148000Y2315091D01*
X3152091Y2319182D01*
X3165726Y2319182D02*
G01*
X3146635Y2319182D01*
X3175272Y2332273D02*
G01*
X3152091Y2332273D01*
X3148000Y2333636D01*
X3146635Y2336363D01*
X3146635Y2339090D01*
X3165726Y2328182D02*
G01*
X3165726Y2337727D01*
X969727Y1633184D02*
G01*
X998364Y1633184D01*
X969727Y1633184D02*
G01*
X969727Y1623640D01*
X971090Y1619549D01*
X973818Y1616822D01*
X976544Y1615457D01*
X980636Y1614094D01*
X987454Y1614094D01*
X991544Y1615457D01*
X994273Y1616822D01*
X996999Y1619549D01*
X998364Y1623640D01*
X998364Y1633184D01*
X976544Y1603730D02*
G01*
X975182Y1603730D01*
X972454Y1602366D01*
X971090Y1601003D01*
X969727Y1598276D01*
X969727Y1592822D01*
X971090Y1590093D01*
X972454Y1588730D01*
X975182Y1587366D01*
X977908Y1587366D01*
X980636Y1588730D01*
X984727Y1591457D01*
X998364Y1605093D01*
X998364Y1586003D01*
X969727Y1574275D02*
G01*
X969727Y1559275D01*
X980636Y1567458D01*
X980636Y1563366D01*
X981999Y1560639D01*
X983364Y1559275D01*
X987454Y1557912D01*
X990182Y1557912D01*
X994273Y1559275D01*
X996999Y1562004D01*
X998364Y1566093D01*
X998364Y1570185D01*
X996999Y1574275D01*
X995636Y1575639D01*
X992908Y1577004D01*
X1069727Y1633184D02*
G01*
X1098364Y1633184D01*
X1069727Y1633184D02*
G01*
X1069727Y1623638D01*
X1071090Y1619547D01*
X1073818Y1616821D01*
X1076544Y1615457D01*
X1080636Y1614092D01*
X1087455Y1614092D01*
X1091544Y1615457D01*
X1094273Y1616821D01*
X1096999Y1619547D01*
X1098364Y1623638D01*
X1098364Y1633184D01*
X1076544Y1603730D02*
G01*
X1075182Y1603730D01*
X1072455Y1602366D01*
X1071090Y1601001D01*
X1069727Y1598274D01*
X1069727Y1592820D01*
X1071090Y1590093D01*
X1072455Y1588730D01*
X1075182Y1587366D01*
X1077908Y1587366D01*
X1080636Y1588730D01*
X1084727Y1591457D01*
X1098364Y1605093D01*
X1098364Y1586001D01*
X1076544Y1575639D02*
G01*
X1075182Y1575639D01*
X1072455Y1574274D01*
X1071090Y1572912D01*
X1069727Y1570183D01*
X1069727Y1564729D01*
X1071090Y1562002D01*
X1072455Y1560639D01*
X1075182Y1559274D01*
X1077908Y1559274D01*
X1080636Y1560639D01*
X1084727Y1563366D01*
X1098364Y1577002D01*
X1098364Y1557912D01*
X1169727Y1623640D02*
G01*
X1198364Y1623640D01*
X1169727Y1633186D02*
G01*
X1169727Y1614095D01*
X1169727Y1605095D02*
G01*
X1198364Y1586003D01*
X1169727Y1586003D02*
G01*
X1198364Y1605095D01*
X1169727Y1577004D02*
G01*
X1198364Y1577004D01*
X1169727Y1577004D02*
G01*
X1169727Y1567458D01*
X1171090Y1563368D01*
X1173818Y1560641D01*
X1176544Y1559277D01*
X1180636Y1557912D01*
X1187455Y1557912D01*
X1191544Y1559277D01*
X1194273Y1560641D01*
X1196999Y1563368D01*
X1198364Y1567458D01*
X1198364Y1577004D01*
X1469727Y1619549D02*
G01*
X1498364Y1619549D01*
X1469727Y1619549D02*
G01*
X1469727Y1610003D01*
X1471090Y1605913D01*
X1473818Y1603186D01*
X1476544Y1601822D01*
X1480636Y1600459D01*
X1487455Y1600459D01*
X1491544Y1601822D01*
X1494273Y1603186D01*
X1496999Y1605913D01*
X1498364Y1610003D01*
X1498364Y1619549D01*
X1475182Y1591458D02*
G01*
X1473818Y1588730D01*
X1469727Y1584641D01*
X1498364Y1584641D01*
X1479273Y1557912D02*
G01*
X1483364Y1559277D01*
X1486090Y1562004D01*
X1487455Y1566095D01*
X1487455Y1567458D01*
X1486090Y1571550D01*
X1483364Y1574277D01*
X1479273Y1575641D01*
X1477908Y1575641D01*
X1473818Y1574277D01*
X1471090Y1571550D01*
X1469727Y1567458D01*
X1469727Y1566095D01*
X1471090Y1562004D01*
X1473818Y1559277D01*
X1479273Y1557912D01*
X1486090Y1557912D01*
X1492908Y1559277D01*
X1496999Y1562004D01*
X1498364Y1566095D01*
X1498364Y1568822D01*
X1496999Y1572912D01*
X1494273Y1574277D01*
X1369727Y1620911D02*
G01*
X1398364Y1620911D01*
X1369727Y1620911D02*
G01*
X1369727Y1611365D01*
X1371090Y1607274D01*
X1373818Y1604547D01*
X1376544Y1603184D01*
X1380636Y1601821D01*
X1387455Y1601821D01*
X1391544Y1603184D01*
X1394273Y1604547D01*
X1396999Y1607274D01*
X1398364Y1611365D01*
X1398364Y1620911D01*
X1376544Y1591457D02*
G01*
X1375182Y1591457D01*
X1372455Y1590093D01*
X1371090Y1588730D01*
X1369727Y1586003D01*
X1369727Y1580547D01*
X1371090Y1577820D01*
X1372455Y1576457D01*
X1375182Y1575093D01*
X1377908Y1575093D01*
X1380636Y1576457D01*
X1384727Y1579185D01*
X1398364Y1592820D01*
X1398364Y1573730D01*
X1375182Y1564729D02*
G01*
X1373818Y1562002D01*
X1369727Y1557912D01*
X1398364Y1557912D01*
X1269727Y1633184D02*
G01*
X1298364Y1633184D01*
X1269727Y1633184D02*
G01*
X1269727Y1620913D01*
X1271090Y1616822D01*
X1272455Y1615457D01*
X1275182Y1614094D01*
X1277908Y1614094D01*
X1280636Y1615457D01*
X1281999Y1616822D01*
X1283364Y1620913D01*
X1283364Y1633184D01*
X1283364Y1623640D02*
G01*
X1298364Y1614094D01*
X1269727Y1605093D02*
G01*
X1298364Y1586003D01*
X1269727Y1586003D02*
G01*
X1298364Y1605093D01*
X1269727Y1577004D02*
G01*
X1298364Y1577004D01*
X1269727Y1577004D02*
G01*
X1269727Y1567458D01*
X1271090Y1563366D01*
X1273818Y1560639D01*
X1276544Y1559275D01*
X1280636Y1557912D01*
X1287455Y1557912D01*
X1291544Y1559275D01*
X1294273Y1560639D01*
X1296999Y1563366D01*
X1298364Y1567458D01*
X1298364Y1577004D01*
X1869727Y1633184D02*
G01*
X1898364Y1633184D01*
X1869727Y1633184D02*
G01*
X1869727Y1620911D01*
X1871090Y1616821D01*
X1872455Y1615457D01*
X1875182Y1614094D01*
X1877908Y1614094D01*
X1880636Y1615457D01*
X1881999Y1616821D01*
X1883364Y1620911D01*
X1883364Y1633184D01*
X1883364Y1623638D02*
G01*
X1898364Y1614094D01*
X1869727Y1605093D02*
G01*
X1898364Y1586003D01*
X1869727Y1586003D02*
G01*
X1898364Y1605093D01*
X1876544Y1575639D02*
G01*
X1875182Y1575639D01*
X1872455Y1574275D01*
X1871090Y1572912D01*
X1869727Y1570185D01*
X1869727Y1564729D01*
X1871090Y1562002D01*
X1872455Y1560639D01*
X1875182Y1559275D01*
X1877908Y1559275D01*
X1880636Y1560639D01*
X1884727Y1563366D01*
X1898364Y1577002D01*
X1898364Y1557912D01*
X1969727Y1606457D02*
G01*
X1998364Y1606457D01*
X1969727Y1606457D02*
G01*
X1969727Y1596912D01*
X1971090Y1592820D01*
X1973818Y1590093D01*
X1976544Y1588730D01*
X1980636Y1587366D01*
X1987455Y1587366D01*
X1991544Y1588730D01*
X1994273Y1590093D01*
X1996999Y1592820D01*
X1998364Y1596912D01*
X1998364Y1606457D01*
X1969727Y1564729D02*
G01*
X1988818Y1578366D01*
X1988818Y1557912D01*
X1969727Y1564729D02*
G01*
X1998364Y1564729D01*
X2069727Y1605095D02*
G01*
X2098364Y1605095D01*
X2069727Y1605095D02*
G01*
X2069727Y1595549D01*
X2071090Y1591457D01*
X2073818Y1588730D01*
X2076544Y1587368D01*
X2080636Y1586003D01*
X2087455Y1586003D01*
X2091544Y1587368D01*
X2094273Y1588730D01*
X2096999Y1591457D01*
X2098364Y1595549D01*
X2098364Y1605095D01*
X2076544Y1575639D02*
G01*
X2075182Y1575639D01*
X2072455Y1574277D01*
X2071090Y1572912D01*
X2069727Y1570185D01*
X2069727Y1564731D01*
X2071090Y1562004D01*
X2072455Y1560639D01*
X2075182Y1559277D01*
X2077908Y1559277D01*
X2080636Y1560639D01*
X2084727Y1563368D01*
X2098364Y1577004D01*
X2098364Y1557912D01*
X1769727Y1623638D02*
G01*
X1798364Y1623638D01*
X1769727Y1633184D02*
G01*
X1769727Y1614094D01*
X1769727Y1605093D02*
G01*
X1798364Y1586003D01*
X1769727Y1586003D02*
G01*
X1798364Y1605093D01*
X1776544Y1575639D02*
G01*
X1775182Y1575639D01*
X1772455Y1574275D01*
X1771090Y1572912D01*
X1769727Y1570185D01*
X1769727Y1564729D01*
X1771090Y1562002D01*
X1772455Y1560639D01*
X1775182Y1559275D01*
X1777908Y1559275D01*
X1780636Y1560639D01*
X1784727Y1563366D01*
X1798364Y1577002D01*
X1798364Y1557912D01*
X1669727Y1605095D02*
G01*
X1698364Y1605095D01*
X1669727Y1605095D02*
G01*
X1669727Y1595549D01*
X1671090Y1591458D01*
X1673818Y1588732D01*
X1676544Y1587368D01*
X1680636Y1586003D01*
X1687455Y1586003D01*
X1691544Y1587368D01*
X1694273Y1588732D01*
X1696999Y1591458D01*
X1698364Y1595549D01*
X1698364Y1605095D01*
X1669727Y1560641D02*
G01*
X1669727Y1574277D01*
X1681999Y1575641D01*
X1680636Y1574277D01*
X1679273Y1570185D01*
X1679273Y1566095D01*
X1680636Y1562004D01*
X1683364Y1559277D01*
X1687455Y1557912D01*
X1690182Y1557912D01*
X1694273Y1559277D01*
X1696999Y1562004D01*
X1698364Y1566095D01*
X1698364Y1570185D01*
X1696999Y1574277D01*
X1695636Y1575641D01*
X1692908Y1577004D01*
X1569727Y1620911D02*
G01*
X1598364Y1620911D01*
X1569727Y1620911D02*
G01*
X1569727Y1611365D01*
X1571090Y1607274D01*
X1573818Y1604547D01*
X1576544Y1603184D01*
X1580636Y1601821D01*
X1587455Y1601821D01*
X1591544Y1603184D01*
X1594273Y1604547D01*
X1596999Y1607274D01*
X1598364Y1611365D01*
X1598364Y1620911D01*
X1575182Y1592820D02*
G01*
X1573818Y1590093D01*
X1569727Y1586003D01*
X1598364Y1586003D01*
X1569727Y1570185D02*
G01*
X1571090Y1574274D01*
X1573818Y1575639D01*
X1576544Y1575639D01*
X1579273Y1574274D01*
X1580636Y1571547D01*
X1581999Y1566093D01*
X1583364Y1562002D01*
X1586090Y1559274D01*
X1588818Y1557912D01*
X1592908Y1557912D01*
X1595636Y1559274D01*
X1596999Y1560639D01*
X1598364Y1564729D01*
X1598364Y1570185D01*
X1596999Y1574274D01*
X1595636Y1575639D01*
X1592908Y1577002D01*
X1588818Y1577002D01*
X1586090Y1575639D01*
X1583364Y1572912D01*
X1581999Y1568820D01*
X1580636Y1563366D01*
X1579273Y1560639D01*
X1576544Y1559274D01*
X1573818Y1559274D01*
X1571090Y1560639D01*
X1569727Y1564729D01*
X1569727Y1570185D01*
X2369727Y1633184D02*
G01*
X2369727Y1618184D01*
X2380636Y1626365D01*
X2380636Y1622274D01*
X2381999Y1619547D01*
X2383364Y1618184D01*
X2387455Y1616821D01*
X2390182Y1616821D01*
X2394273Y1618184D01*
X2396999Y1620911D01*
X2398364Y1625003D01*
X2398364Y1629092D01*
X2396999Y1633184D01*
X2395636Y1634547D01*
X2392908Y1635911D01*
X2369727Y1607820D02*
G01*
X2398364Y1596912D01*
X2369727Y1586003D02*
G01*
X2398364Y1596912D01*
X2369727Y1574274D02*
G01*
X2369727Y1559274D01*
X2380636Y1567456D01*
X2380636Y1563366D01*
X2381999Y1560639D01*
X2383364Y1559274D01*
X2387455Y1557912D01*
X2390182Y1557912D01*
X2394273Y1559274D01*
X2396999Y1562002D01*
X2398364Y1566093D01*
X2398364Y1570183D01*
X2396999Y1574274D01*
X2395636Y1575639D01*
X2392908Y1577002D01*
X2276544Y1614095D02*
G01*
X2273818Y1615459D01*
X2271090Y1618186D01*
X2269727Y1620913D01*
X2269727Y1626368D01*
X2271090Y1629095D01*
X2273818Y1631822D01*
X2276544Y1633186D01*
X2280636Y1634549D01*
X2287455Y1634549D01*
X2291544Y1633186D01*
X2294273Y1631822D01*
X2296999Y1629095D01*
X2298364Y1626368D01*
X2298364Y1620913D01*
X2296999Y1618186D01*
X2294273Y1615459D01*
X2291544Y1614095D01*
X2287455Y1614095D01*
X2287455Y1620913D02*
G01*
X2287455Y1614095D01*
X2269727Y1605095D02*
G01*
X2298364Y1605095D01*
X2269727Y1605095D02*
G01*
X2298364Y1586003D01*
X2269727Y1586003D02*
G01*
X2298364Y1586003D01*
X2269727Y1577004D02*
G01*
X2298364Y1577004D01*
X2269727Y1577004D02*
G01*
X2269727Y1567458D01*
X2271090Y1563368D01*
X2273818Y1560641D01*
X2276544Y1559277D01*
X2280636Y1557912D01*
X2287455Y1557912D01*
X2291544Y1559277D01*
X2294273Y1560641D01*
X2296999Y1563368D01*
X2298364Y1567458D01*
X2298364Y1577004D01*
X2169727Y1620913D02*
G01*
X2198364Y1620913D01*
X2169727Y1620913D02*
G01*
X2169727Y1611367D01*
X2171090Y1607276D01*
X2173818Y1604549D01*
X2176544Y1603184D01*
X2180636Y1601822D01*
X2187455Y1601822D01*
X2191544Y1603184D01*
X2194273Y1604549D01*
X2196999Y1607276D01*
X2198364Y1611367D01*
X2198364Y1620913D01*
X2175182Y1592822D02*
G01*
X2173818Y1590093D01*
X2169727Y1586003D01*
X2198364Y1586003D01*
X2169727Y1560639D02*
G01*
X2169727Y1574275D01*
X2181999Y1575639D01*
X2180636Y1574275D01*
X2179273Y1570185D01*
X2179273Y1566093D01*
X2180636Y1562004D01*
X2183364Y1559275D01*
X2187455Y1557912D01*
X2190182Y1557912D01*
X2194273Y1559275D01*
X2196999Y1562004D01*
X2198364Y1566093D01*
X2198364Y1570185D01*
X2196999Y1574275D01*
X2195636Y1575639D01*
X2192908Y1577004D01*
X2174727Y2125000D02*
G01*
X2203364Y2125000D01*
X2174727Y2125000D02*
G01*
X2174727Y2115455D01*
X2176090Y2111363D01*
X2178818Y2108636D01*
X2181544Y2107273D01*
X2185636Y2105909D01*
X2192455Y2105909D01*
X2196544Y2107273D01*
X2199273Y2108636D01*
X2201999Y2111363D01*
X2203364Y2115455D01*
X2203364Y2125000D01*
X2180182Y2096909D02*
G01*
X2178818Y2094182D01*
X2174727Y2090091D01*
X2203364Y2090091D01*
X2174727Y2078364D02*
G01*
X2174727Y2063364D01*
X2185636Y2071545D01*
X2185636Y2067455D01*
X2186999Y2064726D01*
X2188364Y2063364D01*
X2192455Y2061999D01*
X2195182Y2061999D01*
X2199273Y2063364D01*
X2201999Y2066091D01*
X2203364Y2070181D01*
X2203364Y2074272D01*
X2201999Y2078364D01*
X2200636Y2079726D01*
X2197908Y2081091D01*
X2281544Y2104544D02*
G01*
X2278818Y2105909D01*
X2276090Y2108636D01*
X2274727Y2111363D01*
X2274727Y2116817D01*
X2276090Y2119544D01*
X2278818Y2122273D01*
X2281544Y2123636D01*
X2285636Y2125000D01*
X2292455Y2125000D01*
X2296544Y2123636D01*
X2299273Y2122273D01*
X2301999Y2119544D01*
X2303364Y2116817D01*
X2303364Y2111363D01*
X2301999Y2108636D01*
X2299273Y2105909D01*
X2296544Y2104544D01*
X2292455Y2104544D01*
X2292455Y2111363D02*
G01*
X2292455Y2104544D01*
X2274727Y2095545D02*
G01*
X2303364Y2095545D01*
X2274727Y2095545D02*
G01*
X2303364Y2076455D01*
X2274727Y2076455D02*
G01*
X2303364Y2076455D01*
X2274727Y2067455D02*
G01*
X2303364Y2067455D01*
X2274727Y2067455D02*
G01*
X2274727Y2057908D01*
X2276090Y2053818D01*
X2278818Y2051091D01*
X2281544Y2049726D01*
X2285636Y2048364D01*
X2292455Y2048364D01*
X2296544Y2049726D01*
X2299273Y2051091D01*
X2301999Y2053818D01*
X2303364Y2057908D01*
X2303364Y2067455D01*
X2374727Y2125000D02*
G01*
X2403364Y2114090D01*
X2374727Y2103182D02*
G01*
X2403364Y2114090D01*
X2374727Y2094182D02*
G01*
X2403364Y2094182D01*
X2374727Y2085181D02*
G01*
X2403364Y2085181D01*
X2374727Y2085181D02*
G01*
X2403364Y2066091D01*
X2374727Y2066091D02*
G01*
X2403364Y2066091D01*
X1574727Y2125000D02*
G01*
X1603364Y2125000D01*
X1574727Y2125000D02*
G01*
X1574727Y2115455D01*
X1576090Y2111363D01*
X1578818Y2108636D01*
X1581544Y2107273D01*
X1585636Y2105909D01*
X1592455Y2105909D01*
X1596544Y2107273D01*
X1599273Y2108636D01*
X1601999Y2111363D01*
X1603364Y2115455D01*
X1603364Y2125000D01*
X1574727Y2094182D02*
G01*
X1574727Y2079182D01*
X1585636Y2087363D01*
X1585636Y2083272D01*
X1586999Y2080545D01*
X1588364Y2079182D01*
X1592455Y2077818D01*
X1595182Y2077818D01*
X1599273Y2079182D01*
X1601999Y2081909D01*
X1603364Y2085999D01*
X1603364Y2090091D01*
X1601999Y2094182D01*
X1600636Y2095545D01*
X1597908Y2096909D01*
X1574727Y2066091D02*
G01*
X1574727Y2051091D01*
X1585636Y2059272D01*
X1585636Y2055181D01*
X1586999Y2052455D01*
X1588364Y2051091D01*
X1592455Y2049726D01*
X1595182Y2049726D01*
X1599273Y2051091D01*
X1601999Y2053818D01*
X1603364Y2057908D01*
X1603364Y2061999D01*
X1601999Y2066091D01*
X1600636Y2067455D01*
X1597908Y2068818D01*
X1674727Y2125000D02*
G01*
X1703364Y2125000D01*
X1674727Y2125000D02*
G01*
X1674727Y2115455D01*
X1676090Y2111363D01*
X1678818Y2108636D01*
X1681544Y2107273D01*
X1685636Y2105909D01*
X1692455Y2105909D01*
X1696544Y2107273D01*
X1699273Y2108636D01*
X1701999Y2111363D01*
X1703364Y2115455D01*
X1703364Y2125000D01*
X1681544Y2095545D02*
G01*
X1680182Y2095545D01*
X1677455Y2094182D01*
X1676090Y2092818D01*
X1674727Y2090091D01*
X1674727Y2084636D01*
X1676090Y2081909D01*
X1677455Y2080545D01*
X1680182Y2079182D01*
X1682908Y2079182D01*
X1685636Y2080545D01*
X1689727Y2083272D01*
X1703364Y2096909D01*
X1703364Y2077818D01*
X1674727Y2052455D02*
G01*
X1674727Y2066091D01*
X1686999Y2067455D01*
X1685636Y2066091D01*
X1684273Y2061999D01*
X1684273Y2057908D01*
X1685636Y2053818D01*
X1688364Y2051091D01*
X1692455Y2049726D01*
X1695182Y2049726D01*
X1699273Y2051091D01*
X1701999Y2053818D01*
X1703364Y2057908D01*
X1703364Y2061999D01*
X1701999Y2066091D01*
X1700636Y2067455D01*
X1697908Y2068818D01*
X1774727Y2125000D02*
G01*
X1803364Y2125000D01*
X1774727Y2125000D02*
G01*
X1774727Y2115455D01*
X1776090Y2111363D01*
X1778818Y2108636D01*
X1781544Y2107273D01*
X1785636Y2105909D01*
X1792455Y2105909D01*
X1796544Y2107273D01*
X1799273Y2108636D01*
X1801999Y2111363D01*
X1803364Y2115455D01*
X1803364Y2125000D01*
X1781544Y2095545D02*
G01*
X1780182Y2095545D01*
X1777455Y2094182D01*
X1776090Y2092818D01*
X1774727Y2090091D01*
X1774727Y2084636D01*
X1776090Y2081909D01*
X1777455Y2080545D01*
X1780182Y2079182D01*
X1782908Y2079182D01*
X1785636Y2080545D01*
X1789727Y2083272D01*
X1803364Y2096909D01*
X1803364Y2077818D01*
X1778818Y2052455D02*
G01*
X1776090Y2053818D01*
X1774727Y2057908D01*
X1774727Y2060635D01*
X1776090Y2064726D01*
X1780182Y2067455D01*
X1786999Y2068818D01*
X1793818Y2068818D01*
X1799273Y2067455D01*
X1801999Y2064726D01*
X1803364Y2060635D01*
X1803364Y2059272D01*
X1801999Y2055181D01*
X1799273Y2052455D01*
X1795182Y2051091D01*
X1793818Y2051091D01*
X1789727Y2052455D01*
X1786999Y2055181D01*
X1785636Y2059272D01*
X1785636Y2060635D01*
X1786999Y2064726D01*
X1789727Y2067455D01*
X1793818Y2068818D01*
X2074727Y2125000D02*
G01*
X2103364Y2125000D01*
X2074727Y2125000D02*
G01*
X2074727Y2115455D01*
X2076090Y2111363D01*
X2078818Y2108636D01*
X2081544Y2107273D01*
X2085636Y2105909D01*
X2092455Y2105909D01*
X2096544Y2107273D01*
X2099273Y2108636D01*
X2101999Y2111363D01*
X2103364Y2115455D01*
X2103364Y2125000D01*
X2080182Y2096909D02*
G01*
X2078818Y2094182D01*
X2074727Y2090091D01*
X2103364Y2090091D01*
X2081544Y2079726D02*
G01*
X2080182Y2079726D01*
X2077455Y2078364D01*
X2076090Y2076999D01*
X2074727Y2074272D01*
X2074727Y2068818D01*
X2076090Y2066091D01*
X2077455Y2064726D01*
X2080182Y2063364D01*
X2082908Y2063364D01*
X2085636Y2064726D01*
X2089727Y2067455D01*
X2103364Y2081091D01*
X2103364Y2061999D01*
X1974727Y2125000D02*
G01*
X2003364Y2125000D01*
X1974727Y2125000D02*
G01*
X1974727Y2115455D01*
X1976090Y2111363D01*
X1978818Y2108636D01*
X1981544Y2107273D01*
X1985636Y2105909D01*
X1992455Y2105909D01*
X1996544Y2107273D01*
X1999273Y2108636D01*
X2001999Y2111363D01*
X2003364Y2115455D01*
X2003364Y2125000D01*
X1980182Y2096909D02*
G01*
X1978818Y2094182D01*
X1974727Y2090091D01*
X2003364Y2090091D01*
X1974727Y2067455D02*
G01*
X1993818Y2081091D01*
X1993818Y2060635D01*
X1974727Y2067455D02*
G01*
X2003364Y2067455D01*
X1874728Y2125001D02*
G01*
X1903365Y2125001D01*
X1874728Y2125001D02*
G01*
X1874728Y2115455D01*
X1876093Y2111365D01*
X1878819Y2108636D01*
X1881547Y2107274D01*
X1885637Y2105909D01*
X1892457Y2105909D01*
X1896547Y2107274D01*
X1899274Y2108636D01*
X1902002Y2111365D01*
X1903365Y2115455D01*
X1903365Y2125001D01*
X1874728Y2077818D02*
G01*
X1903365Y2091455D01*
X1874728Y2096909D02*
G01*
X1874728Y2077818D01*
X1274727Y2125000D02*
G01*
X1303364Y2125000D01*
X1274727Y2125000D02*
G01*
X1274727Y2115455D01*
X1276090Y2111363D01*
X1278818Y2108636D01*
X1281544Y2107273D01*
X1285636Y2105909D01*
X1292455Y2105909D01*
X1296544Y2107273D01*
X1299273Y2108636D01*
X1301999Y2111363D01*
X1303364Y2115455D01*
X1303364Y2125000D01*
X1274727Y2094182D02*
G01*
X1274727Y2079182D01*
X1285636Y2087363D01*
X1285636Y2083272D01*
X1286999Y2080545D01*
X1288364Y2079182D01*
X1292455Y2077818D01*
X1295182Y2077818D01*
X1299273Y2079182D01*
X1301999Y2081909D01*
X1303364Y2085999D01*
X1303364Y2090091D01*
X1301999Y2094182D01*
X1300636Y2095545D01*
X1297908Y2096909D01*
X1274727Y2055181D02*
G01*
X1293818Y2068818D01*
X1293818Y2048364D01*
X1274727Y2055181D02*
G01*
X1303364Y2055181D01*
X1374727Y2125000D02*
G01*
X1403364Y2125000D01*
X1374727Y2125000D02*
G01*
X1374727Y2115455D01*
X1376090Y2111363D01*
X1378818Y2108636D01*
X1381544Y2107273D01*
X1385636Y2105909D01*
X1392455Y2105909D01*
X1396544Y2107273D01*
X1399273Y2108636D01*
X1401999Y2111363D01*
X1403364Y2115455D01*
X1403364Y2125000D01*
X1374727Y2094182D02*
G01*
X1374727Y2079182D01*
X1385636Y2087363D01*
X1385636Y2083272D01*
X1386999Y2080545D01*
X1388364Y2079182D01*
X1392455Y2077818D01*
X1395182Y2077818D01*
X1399273Y2079182D01*
X1401999Y2081909D01*
X1403364Y2085999D01*
X1403364Y2090091D01*
X1401999Y2094182D01*
X1400636Y2095545D01*
X1397908Y2096909D01*
X1374727Y2052455D02*
G01*
X1374727Y2066091D01*
X1386999Y2067455D01*
X1385636Y2066091D01*
X1384273Y2061999D01*
X1384273Y2057908D01*
X1385636Y2053818D01*
X1388364Y2051091D01*
X1392455Y2049726D01*
X1395182Y2049726D01*
X1399273Y2051091D01*
X1401999Y2053818D01*
X1403364Y2057908D01*
X1403364Y2061999D01*
X1401999Y2066091D01*
X1400636Y2067455D01*
X1397908Y2068818D01*
X1474727Y2125000D02*
G01*
X1503364Y2125000D01*
X1474727Y2125000D02*
G01*
X1474727Y2115455D01*
X1476090Y2111363D01*
X1478818Y2108636D01*
X1481544Y2107273D01*
X1485636Y2105909D01*
X1492455Y2105909D01*
X1496544Y2107273D01*
X1499273Y2108636D01*
X1501999Y2111363D01*
X1503364Y2115455D01*
X1503364Y2125000D01*
X1474727Y2094182D02*
G01*
X1474727Y2079182D01*
X1485636Y2087363D01*
X1485636Y2083272D01*
X1486999Y2080545D01*
X1488364Y2079182D01*
X1492455Y2077818D01*
X1495182Y2077818D01*
X1499273Y2079182D01*
X1501999Y2081909D01*
X1503364Y2085999D01*
X1503364Y2090091D01*
X1501999Y2094182D01*
X1500636Y2095545D01*
X1497908Y2096909D01*
X1481544Y2067455D02*
G01*
X1480182Y2067455D01*
X1477455Y2066091D01*
X1476090Y2064726D01*
X1474727Y2061999D01*
X1474727Y2056545D01*
X1476090Y2053818D01*
X1477455Y2052455D01*
X1480182Y2051091D01*
X1482908Y2051091D01*
X1485636Y2052455D01*
X1489727Y2055181D01*
X1503364Y2068818D01*
X1503364Y2049726D01*
X1174727Y2125000D02*
G01*
X1195182Y2125000D01*
X1199273Y2123636D01*
X1201999Y2120909D01*
X1203364Y2116817D01*
X1203364Y2114090D01*
X1201999Y2110000D01*
X1199273Y2107273D01*
X1195182Y2105909D01*
X1174727Y2105909D01*
X1174727Y2096909D02*
G01*
X1203364Y2096909D01*
X1174727Y2096909D02*
G01*
X1203364Y2077818D01*
X1174727Y2077818D02*
G01*
X1203364Y2077818D01*
X1074727Y2125000D02*
G01*
X1095182Y2125000D01*
X1099273Y2123636D01*
X1101999Y2120909D01*
X1103364Y2116817D01*
X1103364Y2114090D01*
X1101999Y2110000D01*
X1099273Y2107273D01*
X1095182Y2105909D01*
X1074727Y2105909D01*
X1074727Y2096909D02*
G01*
X1103364Y2096909D01*
X1074727Y2096909D02*
G01*
X1074727Y2084636D01*
X1076090Y2080545D01*
X1077455Y2079182D01*
X1080182Y2077818D01*
X1084273Y2077818D01*
X1086999Y2079182D01*
X1088364Y2080545D01*
X1089727Y2084636D01*
X1089727Y2096909D01*
X974727Y2125000D02*
G01*
X1003364Y2125000D01*
X974727Y2125000D02*
G01*
X974727Y2107273D01*
X988364Y2125000D02*
G01*
X988364Y2114090D01*
X1003364Y2125000D02*
G01*
X1003364Y2107273D01*
X974727Y2098272D02*
G01*
X1003364Y2098272D01*
X974727Y2098272D02*
G01*
X1003364Y2079182D01*
X974727Y2079182D02*
G01*
X1003364Y2079182D01*
X3190272Y1528182D02*
G01*
X3188909Y1525455D01*
X3186181Y1522726D01*
X3183455Y1521363D01*
X3179363Y1520000D01*
X3172545Y1520000D01*
X3168455Y1521363D01*
X3165726Y1522726D01*
X3163000Y1525455D01*
X3161635Y1528182D01*
X3161635Y1533636D01*
X3163000Y1536363D01*
X3165726Y1539090D01*
X3168455Y1540455D01*
X3172545Y1541817D01*
X3179363Y1541817D01*
X3183455Y1540455D01*
X3186181Y1539090D01*
X3188909Y1536363D01*
X3190272Y1533636D01*
X3190272Y1528182D01*
X3190272Y1550817D02*
G01*
X3169817Y1550817D01*
X3165726Y1552181D01*
X3163000Y1554908D01*
X3161635Y1559000D01*
X3161635Y1561727D01*
X3163000Y1565817D01*
X3165726Y1568544D01*
X3169817Y1569908D01*
X3190272Y1569908D01*
X3190272Y1588454D02*
G01*
X3161635Y1588454D01*
X3190272Y1578908D02*
G01*
X3190272Y1598000D01*
X3183455Y1608364D02*
G01*
X3184817Y1608364D01*
X3187545Y1609726D01*
X3188909Y1611091D01*
X3190272Y1613818D01*
X3190272Y1619272D01*
X3188909Y1621999D01*
X3187545Y1623364D01*
X3184817Y1624726D01*
X3182091Y1624726D01*
X3179363Y1623364D01*
X3175272Y1620635D01*
X3161635Y1606999D01*
X3161635Y1626091D01*
X3190272Y1727273D02*
G01*
X3188909Y1724544D01*
X3186181Y1721817D01*
X3183455Y1720455D01*
X3179363Y1719090D01*
X3172545Y1719090D01*
X3168455Y1720455D01*
X3165726Y1721817D01*
X3163000Y1724544D01*
X3161635Y1727273D01*
X3161635Y1732726D01*
X3163000Y1735455D01*
X3165726Y1738182D01*
X3168455Y1739544D01*
X3172545Y1740909D01*
X3179363Y1740909D01*
X3183455Y1739544D01*
X3186181Y1738182D01*
X3188909Y1735455D01*
X3190272Y1732726D01*
X3190272Y1727273D01*
X3190272Y1749908D02*
G01*
X3169817Y1749908D01*
X3165726Y1751273D01*
X3163000Y1754000D01*
X3161635Y1758090D01*
X3161635Y1760817D01*
X3163000Y1764908D01*
X3165726Y1767636D01*
X3169817Y1769000D01*
X3190272Y1769000D01*
X3190272Y1787545D02*
G01*
X3161635Y1787545D01*
X3190272Y1778000D02*
G01*
X3190272Y1797091D01*
X3184817Y1806091D02*
G01*
X3186181Y1808818D01*
X3190272Y1812908D01*
X3161635Y1812908D01*
X2495272Y1735000D02*
G01*
X2466635Y1735000D01*
X2495272Y1744000D02*
G01*
X2466635Y1744000D01*
X2495272Y1744000D02*
G01*
X2466635Y1763090D01*
X2495272Y1763090D02*
G01*
X2466635Y1763090D01*
X2488455Y1773454D02*
G01*
X2489817Y1773454D01*
X2492545Y1774818D01*
X2493909Y1776181D01*
X2495272Y1778908D01*
X2495272Y1784364D01*
X2493909Y1787091D01*
X2492545Y1788454D01*
X2489817Y1789818D01*
X2487091Y1789818D01*
X2484363Y1788454D01*
X2480272Y1785727D01*
X2466635Y1772091D01*
X2466635Y1791181D01*
X2495272Y1926181D02*
G01*
X2466635Y1926181D01*
X2495272Y1935181D02*
G01*
X2466635Y1935181D01*
X2495272Y1935181D02*
G01*
X2466635Y1954272D01*
X2495272Y1954272D02*
G01*
X2466635Y1954272D01*
X2489817Y1963272D02*
G01*
X2491181Y1965999D01*
X2495272Y1970091D01*
X2466635Y1970091D01*
X233908Y1310000D02*
G01*
X233908Y1334544D01*
X243454Y1405999D02*
G01*
X246181Y1404636D01*
X248908Y1401909D01*
X250273Y1399182D01*
X250273Y1393726D01*
X248908Y1390999D01*
X246181Y1388272D01*
X243454Y1386909D01*
X239364Y1385545D01*
X232545Y1385545D01*
X228454Y1386909D01*
X225727Y1388272D01*
X223000Y1390999D01*
X221635Y1393726D01*
X221635Y1399182D01*
X223000Y1401909D01*
X225727Y1404636D01*
X228454Y1405999D01*
X232545Y1405999D01*
X232545Y1399182D02*
G01*
X232545Y1405999D01*
X246181Y1469272D02*
G01*
X221635Y1469272D01*
X233908Y1456999D02*
G01*
X233908Y1481545D01*
X250273Y1532545D02*
G01*
X221635Y1532545D01*
X250273Y1532545D02*
G01*
X250273Y1544818D01*
X248908Y1548908D01*
X247545Y1550273D01*
X244818Y1551635D01*
X240727Y1551635D01*
X238000Y1550273D01*
X236635Y1548908D01*
X235273Y1544818D01*
X235273Y1532545D01*
X250273Y1560635D02*
G01*
X221635Y1567455D01*
X250273Y1574272D02*
G01*
X221635Y1567455D01*
X250273Y1574272D02*
G01*
X221635Y1581091D01*
X250273Y1587908D02*
G01*
X221635Y1581091D01*
X250273Y1596909D02*
G01*
X221635Y1596909D01*
X250273Y1596909D02*
G01*
X221635Y1607818D01*
X250273Y1618726D02*
G01*
X221635Y1607818D01*
X250273Y1618726D02*
G01*
X221635Y1618726D01*
X383454Y840455D02*
G01*
X386181Y839090D01*
X388908Y836363D01*
X390273Y833636D01*
X390273Y828182D01*
X388908Y825455D01*
X386181Y822726D01*
X383454Y821363D01*
X379364Y820000D01*
X372545Y820000D01*
X368454Y821363D01*
X365727Y822726D01*
X363000Y825455D01*
X361635Y828182D01*
X361635Y833636D01*
X363000Y836363D01*
X365727Y839090D01*
X368454Y840455D01*
X372545Y840455D01*
X372545Y833636D02*
G01*
X372545Y840455D01*
X373908Y891455D02*
G01*
X373908Y915999D01*
X390273Y969726D02*
G01*
X390273Y984726D01*
X379364Y976545D01*
X379364Y980635D01*
X378000Y983364D01*
X376635Y984726D01*
X372545Y986091D01*
X369818Y986091D01*
X365727Y984726D01*
X363000Y981999D01*
X361635Y977908D01*
X361635Y973818D01*
X363000Y969726D01*
X364364Y968364D01*
X367091Y966999D01*
X380727Y995091D02*
G01*
X361635Y1003272D01*
X380727Y1011455D02*
G01*
X361635Y1003272D01*
X390273Y1023182D02*
G01*
X390273Y1038182D01*
X379364Y1030000D01*
X379364Y1034090D01*
X378000Y1036817D01*
X376635Y1038182D01*
X372545Y1039544D01*
X369818Y1039544D01*
X365727Y1038182D01*
X363000Y1035455D01*
X361635Y1031363D01*
X361635Y1027273D01*
X363000Y1023182D01*
X364364Y1021817D01*
X367091Y1020455D01*
X386181Y1102818D02*
G01*
X361635Y1102818D01*
X373908Y1090545D02*
G01*
X373908Y1115091D01*
X2657272Y1440273D02*
G01*
X2642272Y1440273D01*
X2650455Y1429364D01*
X2646364Y1429364D01*
X2643635Y1428000D01*
X2642272Y1426635D01*
X2640909Y1422545D01*
X2640909Y1419818D01*
X2642272Y1415727D01*
X2645000Y1413000D01*
X2649090Y1411635D01*
X2653181Y1411635D01*
X2657272Y1413000D01*
X2658635Y1414364D01*
X2660000Y1417091D01*
X2631908Y1430727D02*
G01*
X2623726Y1411635D01*
X2615545Y1430727D02*
G01*
X2623726Y1411635D01*
X2603818Y1440273D02*
G01*
X2588818Y1440273D01*
X2596999Y1429364D01*
X2592908Y1429364D01*
X2590182Y1428000D01*
X2588818Y1426635D01*
X2587455Y1422545D01*
X2587455Y1419818D01*
X2588818Y1415727D01*
X2591544Y1413000D01*
X2595636Y1411635D01*
X2599727Y1411635D01*
X2603818Y1413000D01*
X2605182Y1414364D01*
X2606544Y1417091D01*
X2578455Y1402091D02*
G01*
X2553909Y1402091D01*
X2543545Y1433454D02*
G01*
X2543545Y1434818D01*
X2542182Y1437545D01*
X2540817Y1438908D01*
X2538091Y1440273D01*
X2532636Y1440273D01*
X2529908Y1438908D01*
X2528545Y1437545D01*
X2527182Y1434818D01*
X2527182Y1432091D01*
X2528545Y1429364D01*
X2531273Y1425273D01*
X2544908Y1411635D01*
X2525817Y1411635D01*
X753818Y1662726D02*
G01*
X778364Y1662726D01*
X766090Y1675000D02*
G01*
X766090Y1650455D01*
X759272Y1620455D02*
G01*
X787908Y1620455D01*
X763364Y1620455D02*
G01*
X760636Y1617726D01*
X759272Y1615000D01*
X759272Y1610909D01*
X760636Y1608182D01*
X763364Y1605455D01*
X767454Y1604090D01*
X770182Y1604090D01*
X774273Y1605455D01*
X776999Y1608182D01*
X778364Y1610909D01*
X778364Y1615000D01*
X776999Y1617726D01*
X774273Y1620455D01*
X759272Y1595091D02*
G01*
X778364Y1589636D01*
X759272Y1584182D02*
G01*
X778364Y1589636D01*
X759272Y1584182D02*
G01*
X778364Y1578726D01*
X759272Y1573272D02*
G01*
X778364Y1578726D01*
X759272Y1564272D02*
G01*
X778364Y1564272D01*
X764727Y1564272D02*
G01*
X760636Y1560181D01*
X759272Y1557455D01*
X759272Y1553364D01*
X760636Y1550635D01*
X764727Y1549272D01*
X778364Y1549272D01*
X764727Y1549272D02*
G01*
X760636Y1545181D01*
X759272Y1542455D01*
X759272Y1538364D01*
X760636Y1535635D01*
X764727Y1534272D01*
X778364Y1534272D01*
X787908Y1525273D02*
G01*
X787908Y1500727D01*
X759272Y1484908D02*
G01*
X760636Y1487636D01*
X763364Y1490363D01*
X767454Y1491727D01*
X770182Y1491727D01*
X774273Y1490363D01*
X776999Y1487636D01*
X778364Y1484908D01*
X778364Y1480817D01*
X776999Y1478090D01*
X774273Y1475363D01*
X770182Y1474000D01*
X767454Y1474000D01*
X763364Y1475363D01*
X760636Y1478090D01*
X759272Y1480817D01*
X759272Y1484908D01*
X759272Y1465000D02*
G01*
X772908Y1465000D01*
X776999Y1463636D01*
X778364Y1460909D01*
X778364Y1456817D01*
X776999Y1454090D01*
X772908Y1450000D01*
X759272Y1450000D02*
G01*
X778364Y1450000D01*
X749726Y1436909D02*
G01*
X772908Y1436909D01*
X776999Y1435545D01*
X778364Y1432818D01*
X778364Y1430091D01*
X759272Y1440999D02*
G01*
X759272Y1431455D01*
X756545Y1379636D02*
G01*
X753818Y1380999D01*
X751091Y1383726D01*
X749726Y1386455D01*
X749726Y1391909D01*
X751091Y1394636D01*
X753818Y1397363D01*
X756545Y1398726D01*
X760636Y1400091D01*
X767454Y1400091D01*
X771544Y1398726D01*
X774273Y1397363D01*
X776999Y1394636D01*
X778364Y1391909D01*
X778364Y1386455D01*
X776999Y1383726D01*
X774273Y1380999D01*
X771544Y1379636D01*
X767454Y1379636D01*
X767454Y1386455D02*
G01*
X767454Y1379636D01*
D11*
X277726Y1240408D02*
G01*
X281817Y1238364D01*
X285909Y1234272D01*
X287955Y1230181D01*
X290000Y1224045D01*
X290000Y1213818D01*
X287955Y1207681D01*
X285909Y1203591D01*
X281817Y1199499D01*
X277726Y1197455D01*
X269544Y1197455D01*
X265455Y1199499D01*
X261363Y1203591D01*
X259317Y1207681D01*
X257273Y1213818D01*
X257273Y1224045D01*
X259317Y1230181D01*
X261363Y1234272D01*
X265455Y1238364D01*
X269544Y1240408D01*
X277726Y1240408D01*
X243773Y1240408D02*
G01*
X243773Y1197455D01*
X243773Y1197455D02*
G01*
X219227Y1197455D01*
X205727Y1240408D02*
G01*
X205727Y1197455D01*
X205727Y1240408D02*
G01*
X179135Y1240408D01*
X205727Y1219955D02*
G01*
X189364Y1219955D01*
X205727Y1197455D02*
G01*
X179135Y1197455D01*
X165635Y1240408D02*
G01*
X165635Y1197455D01*
X165635Y1240408D02*
G01*
X151318Y1240408D01*
X145181Y1238364D01*
X141091Y1234272D01*
X139045Y1230181D01*
X136999Y1224045D01*
X136999Y1213818D01*
X139045Y1207681D01*
X141091Y1203591D01*
X145181Y1199499D01*
X151318Y1197455D01*
X165635Y1197455D01*
D10*
X800000Y1470000D02*
G01*
X800000Y1370000D01*
X898999Y1370000D01*
X898999Y1670000D01*
X800000Y1670000D01*
X800000Y1470000D01*
X538332Y765000D02*
G01*
X638332Y765000D01*
X638332Y1165000D01*
X538332Y1165000D01*
X538332Y1090000D01*
D12*
X538332Y765000D02*
G01*
X538332Y1090000D01*
D10*
X661667Y765000D02*
G01*
X761666Y765000D01*
X761666Y1165000D01*
X661667Y1165000D01*
X661667Y1090000D01*
D12*
X661667Y765000D02*
G01*
X661667Y1090000D01*
D10*
X3210000Y1460000D02*
G01*
X3310000Y1460000D01*
X3310000Y1860000D01*
X3210000Y1860000D01*
X3210000Y1785000D01*
D12*
X3210000Y1460000D02*
G01*
X3210000Y1785000D01*
D10*
X195000Y1180000D02*
G01*
X95000Y1180000D01*
X95000Y780000D01*
X195000Y780000D01*
X195000Y855000D01*
D12*
X195000Y1180000D02*
G01*
X195000Y855000D01*
D10*
X200000Y1670000D02*
G01*
X100000Y1670000D01*
X100000Y1270000D01*
X200000Y1270000D01*
X200000Y1345000D01*
D12*
X200000Y1670000D02*
G01*
X200000Y1345000D01*
D10*
X785000Y765000D02*
G01*
X885000Y765000D01*
X885000Y1165000D01*
X785000Y1165000D01*
X785000Y1090000D01*
D12*
X785000Y765000D02*
G01*
X785000Y1090000D01*
D10*
X2490000Y1390000D02*
G01*
X2490000Y1290999D01*
X2690000Y1290999D01*
X2690000Y1390000D01*
X2490000Y1390000D01*
X315000Y1180000D02*
G01*
X215000Y1180000D01*
X215000Y780000D01*
X315000Y780000D01*
X315000Y855000D01*
D12*
X315000Y1180000D02*
G01*
X315000Y855000D01*
D10*
X3200000Y3365000D02*
G01*
X3300000Y3365000D01*
X3300000Y3765000D01*
X3200000Y3765000D01*
X3200000Y3690000D01*
D12*
X3200000Y3365000D02*
G01*
X3200000Y3690000D01*
D10*
X1170000Y3365000D02*
G01*
X1270000Y3365000D01*
X1270000Y3765000D01*
X1170000Y3765000D01*
X1170000Y3690000D01*
D12*
X1170000Y3365000D02*
G01*
X1170000Y3690000D01*
D10*
X100000Y3365000D02*
G01*
X200000Y3365000D01*
X200000Y3765000D01*
X100000Y3765000D01*
X100000Y3690000D01*
D12*
X100000Y3365000D02*
G01*
X100000Y3690000D01*
D10*
X1035000Y3365000D02*
G01*
X1135000Y3365000D01*
X1135000Y3765000D01*
X1035000Y3765000D01*
X1035000Y3690000D01*
D12*
X1035000Y3365000D02*
G01*
X1035000Y3690000D01*
D10*
X3200000Y2890001D02*
G01*
X3300000Y2890001D01*
X3300000Y3290001D01*
X3200000Y3290001D01*
X3200000Y3215001D01*
D12*
X3200000Y2890001D02*
G01*
X3200000Y3215001D01*
D10*
X100000Y2890000D02*
G01*
X200000Y2890000D01*
X200000Y3290000D01*
X100000Y3290000D01*
X100000Y3215000D01*
D12*
X100000Y2890000D02*
G01*
X100000Y3215000D01*
D10*
X2350000Y1655000D02*
G01*
X2450000Y1655000D01*
X2450000Y2055000D01*
X2350000Y2055000D01*
X2350000Y1980000D01*
D12*
X2350000Y1655000D02*
G01*
X2350000Y1980000D01*
D10*
X3200000Y2414998D02*
G01*
X3300000Y2414998D01*
X3300000Y2814998D01*
X3200000Y2814998D01*
X3200000Y2739998D01*
D12*
X3200000Y2414998D02*
G01*
X3200000Y2739998D01*
D10*
X100000Y2415000D02*
G01*
X200000Y2415000D01*
X200000Y2815000D01*
X100000Y2815000D01*
X100000Y2740000D01*
D12*
X100000Y2415000D02*
G01*
X100000Y2740000D01*
D10*
X3200000Y1940000D02*
G01*
X3300000Y1940000D01*
X3300000Y2340000D01*
X3200000Y2340000D01*
X3200000Y2265000D01*
D12*
X3200000Y1940000D02*
G01*
X3200000Y2265000D01*
D10*
X100000Y1940000D02*
G01*
X200000Y1940000D01*
X200000Y2340000D01*
X100000Y2340000D01*
X100000Y2265000D01*
D12*
X100000Y1940000D02*
G01*
X100000Y2265000D01*
D10*
X415000Y765000D02*
G01*
X515000Y765000D01*
X515000Y1165000D01*
X415000Y1165000D01*
X415000Y1090000D01*
D12*
X415000Y765000D02*
G01*
X415000Y1090000D01*
D10*
X2445000Y2275000D02*
G01*
X2445000Y2275000D01*
X2445000Y2375000D01*
X945000Y2375000D01*
X945000Y2275000D01*
X1020000Y2275000D01*
D13*
X2445000Y2275000D02*
G01*
X1020000Y2275000D01*
D10*
X935000Y1395000D02*
G01*
X935000Y1395000D01*
X935000Y1295000D01*
X2435000Y1295000D01*
X2435000Y1395000D01*
X2360000Y1395000D01*
D13*
X935000Y1395000D02*
G01*
X2360000Y1395000D01*
D10*
X945000Y2245000D02*
G01*
X945000Y2245000D01*
X945000Y2145000D01*
X2445000Y2145000D01*
X2445000Y2245000D01*
X2370000Y2245000D01*
D13*
X945000Y2245000D02*
G01*
X2370000Y2245000D01*
D10*
X2435000Y1430000D02*
G01*
X2435000Y1430000D01*
X2435000Y1530000D01*
X935000Y1530000D01*
X935000Y1430000D01*
X1010000Y1430000D01*
D13*
X2435000Y1430000D02*
G01*
X1010000Y1430000D01*
M02*
