G04 Layer: BottomSolderMaskLayer*
G04 EasyEDA v6.5.40, 2024-04-23 11:15:46*
G04 c7e9cca6e7fb4e88997dfbcd3db0eb44,2d5800d2cc32464ebd88bb1e24ba3ef2,10*
G04 Gerber Generator version 0.2*
G04 Scale: 100 percent, Rotated: No, Reflected: No *
G04 Dimensions in inches *
G04 leading zeros omitted , absolute positions ,3 integer and 6 decimal *
%FSLAX36Y36*%
%MOIN*%

%AMMACRO1*1,1,$1,$2,$3*1,1,$1,$4,$5*1,1,$1,0-$2,0-$3*1,1,$1,0-$4,0-$5*20,1,$1,$2,$3,$4,$5,0*20,1,$1,$4,$5,0-$2,0-$3,0*20,1,$1,0-$2,0-$3,0-$4,0-$5,0*20,1,$1,0-$4,0-$5,$2,$3,0*4,1,4,$2,$3,$4,$5,0-$2,0-$3,0-$4,0-$5,$2,$3,0*%
%ADD10R,0.0660X0.0660*%
%ADD11C,0.0660*%
%ADD12MACRO1,0.004X0.031X-0.031X0.031X0.031*%
%ADD13MACRO1,0.004X-0.031X-0.031X0.031X-0.031*%
%ADD14MACRO1,0.004X0.031X0.031X-0.031X0.031*%
%ADD15C,0.0640*%

%LPD*%
D10*
G01*
X850000Y1620000D03*
D11*
G01*
X850000Y1520000D03*
G01*
X850000Y1420000D03*
D10*
G01*
X588330Y1115000D03*
D11*
G01*
X588330Y1015000D03*
G01*
X588330Y915000D03*
G01*
X588330Y815000D03*
D10*
G01*
X711669Y1115000D03*
D11*
G01*
X711669Y1015000D03*
G01*
X711669Y915000D03*
G01*
X711669Y815000D03*
D10*
G01*
X3260000Y1810000D03*
D11*
G01*
X3260000Y1710000D03*
G01*
X3260000Y1610000D03*
G01*
X3260000Y1510000D03*
D12*
G01*
X145000Y830000D03*
D11*
G01*
X145000Y930000D03*
G01*
X145000Y1030000D03*
G01*
X145000Y1130000D03*
D12*
G01*
X150000Y1320000D03*
D11*
G01*
X150000Y1420000D03*
G01*
X150000Y1520000D03*
G01*
X150000Y1620000D03*
D10*
G01*
X835000Y1115000D03*
D11*
G01*
X835000Y1015000D03*
G01*
X835000Y915000D03*
G01*
X835000Y815000D03*
D10*
G01*
X2640000Y1340000D03*
D11*
G01*
X2540000Y1340000D03*
D12*
G01*
X265000Y830000D03*
D11*
G01*
X265000Y930000D03*
G01*
X265000Y1030000D03*
G01*
X265000Y1130000D03*
D10*
G01*
X3250000Y3715000D03*
D11*
G01*
X3250000Y3615000D03*
G01*
X3250000Y3515000D03*
G01*
X3250000Y3415000D03*
D10*
G01*
X1220000Y3715000D03*
D11*
G01*
X1220000Y3615000D03*
G01*
X1220000Y3515000D03*
G01*
X1220000Y3415000D03*
D10*
G01*
X150000Y3715000D03*
D11*
G01*
X150000Y3615000D03*
G01*
X150000Y3515000D03*
G01*
X150000Y3415000D03*
D10*
G01*
X1085000Y3715000D03*
D11*
G01*
X1085000Y3615000D03*
G01*
X1085000Y3515000D03*
G01*
X1085000Y3415000D03*
D10*
G01*
X3250000Y3240000D03*
D11*
G01*
X3250000Y3140000D03*
G01*
X3250000Y3040000D03*
G01*
X3250000Y2940000D03*
D10*
G01*
X150000Y3240000D03*
D11*
G01*
X150000Y3140000D03*
G01*
X150000Y3040000D03*
G01*
X150000Y2940000D03*
D10*
G01*
X2400000Y2005000D03*
D11*
G01*
X2400000Y1905000D03*
G01*
X2400000Y1805000D03*
G01*
X2400000Y1705000D03*
D10*
G01*
X3250000Y2765000D03*
D11*
G01*
X3250000Y2665000D03*
G01*
X3250000Y2565000D03*
G01*
X3250000Y2465000D03*
D10*
G01*
X150000Y2765000D03*
D11*
G01*
X150000Y2665000D03*
G01*
X150000Y2565000D03*
G01*
X150000Y2465000D03*
D10*
G01*
X3250000Y2290000D03*
D11*
G01*
X3250000Y2190000D03*
G01*
X3250000Y2090000D03*
G01*
X3250000Y1990000D03*
D10*
G01*
X150000Y2290000D03*
D11*
G01*
X150000Y2190000D03*
G01*
X150000Y2090000D03*
G01*
X150000Y1990000D03*
D10*
G01*
X465000Y1115000D03*
D11*
G01*
X465000Y1015000D03*
G01*
X465000Y915000D03*
G01*
X465000Y815000D03*
G01*
X2395000Y2325000D03*
G01*
X2295000Y2325000D03*
G01*
X2195000Y2325000D03*
G01*
X2095000Y2325000D03*
G01*
X1995000Y2325000D03*
G01*
X1895000Y2325000D03*
G01*
X1795000Y2325000D03*
G01*
X1695000Y2325000D03*
G01*
X1595000Y2325000D03*
G01*
X1495000Y2325000D03*
G01*
X1395000Y2325000D03*
G01*
X1295000Y2325000D03*
G01*
X1195000Y2325000D03*
G01*
X1095000Y2325000D03*
D13*
G01*
X995000Y2325000D03*
D11*
G01*
X985000Y1345000D03*
G01*
X1085000Y1345000D03*
G01*
X1185000Y1345000D03*
G01*
X1285000Y1345000D03*
G01*
X1385000Y1345000D03*
G01*
X1485000Y1345000D03*
G01*
X1585000Y1345000D03*
G01*
X1685000Y1345000D03*
G01*
X1785000Y1345000D03*
G01*
X1885000Y1345000D03*
G01*
X1985000Y1345000D03*
G01*
X2085000Y1345000D03*
G01*
X2185000Y1345000D03*
G01*
X2285000Y1345000D03*
D14*
G01*
X2385000Y1345000D03*
D11*
G01*
X995000Y2195000D03*
G01*
X1095000Y2195000D03*
G01*
X1195000Y2195000D03*
G01*
X1295000Y2195000D03*
G01*
X1395000Y2195000D03*
G01*
X1495000Y2195000D03*
G01*
X1595000Y2195000D03*
G01*
X1695000Y2195000D03*
G01*
X1795000Y2195000D03*
G01*
X1895000Y2195000D03*
G01*
X1995000Y2195000D03*
G01*
X2095000Y2195000D03*
G01*
X2195000Y2195000D03*
G01*
X2295000Y2195000D03*
D14*
G01*
X2395000Y2195000D03*
D11*
G01*
X2385000Y1480000D03*
G01*
X2285000Y1480000D03*
G01*
X2185000Y1480000D03*
G01*
X2085000Y1480000D03*
G01*
X1985000Y1480000D03*
G01*
X1885000Y1480000D03*
G01*
X1785000Y1480000D03*
G01*
X1685000Y1480000D03*
G01*
X1585000Y1480000D03*
G01*
X1485000Y1480000D03*
G01*
X1385000Y1480000D03*
G01*
X1285000Y1480000D03*
G01*
X1185000Y1480000D03*
G01*
X1085000Y1480000D03*
D13*
G01*
X985000Y1480000D03*
D15*
G01*
X2580000Y1035000D03*
G01*
X2580000Y935000D03*
G01*
X2580000Y1135000D03*
G01*
X1795000Y1040000D03*
G01*
X1795000Y940000D03*
G01*
X1795000Y1140000D03*
M02*
