M48
METRIC,LZ,000.000
;FILE_FORMAT=3:3
;TYPE=PLATED
;Layer: PTH_Through
;EasyEDA v6.5.40, 2024-04-23 11:12:17
;45372c239a9944829bc47fabed68c66d,2d5800d2cc32464ebd88bb1e24ba3ef2,10
;Gerber Generator version 0.2
;Holesize 1 = 0.305 mm
T01C0.305
;Holesize 2 = 0.889 mm
T02C0.889
%
G05
G90
T01
X009144Y096139
X010351Y096139
X011557Y096139
X012764Y096139
X013970Y096139
X015177Y096139
X016383Y096139
X017590Y096139
X018669Y096139
X018669Y086868
X017463Y086868
X016256Y086868
X015050Y086868
X013843Y086868
X012637Y086868
X011430Y086868
X010224Y086868
X009144Y085217
X010351Y085217
X011557Y085217
X012764Y085217
X013970Y085217
X015177Y085217
X016383Y085217
X017590Y085217
X018796Y085217
X018669Y094869
X018669Y093472
X018669Y092244
X018669Y091017
X018669Y089789
X018669Y087884
X016383Y098044
X015177Y098044
X013970Y098044
X012764Y098044
X011557Y098044
X010351Y098044
X009144Y098044
X013335Y089789
X013335Y091017
X013335Y092244
X013335Y093472
X017653Y098044
X022733Y092202
X022733Y090996
X022733Y089789
X022733Y093409
T02
X020701Y095504
X020701Y092964
X020701Y090424
X020701Y087884
M30
