G04 Layer: TopLayer*
G04 EasyEDA v6.5.40, 2024-04-23 11:12:17*
G04 45372c239a9944829bc47fabed68c66d,2d5800d2cc32464ebd88bb1e24ba3ef2,10*
G04 Gerber Generator version 0.2*
G04 Scale: 100 percent, Rotated: No, Reflected: No *
G04 Dimensions in millimeters *
G04 leading zeros omitted , absolute positions ,4 integer and 5 decimal *
%FSLAX45Y45*%
%MOMM*%

%ADD10C,0.3810*%
%ADD11O,0.58801X2.0450048*%
%ADD12R,1.5748X1.5748*%
%ADD13C,1.5748*%
%ADD14C,0.6096*%

%LPD*%
G36*
X2007768Y9385655D02*
G01*
X1980844Y9358731D01*
X1991512Y9291472D01*
X2075027Y9374987D01*
G37*
G36*
X1991512Y9047327D02*
G01*
X1980844Y8980068D01*
X2007768Y8953144D01*
X2075027Y8963812D01*
G37*
G36*
X1996693Y8759952D02*
G01*
X2013356Y8695080D01*
X2052726Y8680551D01*
X2107488Y8719108D01*
G37*
G36*
X1998116Y9649358D02*
G01*
X1971141Y9622383D01*
X1991360Y9561779D01*
X2058720Y9629140D01*
G37*
G36*
X1235913Y9468967D02*
G01*
X1235913Y9373717D01*
X1293063Y9402318D01*
X1293063Y9440418D01*
G37*
G36*
X806450Y9551263D02*
G01*
X796086Y9494113D01*
X854913Y9494113D01*
X844550Y9551263D01*
G37*
G36*
X1235913Y8914282D02*
G01*
X1235913Y8819032D01*
X1293063Y8847582D01*
X1293063Y8885682D01*
G37*
G36*
X796086Y8793886D02*
G01*
X806450Y8736736D01*
X844550Y8736736D01*
X854913Y8793886D01*
G37*
D10*
X825500Y8866631D02*
G01*
X825500Y8674100D01*
X889000Y8610600D01*
X1955800Y8610600D01*
X2070100Y8724900D01*
X2070100Y8788400D01*
X825500Y9421368D02*
G01*
X825500Y9639300D01*
X901700Y9715500D01*
X1905000Y9715500D01*
X2070100Y9550400D01*
X1206500Y8866631D02*
G01*
X1390142Y8866631D01*
X1894331Y8866631D01*
X2070100Y9042400D01*
X1206500Y9421368D02*
G01*
X1535684Y9421368D01*
X1945131Y9421368D01*
X2070100Y9296400D01*
D11*
G01*
X1206500Y9421240D03*
G01*
X1079500Y9421240D03*
G01*
X952500Y9421240D03*
G01*
X825500Y9421240D03*
G01*
X1206500Y8866759D03*
G01*
X1079500Y8866759D03*
G01*
X952500Y8866759D03*
G01*
X825500Y8866759D03*
D12*
G01*
X2070100Y9550400D03*
D13*
G01*
X2070100Y9296400D03*
G01*
X2070100Y9042400D03*
G01*
X2070100Y8788400D03*
D14*
G01*
X914400Y9613900D03*
G01*
X1035050Y9613900D03*
G01*
X1155700Y9613900D03*
G01*
X1276350Y9613900D03*
G01*
X1397000Y9613900D03*
G01*
X1517650Y9613900D03*
G01*
X1638300Y9613900D03*
G01*
X1758950Y9613900D03*
G01*
X1866900Y9613900D03*
G01*
X1866900Y8686800D03*
G01*
X1746250Y8686800D03*
G01*
X1625600Y8686800D03*
G01*
X1504950Y8686800D03*
G01*
X1384300Y8686800D03*
G01*
X1263650Y8686800D03*
G01*
X1143000Y8686800D03*
G01*
X1022350Y8686800D03*
G01*
X914400Y8521700D03*
G01*
X1035050Y8521700D03*
G01*
X1155700Y8521700D03*
G01*
X1276350Y8521700D03*
G01*
X1397000Y8521700D03*
G01*
X1517650Y8521700D03*
G01*
X1638300Y8521700D03*
G01*
X1758950Y8521700D03*
G01*
X1879600Y8521700D03*
G01*
X1866900Y9486900D03*
G01*
X1866900Y9347200D03*
G01*
X1866900Y9224441D03*
G01*
X1866900Y9101658D03*
G01*
X1866900Y8978900D03*
G01*
X1866900Y8788400D03*
G01*
X1638300Y9804400D03*
G01*
X1517650Y9804400D03*
G01*
X1397000Y9804400D03*
G01*
X1276350Y9804400D03*
G01*
X1155700Y9804400D03*
G01*
X1035050Y9804400D03*
G01*
X914400Y9804400D03*
G01*
X1333500Y8978900D03*
G01*
X1333500Y9101658D03*
G01*
X1333500Y9224441D03*
G01*
X1333500Y9347200D03*
G01*
X1765300Y9804400D03*
G01*
X2273300Y9220200D03*
G01*
X2273300Y9099550D03*
G01*
X2273300Y8978900D03*
G01*
X2273300Y9340850D03*
M02*
