G04 Layer: BottomLayer*
G04 EasyEDA v6.5.40, 2024-04-23 11:12:17*
G04 45372c239a9944829bc47fabed68c66d,2d5800d2cc32464ebd88bb1e24ba3ef2,10*
G04 Gerber Generator version 0.2*
G04 Scale: 100 percent, Rotated: No, Reflected: No *
G04 Dimensions in millimeters *
G04 leading zeros omitted , absolute positions ,4 integer and 5 decimal *
%FSLAX45Y45*%
%MOMM*%

%ADD10R,1.5748X1.5748*%
%ADD11C,1.5748*%
%ADD12C,0.6096*%

%LPD*%
D10*
G01*
X2070100Y9550400D03*
D11*
G01*
X2070100Y9296400D03*
G01*
X2070100Y9042400D03*
G01*
X2070100Y8788400D03*
D12*
G01*
X914400Y9613900D03*
G01*
X1035050Y9613900D03*
G01*
X1155700Y9613900D03*
G01*
X1276350Y9613900D03*
G01*
X1397000Y9613900D03*
G01*
X1517650Y9613900D03*
G01*
X1638300Y9613900D03*
G01*
X1758950Y9613900D03*
G01*
X1866900Y9613900D03*
G01*
X1866900Y8686800D03*
G01*
X1746250Y8686800D03*
G01*
X1625600Y8686800D03*
G01*
X1504950Y8686800D03*
G01*
X1384300Y8686800D03*
G01*
X1263650Y8686800D03*
G01*
X1143000Y8686800D03*
G01*
X1022350Y8686800D03*
G01*
X914400Y8521700D03*
G01*
X1035050Y8521700D03*
G01*
X1155700Y8521700D03*
G01*
X1276350Y8521700D03*
G01*
X1397000Y8521700D03*
G01*
X1517650Y8521700D03*
G01*
X1638300Y8521700D03*
G01*
X1758950Y8521700D03*
G01*
X1879600Y8521700D03*
G01*
X1866900Y9486900D03*
G01*
X1866900Y9347200D03*
G01*
X1866900Y9224441D03*
G01*
X1866900Y9101658D03*
G01*
X1866900Y8978900D03*
G01*
X1866900Y8788400D03*
G01*
X1638300Y9804400D03*
G01*
X1517650Y9804400D03*
G01*
X1397000Y9804400D03*
G01*
X1276350Y9804400D03*
G01*
X1155700Y9804400D03*
G01*
X1035050Y9804400D03*
G01*
X914400Y9804400D03*
G01*
X1333500Y8978900D03*
G01*
X1333500Y9101658D03*
G01*
X1333500Y9224441D03*
G01*
X1333500Y9347200D03*
G01*
X1765300Y9804400D03*
G01*
X2273300Y9220200D03*
G01*
X2273300Y9099550D03*
G01*
X2273300Y8978900D03*
G01*
X2273300Y9340850D03*
M02*
